<svg viewBox="0 0 144 504" fill="none" xmlns="http://www.w3.org/2000/svg">
<g clip-path="url(#clip0_1020_14266)">
<path d="M3 87.7701L33.1379 87.7701L33.1379 5.81608L74.6437 5.81609L174.839 89.8851L174.839 131.391L74.3793 131.391L74.3793 149.897L33.1379 149.897L33.1379 131.391L2.99999 131.391L3 87.7701ZM110.862 87.7701L74.3793 57.3678L74.3793 87.7701L110.862 87.7701ZM177.483 252.19C177.483 277.834 169.023 299.512 152.103 316.696C135.184 334.144 114.034 342.869 88.9195 342.869C63.8046 342.869 42.6552 334.144 25.7356 316.696C8.81608 299.512 0.356309 277.834 0.356311 252.19C0.356312 226.282 8.81608 204.604 25.7356 187.156C42.6552 169.972 63.8046 161.248 88.9195 161.248C114.034 161.248 135.184 169.972 152.103 187.156C169.023 204.604 177.483 226.282 177.483 252.19ZM89.1839 208.57C76.2299 208.57 65.3908 212.8 56.6667 220.995C47.9425 229.19 43.7126 239.765 43.7126 252.19C43.7126 264.616 47.9425 274.926 56.6667 283.121C65.3908 291.581 76.2299 295.811 89.1839 295.811C101.609 295.811 112.184 291.581 120.908 283.121C129.632 274.926 134.126 264.616 134.126 252.19C134.126 239.765 129.897 229.19 121.172 220.995C112.448 212.8 101.874 208.57 89.1839 208.57ZM2.99998 437.076L33.1379 437.076L33.1379 355.122L74.6437 355.122L174.839 439.191L174.839 480.697L74.3793 480.697L74.3793 499.203L33.1379 499.203L33.1379 480.697L2.99998 480.697L2.99998 437.076ZM110.862 437.076L74.3793 406.674L74.3793 437.076L110.862 437.076Z" fill="#1F1F1F"/>
</g>
<defs>
<clipPath id="clip0_1020_14266">
<rect width="144" height="504" fill="white"/>
</clipPath>
</defs>
</svg>
