<svg width="36" height="36" viewBox="0 0 36 36" fill="none" xmlns="http://www.w3.org/2000/svg">
<rect x="0.375" y="0.375" width="35.25" height="35.25" rx="17.625" stroke="white" stroke-width="0.75"/>
<path d="M25.6261 18.5734C26.2662 19.4287 27.9955 20.9927 27.8148 24.4528M15.1238 19.1599C15.1238 19.1599 19.9162 22.1009 16.2283 26.853M13.4435 11.8207L8.17188 9.14746L12.1276 13.5807" stroke="white" stroke-width="0.375" stroke-linecap="round" stroke-linejoin="round"/>
<path d="M17.2047 16.0699C17.4033 19.0954 13.8291 19.5831 12.876 19.812C12.7554 19.8407 12.6476 19.9023 12.5599 19.99L11.7551 20.7948C11.6286 20.9214 11.457 20.9925 11.278 20.9925H10.0062C9.5706 20.9925 9.18385 20.7136 9.04626 20.3003L8.85394 19.7238C8.80758 19.5853 8.79184 19.4384 8.8078 19.2932C8.82376 19.148 8.87104 19.008 8.94638 18.8829L12.1275 13.581L13.8381 11.8704L13.0721 9.36978C13.0721 9.36978 15.8973 9.11691 16.1188 11.3003C16.1188 11.3003 22.2478 12.1843 19.9395 18.3182C19.9395 18.3182 19.3514 20.4724 20.7996 22.3684" stroke="white" stroke-width="0.375" stroke-linecap="round" stroke-linejoin="round"/>
<path d="M15.6543 9.96923C15.6543 9.96923 23.708 8.5136 22.8809 17.1958" stroke="white" stroke-width="0.375" stroke-linecap="round" stroke-linejoin="round"/>
<path d="M22.5352 13.2764C22.5352 13.2764 27.8817 15.6617 24.5109 21.3216C24.5109 21.3216 22.5644 23.6979 24.7372 26.2479" stroke="white" stroke-width="0.375" stroke-linecap="round" stroke-linejoin="round"/>
</svg>
