<svg width="36" height="36" viewBox="0 0 36 36" fill="none" xmlns="http://www.w3.org/2000/svg">
<rect x="4.5" y="3.75" width="39.5096" height="0.75" transform="rotate(45 4.5 3.75)" fill="#1E1E1E"/>
<path d="M13.5361 10.873V12.7841H15.4472V10.873H13.5361ZM16.4049 10.873V12.7841H18.316V10.873H16.4049ZM19.2694 10.873V12.7841H21.1847V10.873H19.2694ZM22.1382 10.873V12.7841H24.0493V10.873H22.1382ZM25.0069 10.873V12.7841H26.918V10.873H25.0069ZM16.4049 13.7376V15.6529H18.316V13.7376H16.4049ZM19.2694 13.7376V15.6529H21.1847V13.7376H19.2694ZM22.1382 13.7376V15.6529H24.0493V13.7376H22.1382ZM25.0069 13.7376V15.6529H26.918V13.7376H25.0069ZM25.0069 16.6063V18.5174H26.918V16.6063H25.0069Z" stroke="white" stroke-width="0.28125" stroke-linecap="round" stroke-linejoin="round"/>
<path d="M28.4531 9.84375V19.5469C28.4531 19.7707 28.3642 19.9853 28.206 20.1435C28.0478 20.3017 27.8332 20.3906 27.6094 20.3906H20.2266L12 12V9.84375C12 9.61997 12.0889 9.40536 12.2471 9.24713C12.4054 9.0889 12.62 9 12.8438 9H27.6094C27.8332 9 28.0478 9.0889 28.206 9.24713C28.3642 9.40536 28.4531 9.61997 28.4531 9.84375Z" stroke="white" stroke-width="0.5625" stroke-linecap="round" stroke-linejoin="round"/>
<rect x="6.75" y="8.25" width="30" height="0.375" transform="rotate(45 6.75 8.25)" fill="white"/>
<rect x="0.375" y="0.375" width="35.25" height="35.25" rx="17.625" stroke="white" stroke-width="0.75"/>
<mask id="mask0_689_6886" style="mask-type:luminance" maskUnits="userSpaceOnUse" x="8" y="16" width="14" height="14">
<path d="M8.25 16.5H21.75V30H8.25V16.5Z" fill="white"/>
</mask>
<g mask="url(#mask0_689_6886)">
<path d="M21.1076 23.1808L19.9657 24.3244L18.0645 22.4226L19.2058 21.2812" fill="white"/>
<path d="M14.0822 28.3052L17.3036 25.0832M8.89258 17.0625C13.1957 18.6763 11.5825 21.6351 9.96864 25.4004C8.35427 29.1658 10.7753 29.4347 11.5825 29.4347C12.1685 29.462 12.7438 29.2703 13.1963 28.8969M19.9671 24.3244L18.0658 22.4231L15.9778 23.0194C15.802 23.0695 15.6419 23.1638 15.5126 23.2931C15.3834 23.4224 15.2893 23.5826 15.2393 23.7585L14.0147 28.0436C14.0015 28.0897 14.0009 28.1385 14.0129 28.185C14.025 28.2314 14.0492 28.2738 14.0831 28.3077C14.117 28.3416 14.1594 28.3658 14.2058 28.3778C14.2522 28.3899 14.301 28.3892 14.3471 28.3761L18.6334 27.1492C18.8091 27.099 18.9691 27.0047 19.0983 26.8754C19.2274 26.7461 19.3214 26.5859 19.3714 26.4101L19.9671 24.3244Z" stroke="white" stroke-width="0.5625" stroke-linecap="round" stroke-linejoin="round"/>
<path d="M21.1076 23.1808L19.9657 24.3244L18.0645 22.4226L19.2058 21.2812" stroke="white" stroke-width="0.5625" stroke-linecap="round" stroke-linejoin="round"/>
</g>
</svg>
