<svg width="36" height="36" viewBox="0 0 36 36" fill="none" xmlns="http://www.w3.org/2000/svg">
<rect x="0.375" y="0.375" width="35.25" height="35.25" rx="17.625" stroke="white" stroke-width="0.75"/>
<mask id="mask0_689_6941" style="mask-type:luminance" maskUnits="userSpaceOnUse" x="8" y="8" width="20" height="20">
<path d="M8 8H28V28H8V8Z" fill="white"/>
</mask>
<g mask="url(#mask0_689_6941)">
<path d="M27.0484 17.8977L25.3567 19.5918L22.54 16.7743L24.2309 15.0835" fill="white"/>
<path d="M16.6405 25.4893L21.413 20.716M8.95215 8.8335C15.3271 11.2243 12.9371 15.6077 10.5463 21.186C8.15465 26.7643 11.7413 27.1627 12.9371 27.1627C13.8054 27.2032 14.6576 26.9192 15.328 26.366M25.3588 19.5918L22.5421 16.7752L19.4488 17.6585C19.1883 17.7328 18.9511 17.8724 18.7596 18.064C18.5682 18.2556 18.4288 18.493 18.3546 18.7535L16.5405 25.1018C16.5209 25.1701 16.52 25.2424 16.5379 25.3112C16.5557 25.38 16.5916 25.4428 16.6418 25.493C16.692 25.5433 16.7548 25.5791 16.8236 25.597C16.8924 25.6148 16.9647 25.6139 17.033 25.5943L23.383 23.7768C23.6433 23.7024 23.8804 23.5627 24.0717 23.3711C24.263 23.1795 24.4023 22.9423 24.4763 22.6818L25.3588 19.5918Z" stroke="white" stroke-width="0.833333" stroke-linecap="round" stroke-linejoin="round"/>
<path d="M27.0484 17.8977L25.3567 19.5918L22.54 16.7743L24.2309 15.0835" stroke="white" stroke-width="0.833333" stroke-linecap="round" stroke-linejoin="round"/>
</g>
</svg>
