<svg viewBox="0 0 86 890" fill="none" xmlns="http://www.w3.org/2000/svg">
<g clip-path="url(#clip0_1020_14271)">
<path d="M98.9735 -0.0767312L98.9735 73.3248L75.4015 73.3248L75.4015 25.4348L61.9744 25.4348L61.9744 64.9701L38.5515 64.9701L38.5515 25.4348L2 25.4348L2 -0.0767355L98.9735 -0.0767312ZM100.465 127.994C100.465 142.465 95.6913 154.699 86.1432 164.396C76.595 174.242 64.6598 179.166 50.4867 179.166C36.3137 179.166 24.3785 174.242 14.8303 164.396C5.28217 154.699 0.508093 142.465 0.508094 127.994C0.508095 113.373 5.28218 101.139 14.8303 91.2928C24.3785 81.5955 36.3137 76.6722 50.4867 76.6722C64.6598 76.6722 76.595 81.5955 86.1432 91.2928C95.6913 101.139 100.465 113.373 100.465 127.994ZM50.6359 103.377C43.3256 103.377 37.2088 105.764 32.2856 110.389C27.3623 115.014 24.9753 120.982 24.9753 127.994C24.9753 135.005 27.3623 140.824 32.2856 145.449C37.2088 150.223 43.3256 152.61 50.6359 152.61C57.6479 152.61 63.6155 150.223 68.5387 145.449C73.462 140.824 75.9982 135.005 75.9982 127.994C75.9982 120.982 73.6112 115.014 68.6879 110.389C63.7647 105.764 57.7971 103.377 50.6359 103.377ZM98.9735 187.722L98.9735 233.673C98.9735 244.116 95.6913 252.769 89.2761 259.781C82.861 266.793 74.8047 270.224 65.1074 270.224C53.023 270.224 42.4305 264.107 36.4629 253.962L1.99999 273.506L1.99999 245.16L31.092 228.451L31.092 213.233L1.99999 213.233L1.99999 187.722L98.9735 187.722ZM75.4015 233.673L75.4015 213.233L54.5149 213.233L54.5149 233.673C54.5149 239.491 58.9906 243.817 65.1074 243.817C70.9258 243.817 75.4015 239.491 75.4015 233.673ZM1.99999 305.447L1.99999 280.383L98.9735 280.383L98.9735 305.447L45.4143 335.583L98.9735 365.72L98.9735 390.784L1.99998 390.784L1.99998 365.72L51.6803 365.72L11.6973 344.087L11.6973 327.079L51.6803 305.447L1.99999 305.447ZM98.9735 430.447L98.9735 503.849L75.4015 503.849L75.4015 455.959L61.9744 455.959L61.9744 495.494L38.5515 495.494L38.5515 455.959L1.99998 455.959L1.99998 430.447L98.9735 430.447ZM1.99998 518.672L1.99998 492.116L98.9735 532.248L98.9735 553.433L1.99997 593.565L1.99998 566.86L16.3222 561.191L16.3222 524.341L1.99998 518.672ZM62.5711 542.841L38.7007 533.293L38.7007 552.389L62.5711 542.841ZM1.99997 624.38L1.99997 598.869L98.9735 598.869L98.9735 624.38L1.99997 624.38ZM98.9735 634.272L98.9735 659.784L25.4228 659.784L25.4228 704.541L1.99997 704.541L1.99997 634.272L98.9735 634.272ZM98.9735 712.072L98.9735 785.474L75.4014 785.474L75.4015 737.584L62.5711 737.584L62.5711 777.119L38.9991 777.119L38.9991 737.584L25.4228 737.584L25.4228 786.071L1.99997 786.071L1.99997 712.072L98.9735 712.072ZM1.99996 834.674L1.99997 794.243L98.9735 794.243L98.9735 834.674C98.9735 849.145 94.3486 861.379 84.9496 871.076C75.5506 880.923 64.063 885.846 50.4867 885.846C36.7612 885.846 25.2736 880.923 15.8746 871.226C6.62485 861.528 1.99996 849.295 1.99996 834.674ZM75.4014 834.674L75.4014 819.755L25.4228 819.755L25.4228 834.674C25.4228 841.686 27.8098 847.504 32.5839 852.129C37.5072 856.903 43.4748 859.29 50.4867 859.29C57.4986 859.29 63.4662 856.903 68.2403 852.129C73.0144 847.504 75.4014 841.686 75.4014 834.674Z" fill="#1F1F1F"/>
</g>
<defs>
<clipPath id="clip0_1020_14271">
<rect width="86" height="890" fill="white"/>
</clipPath>
</defs>
</svg>
