<svg width="370" height="370" viewBox="0 0 370 370" fill="none" xmlns="http://www.w3.org/2000/svg">
<mask id="path-1-inside-1_653_4722" fill="white">
<path d="M97.8041 332.148C131.791 355.274 173.573 363.952 213.957 356.272C254.342 348.592 290.022 325.183 313.148 291.196C336.274 257.21 344.951 215.428 337.271 175.043C329.591 134.658 306.183 98.9786 272.196 75.8527L271.92 76.2588C305.799 99.3113 329.133 134.878 336.789 175.135C344.444 215.392 335.794 257.041 312.742 290.92C289.689 324.799 254.122 348.133 213.866 355.789C173.609 363.445 131.96 354.795 98.0804 331.742L97.8041 332.148Z"/>
</mask>
<path d="M97.8041 332.148C131.791 355.274 173.573 363.952 213.957 356.272C254.342 348.592 290.022 325.183 313.148 291.196C336.274 257.21 344.951 215.428 337.271 175.043C329.591 134.658 306.183 98.9786 272.196 75.8527L271.92 76.2588C305.799 99.3113 329.133 134.878 336.789 175.135C344.444 215.392 335.794 257.041 312.742 290.92C289.689 324.799 254.122 348.133 213.866 355.789C173.609 363.445 131.96 354.795 98.0804 331.742L97.8041 332.148Z" stroke="#434343" stroke-width="2" mask="url(#path-1-inside-1_653_4722)"/>
<mask id="path-2-inside-2_653_4722" fill="white">
<path d="M363.626 155.856C355.935 127.32 341.518 101.041 321.584 79.2211C301.65 57.401 276.778 40.6744 249.051 30.4418C221.324 20.2093 191.549 16.7686 162.219 20.4079C132.89 24.0473 104.858 34.6607 80.4732 51.3594L80.8044 51.843C105.112 35.1972 133.055 24.6174 162.292 20.9896C191.529 17.3618 221.209 20.7916 248.848 30.9917C276.487 41.1918 301.28 57.8654 321.151 79.6164C341.022 101.367 355.393 127.563 363.06 156.009L363.626 155.856Z"/>
</mask>
<path d="M363.626 155.856C355.935 127.32 341.518 101.041 321.584 79.2211C301.65 57.401 276.778 40.6744 249.051 30.4418C221.324 20.2093 191.549 16.7686 162.219 20.4079C132.89 24.0473 104.858 34.6607 80.4732 51.3594L80.8044 51.843C105.112 35.1972 133.055 24.6174 162.292 20.9896C191.529 17.3618 221.209 20.7916 248.848 30.9917C276.487 41.1918 301.28 57.8654 321.151 79.6164C341.022 101.367 355.393 127.563 363.06 156.009L363.626 155.856Z" stroke="#434343" stroke-width="2" mask="url(#path-2-inside-2_653_4722)"/>
</svg>
