<svg width="300" height="89" viewBox="0 0 300 89" fill="none" xmlns="http://www.w3.org/2000/svg">
<g clip-path="url(#clip0_653_4745)">
<path d="M38.1818 23.7603L34.68 24.8163C33.5127 22.3664 31.0657 20.8668 28.1757 20.8668C26.0662 20.8668 24.2872 21.592 22.8949 23.0352C21.5026 24.4291 20.7854 26.2102 20.7854 28.3785C20.7854 30.5469 21.5096 32.328 22.8949 33.7782C24.2872 35.1722 26.0662 35.8903 28.1757 35.8903C31.0657 35.8903 33.5127 34.3907 34.68 31.9408L38.1818 32.9968C36.459 36.9463 32.6267 39.4525 28.1194 39.4525C25.0044 39.4525 22.3956 38.3965 20.2791 36.2775C18.2258 34.1654 17.1641 31.5466 17.1641 28.3785C17.1641 25.2105 18.2188 22.5916 20.2791 20.5289C22.3886 18.4169 25.0044 17.3539 28.1194 17.3539C32.6197 17.3539 36.459 19.9164 38.1818 23.7533V23.7603ZM44.7634 36.2845C42.7102 34.1725 41.6484 31.5536 41.6484 28.3856C41.6484 25.2176 42.7032 22.5987 44.7634 20.536C46.8729 18.424 49.4887 17.3609 52.653 17.3609C55.8173 17.3609 58.433 18.4169 60.4933 20.536C62.6028 22.5916 63.6646 25.2105 63.6646 28.3856C63.6646 31.5606 62.6099 34.1725 60.4933 36.2845C58.4401 38.3965 55.8243 39.4595 52.653 39.4595C49.4817 39.4595 46.8729 38.4035 44.7634 36.2845ZM47.3722 23.0422C45.9799 24.4361 45.2627 26.2173 45.2627 28.3856C45.2627 30.5539 45.987 32.335 47.3722 33.7853C48.8207 35.1792 50.5927 35.8973 52.653 35.8973C54.7133 35.8973 56.4853 35.1722 57.8775 33.7853C59.2698 32.335 59.987 30.561 59.987 28.3856C59.987 26.2102 59.2628 24.4361 57.8775 23.0422C56.4853 21.592 54.7062 20.8739 52.653 20.8739C50.5997 20.8739 48.8207 21.599 47.3722 23.0422ZM77.9389 17.3609C80.9977 17.3609 83.494 18.4732 85.5543 20.6979L85.498 -0.00683594H88.9998V38.9456H85.498V36.1085C83.494 38.3331 80.9977 39.4455 77.9389 39.4455C74.8802 39.4455 72.4894 38.3895 70.4924 36.2704C68.5446 34.1584 67.5461 31.5395 67.5461 28.3715C67.5461 25.2035 68.5446 22.5846 70.4924 20.5219C72.4964 18.4099 74.9927 17.3468 77.9389 17.3468V17.3609ZM78.3257 20.8668C74.2684 20.8668 71.1534 24.0912 71.1534 28.3785C71.1534 32.6659 74.2684 35.8903 78.3257 35.8903C80.3227 35.8903 81.9962 35.1651 83.3815 33.7782C84.7737 32.328 85.4418 30.5539 85.4418 28.3785C85.4418 26.2032 84.7737 24.4291 83.3815 23.0352C81.9892 21.5849 80.3227 20.8668 78.3257 20.8668ZM115.601 29.6035H97.5363C98.0355 33.391 101.151 36.1155 105.152 36.1155C107.817 36.1155 109.877 35.1158 111.318 33.1094L114.708 34.1654C112.76 37.4461 109.314 39.4525 105.145 39.4525C101.924 39.4525 99.252 38.3965 97.0862 36.2775C94.9767 34.1654 93.9149 31.5466 93.9149 28.3785C93.9149 25.2105 94.9697 22.5916 97.03 20.5289C99.0832 18.4169 101.699 17.3539 104.814 17.3539C107.929 17.3539 110.482 18.4099 112.542 20.5289C114.595 22.5846 115.657 25.2035 115.657 28.3785C115.657 28.9347 115.657 29.3219 115.601 29.6035ZM97.5363 26.7664H112.043C111.375 23.2041 108.372 20.6486 104.765 20.6486C101.158 20.6486 98.2043 23.2112 97.5363 26.7664ZM123.884 26.9917L123.736 37.2208L120.326 38.9527V17.8044H123.884V21.3104C125.494 18.6915 127.998 17.3609 131.274 17.3609H131.886V21.254C131.387 21.0851 130.888 20.9724 130.332 20.9724C126.718 20.9724 123.884 23.5913 123.884 26.9846V26.9917Z" fill="#222222"/>
<path d="M112.676 50.4065C112.929 50.0122 113.512 50.4346 113.674 50.4487C115.284 50.5895 116.459 51.0682 116.824 51.2301C118.526 51.9623 119.672 53.0535 120.291 53.7505L120.326 37.2275H123.737V71.9982H120.235V69.1611C118.231 71.3857 115.735 72.4981 112.676 72.4981C109.617 72.4981 107.226 71.4421 105.229 69.323C104.519 68.5557 103.935 67.7179 103.485 66.8097C103.345 66.5281 102.859 65.5355 102.557 64.1345C102.473 63.7544 103.985 63.2616 103.992 61.9239C103.999 60.8539 105.285 59.3191 106.882 57.1226C107.894 55.7287 109.652 54.5601 110.278 53.8983C112.282 51.7863 112.282 51.0189 112.676 50.3924V50.4065ZM113.062 53.9124C109.005 53.9124 105.89 57.1438 105.89 61.4241C105.89 65.7044 109.005 68.9358 113.062 68.9358C115.066 68.9358 116.733 68.2107 118.118 66.8238C119.511 65.3806 120.171 63.5995 120.171 61.4241C120.171 59.2487 119.503 57.4747 118.118 56.0807C116.726 54.6305 115.059 53.9124 113.062 53.9124ZM150.337 62.6491H132.273C132.772 66.4366 135.887 69.1611 139.888 69.1611C142.553 69.1611 144.614 68.1614 146.055 66.155L149.444 67.211C147.497 70.4917 144.051 72.4981 139.881 72.4981C136.654 72.4981 133.989 71.4421 131.823 69.323C129.713 67.211 128.652 64.5921 128.652 61.4241C128.652 58.2561 129.706 55.6372 131.767 53.5745C133.82 51.4625 136.436 50.4065 139.551 50.4065C142.666 50.4065 145.218 51.4625 147.279 53.5745C149.332 55.6372 150.394 58.2491 150.394 61.4241C150.394 61.9803 150.394 62.3675 150.337 62.6491ZM132.273 59.8119H146.779C146.111 56.2497 143.109 53.6871 139.495 53.6871C135.88 53.6871 132.934 56.2497 132.266 59.8119H132.273ZM169.52 55.4682L166.243 56.0807C165.856 54.5249 164.19 53.5182 161.799 53.5182C159.408 53.5182 157.742 54.5742 157.742 56.1863C157.742 57.2986 158.522 58.1364 160.02 58.6363L165.076 60.4174C168.353 61.586 169.97 63.5361 169.97 66.2606C169.97 70.2101 166.637 72.491 162.024 72.491C157.411 72.491 154.409 70.2664 153.797 66.8731L157.13 66.3169C157.517 68.1544 159.352 69.3793 162.08 69.3793C164.809 69.3793 166.581 68.1544 166.581 66.3732C166.581 65.092 165.638 64.2049 163.803 63.5924L158.86 61.8113C155.914 60.7553 154.416 58.9742 154.416 56.4679C154.416 52.5185 157.587 50.3994 162.031 50.3994C166.201 50.3994 169.035 52.4058 169.534 55.4612L169.52 55.4682ZM178.274 71.9982H174.716V50.85H178.274V71.9982ZM174.773 43.3383C173.887 42.4512 173.887 40.7757 174.773 39.8887C175.659 39.0016 177.332 39.0016 178.218 39.8887C179.111 40.7757 179.111 42.4512 178.218 43.3383C177.332 44.2253 175.659 44.2253 174.773 43.3383ZM193.61 50.3501C196.669 50.3501 199.165 51.4625 201.226 53.7434V50.85H204.671V74.1665C204.671 77.229 203.617 79.8408 201.556 81.9035C199.503 83.9663 196.887 85.0223 193.716 85.0223C189.328 85.0223 185.376 82.685 183.766 79.2917L187.268 78.1794C188.379 80.1858 190.882 81.5163 193.603 81.5163C195.769 81.5163 197.548 80.7912 198.997 79.4043C200.494 78.0104 201.219 76.2293 201.219 74.1736V69.1118C199.165 71.3928 196.662 72.5051 193.603 72.5051C190.545 72.5051 188.154 71.4491 186.157 69.3301C184.209 67.218 183.211 64.5992 183.211 61.4311C183.211 58.2631 184.209 55.6442 186.157 53.5252C188.161 51.4132 190.657 50.3501 193.603 50.3501H193.61ZM193.941 53.9124C191.937 53.9124 190.27 54.6375 188.885 56.0807C187.493 57.4747 186.832 59.2558 186.832 61.4241C186.832 63.5924 187.5 65.3736 188.885 66.8238C190.277 68.2177 191.944 68.9358 193.941 68.9358C197.998 68.9358 201.113 65.7115 201.113 61.4241C201.113 57.1367 197.998 53.9124 193.941 53.9124ZM210.648 71.9982V50.85H214.206V54.2996C215.817 51.6877 218.32 50.4065 221.597 50.4065C224.044 50.4065 226.041 51.1879 227.658 52.8001C229.268 54.4122 230.105 56.4186 230.105 58.8123V71.9982H226.603V59.7556C226.603 56.3623 224.044 53.7434 220.654 53.7434C217.04 53.7434 214.206 56.306 214.206 59.8119V71.9982H210.648ZM256.678 62.6491H238.613C239.112 66.4366 242.228 69.1611 246.229 69.1611C248.894 69.1611 250.954 68.1614 252.395 66.155L255.785 67.211C253.837 70.4917 250.391 72.4981 246.222 72.4981C242.994 72.4981 240.329 71.4421 238.163 69.323C236.054 67.211 234.992 64.5921 234.992 61.4241C234.992 58.2561 236.047 55.6372 238.107 53.5745C240.167 51.4625 242.776 50.4065 245.891 50.4065C249.006 50.4065 251.559 51.4625 253.619 53.5745C255.672 55.6372 256.734 58.2491 256.734 61.4241C256.734 61.9803 256.734 62.3675 256.678 62.6491ZM238.613 59.8119H253.12C252.452 56.2497 249.449 53.6871 245.835 53.6871C242.22 53.6871 239.274 56.2497 238.606 59.8119H238.613ZM264.961 60.0302V71.9912H261.403V50.8429H264.961V54.3489C266.571 51.73 269.075 50.3994 272.351 50.3994H272.963V54.2926C272.464 54.1236 271.965 54.018 271.409 54.018C267.795 54.018 264.961 56.6298 264.961 60.0302Z" fill="#222222"/>
<path d="M151.645 1.14062L83.6064 87.9371" stroke="#222222" stroke-width="2.31"/>
<path d="M12.1372 36.3548L0.766928 30.1877C0.661453 30.1314 0.577072 30.0469 0.520819 29.9484C0.464565 29.8498 0.429407 29.7301 0.436438 29.6175C0.436438 29.4978 0.471597 29.3851 0.534882 29.2866C0.598167 29.188 0.682548 29.1106 0.788023 29.0543L12.1723 23.3589" stroke="#222222" stroke-width="1.24" stroke-linecap="round" stroke-linejoin="round"/>
<path d="M299.247 63.8318H289.691M281.556 59.9386L287.279 57.0733C287.371 57.024 287.469 57.0029 287.575 57.0029C287.68 57.0029 287.779 57.0311 287.87 57.0804L299.24 63.2474C299.346 63.3037 299.43 63.3882 299.486 63.4868C299.543 63.5854 299.578 63.705 299.571 63.8177C299.571 63.9374 299.536 64.05 299.472 64.1486C299.409 64.2471 299.325 64.3246 299.219 64.3809L287.835 70.0763C287.751 70.1185 287.666 70.1396 287.575 70.1467C287.483 70.1467 287.392 70.1326 287.308 70.0974L281.598 67.7178C281.478 67.6686 281.38 67.5911 281.31 67.4855C281.239 67.3799 281.204 67.2602 281.204 67.1335V60.5159C281.204 60.3962 281.239 60.2836 281.303 60.178C281.366 60.0794 281.45 59.9949 281.556 59.9457V59.9386Z" stroke="#222222" stroke-width="1.24" stroke-linecap="round" stroke-linejoin="round"/>
<path d="M274.833 65.5709V62.0157C274.833 61.7552 274.876 61.4947 274.967 61.2483C275.065 61.009 275.206 60.7837 275.389 60.6006C275.572 60.4176 275.79 60.2627 276.029 60.1642C276.268 60.0656 276.528 60.0093 276.788 60.0093C277.048 60.0093 277.309 60.0586 277.548 60.1642C277.787 60.2627 278.005 60.4176 278.188 60.6006C278.37 60.7837 278.511 61.009 278.609 61.2483C278.708 61.4947 278.75 61.7482 278.743 62.0157V65.5709C278.736 66.0848 278.518 66.5706 278.152 66.9296C277.787 67.2887 277.294 67.4858 276.781 67.4858C276.268 67.4858 275.776 67.2887 275.41 66.9296C275.044 66.5706 274.833 66.0848 274.819 65.5709H274.833Z" fill="#222222" stroke="#222222" stroke-width="1.24" stroke-linecap="round" stroke-linejoin="round"/>
<path d="M286.506 63.8319C286.506 64.0431 286.541 64.2543 286.618 64.4515C286.696 64.6486 286.815 64.8246 286.963 64.9795C287.111 65.1273 287.286 65.247 287.483 65.3315C287.68 65.4159 287.884 65.4582 288.102 65.4582C288.32 65.4582 288.524 65.4159 288.721 65.3315C288.918 65.247 289.094 65.1273 289.241 64.9795C289.389 64.8316 289.508 64.6486 289.586 64.4515C289.663 64.2543 289.705 64.0431 289.698 63.8319C289.691 63.4166 289.522 63.0153 289.22 62.7266C288.925 62.431 288.524 62.269 288.102 62.269C287.68 62.269 287.286 62.431 286.984 62.7266C286.689 63.0223 286.513 63.4166 286.506 63.8319Z" stroke="#222222" stroke-width="1.24" stroke-linecap="round" stroke-linejoin="round"/>
</g>
<defs>
<clipPath id="clip0_653_4745">
<rect width="300" height="89" fill="white"/>
</clipPath>
</defs>
</svg>
