<svg viewBox="0 0 60 60" fill="none" xmlns="http://www.w3.org/2000/svg">
<rect width="60" height="60" rx="10" fill="url(#paint0_linear_726_7664)"/>
<rect x="6.5" y="6.5" width="47" height="47" rx="7.5" stroke="white"/>
<path d="M32.4674 26.948L27.3149 27.5938L27.1304 28.4488L28.1429 28.6355C28.8044 28.793 28.9349 29.0315 28.7909 29.6908L27.1304 37.4937C26.6939 39.512 27.3666 40.4615 28.9484 40.4615C30.1746 40.4615 31.5989 39.8945 32.2446 39.116L32.4426 38.18C31.9926 38.576 31.3356 38.7335 30.8991 38.7335C30.2804 38.7335 30.0554 38.2993 30.2151 37.5343L32.4674 26.948ZM32.6249 22.25C32.6249 22.8467 32.3878 23.419 31.9659 23.841C31.5439 24.2629 30.9716 24.5 30.3749 24.5C29.7782 24.5 29.2059 24.2629 28.7839 23.841C28.3619 23.419 28.1249 22.8467 28.1249 22.25C28.1249 21.6533 28.3619 21.081 28.7839 20.659C29.2059 20.2371 29.7782 20 30.3749 20C30.9716 20 31.5439 20.2371 31.9659 20.659C32.3878 21.081 32.6249 21.6533 32.6249 22.25Z" fill="white"/>
<defs>
<linearGradient id="paint0_linear_726_7664" x1="30" y1="60" x2="30" y2="0" gradientUnits="userSpaceOnUse">
<stop stop-color="#1E1E1E"/>
<stop offset="1" stop-color="#434343"/>
</linearGradient>
</defs>
</svg>
