<svg viewBox="0 0 60 60" fill="none" xmlns="http://www.w3.org/2000/svg">
<rect width="60" height="60" rx="10" fill="url(#paint0_linear_726_7646)"/>
<rect x="6.5" y="6.5" width="47" height="47" rx="7.5" stroke="white"/>
<path d="M16.4415 38.007C16.2472 37.662 16.125 37.206 16.125 36.7155V21.96M43.875 21.9315V36.7163C43.875 37.1948 43.764 37.6343 43.5697 37.9793M24.9713 30.1365L27.4553 32.4353C27.5888 32.5573 27.722 32.663 27.855 32.7525C29.205 33.7545 30.7777 33.7545 32.1225 32.7465C32.25 32.658 32.3842 32.5463 32.5065 32.4353L35.007 30.1253" stroke="white" stroke-linecap="round" stroke-linejoin="round"/>
<path d="M43.5697 37.9792C43.3357 38.4082 42.9749 38.6865 42.5744 38.6865H17.4254C17.0362 38.6865 16.6807 38.4247 16.4414 38.007" stroke="white" stroke-linecap="round" stroke-linejoin="round"/>
<path d="M43.875 21.9315L35.0062 30.1253L32.5057 32.4353C32.3835 32.547 32.2507 32.658 32.1232 32.7473C30.7777 33.7545 29.2058 33.7545 27.8558 32.7525C27.7143 32.6573 27.5804 32.5512 27.4553 32.4353L24.9713 30.1365L16.125 21.9593L16.203 21.8483C16.4355 21.5138 16.7527 21.3135 17.0977 21.3135H42.9248C43.2525 21.3135 43.5697 21.5085 43.797 21.8205C43.8255 21.8545 43.8515 21.8915 43.875 21.9315Z" stroke="white" stroke-linecap="round" stroke-linejoin="round"/>
<defs>
<linearGradient id="paint0_linear_726_7646" x1="30" y1="60" x2="30" y2="0" gradientUnits="userSpaceOnUse">
<stop stop-color="#1E1E1E"/>
<stop offset="1" stop-color="#434343"/>
</linearGradient>
</defs>
</svg>
