<svg viewBox="0 0 60 60" fill="none" xmlns="http://www.w3.org/2000/svg">
<rect width="60" height="60" rx="10" fill="url(#paint0_linear_739_7929)"/>
<rect x="6.5" y="6.5" width="47" height="47" rx="7.5" stroke="white"/>
<path d="M36.9631 33.6397C36.722 34.0626 36.3734 34.4142 35.9525 34.6587C35.5316 34.9033 35.0535 35.0321 34.5667 35.0321C33.8351 35.0321 33.1335 34.7414 32.6162 34.2241C32.0989 33.7068 31.8083 33.0052 31.8083 32.2737V30.4815C31.8083 29.7499 32.0989 29.0483 32.6162 28.531C33.1335 28.0137 33.8351 27.7231 34.5667 27.7231C35.2982 27.7231 35.9998 28.0137 36.5171 28.531C37.0344 29.0483 37.3251 29.7499 37.3251 30.4815V31.3776H31.8083M26.5506 29.516C26.9166 29.5101 27.28 29.577 27.6199 29.7129C27.9597 29.8489 28.2691 30.0511 28.53 30.3078C28.7909 30.5645 28.9981 30.8705 29.1396 31.2081C29.281 31.5457 29.3538 31.908 29.3538 32.274C29.3538 32.6401 29.281 33.0024 29.1396 33.34C28.9981 33.6776 28.7909 33.9836 28.53 34.2403C28.2691 34.497 27.9597 34.6992 27.6199 34.8351C27.28 34.9711 26.9166 35.038 26.5506 35.0321H22V24.0007H26.5506C26.9181 23.9923 27.2835 24.0574 27.6255 24.1921C27.9675 24.3269 28.2791 24.5287 28.5419 24.7856C28.8048 25.0425 29.0137 25.3494 29.1563 25.6882C29.299 26.0269 29.3724 26.3908 29.3724 26.7584C29.3724 27.126 29.299 27.4898 29.1563 27.8286C29.0137 28.1674 28.8048 28.4742 28.5419 28.7311C28.2791 28.9881 27.9675 29.1898 27.6255 29.3246C27.2835 29.4594 26.9181 29.5245 26.5506 29.516ZM26.5506 29.516H22M31.8083 24H37.3243" stroke="white" stroke-linecap="round" stroke-linejoin="round"/>
<defs>
<linearGradient id="paint0_linear_739_7929" x1="30" y1="60" x2="30" y2="0" gradientUnits="userSpaceOnUse">
<stop stop-color="#1E1E1E"/>
<stop offset="1" stop-color="#434343"/>
</linearGradient>
</defs>
</svg>
