<svg viewBox="0 0 60 60" fill="none" xmlns="http://www.w3.org/2000/svg">
<rect width="60" height="60" rx="10" fill="url(#paint0_linear_739_7938)"/>
<rect x="6.5" y="6.5" width="47" height="47" rx="7.5" stroke="white"/>
<path d="M30.5 21C28.2446 20.9988 26.0624 21.8211 24.3442 23.3195C22.626 24.818 21.484 26.8948 21.1226 29.1781C20.7613 31.4614 21.2043 33.802 22.3723 35.7809C23.5402 37.7597 25.3569 39.2476 27.4969 39.978C27.9739 40.0686 28.1461 39.7697 28.1461 39.5251V37.8719C25.4963 38.4607 24.9487 36.5674 24.9487 36.5674C24.7734 35.9684 24.3921 35.4549 23.8755 35.1225C23.0143 34.5201 23.9418 34.5292 23.9418 34.5292C24.2426 34.5724 24.5298 34.6854 24.7816 34.8596C25.0334 35.0339 25.2431 35.2648 25.3947 35.5347C26.2427 37.0249 27.6029 36.5946 28.1593 36.3455C28.2029 35.8506 28.4175 35.3879 28.7644 35.041C26.6534 34.7964 24.4364 33.963 24.4364 30.2308C24.4228 29.2627 24.774 28.3265 25.4168 27.6174C25.1246 26.7779 25.1578 25.8553 25.5095 25.0402C25.5095 25.0402 26.3045 24.7775 28.1196 26.0366C29.6752 25.6018 31.3159 25.6018 32.8716 26.0366C34.6867 24.7775 35.4816 25.0402 35.4816 25.0402C35.8307 25.856 35.8638 26.7774 35.5744 27.6174C36.2163 28.3267 36.566 29.2632 36.5504 30.2308C36.5504 33.9721 34.3422 34.7919 32.2179 35.0365C32.4459 35.2733 32.6214 35.5577 32.7327 35.8703C32.8439 36.183 32.8883 36.5165 32.8627 36.8482V39.5205C32.8627 39.8421 33.035 40.0822 33.5163 39.9735C35.6542 39.2402 37.4679 37.7508 38.6331 35.7717C39.7984 33.7926 40.239 31.4528 39.8762 29.171C39.5135 26.8892 38.371 24.8142 36.6532 23.3172C34.9353 21.8202 32.7542 20.9988 30.5 21Z" stroke="white" stroke-width="0.8" stroke-linecap="round" stroke-linejoin="round"/>
<defs>
<linearGradient id="paint0_linear_739_7938" x1="30" y1="60" x2="30" y2="0" gradientUnits="userSpaceOnUse">
<stop stop-color="#1E1E1E"/>
<stop offset="1" stop-color="#434343"/>
</linearGradient>
</defs>
</svg>
