<svg viewBox="0 0 60 60" fill="none" xmlns="http://www.w3.org/2000/svg">
<rect width="60" height="60" rx="10" fill="url(#paint0_linear_656_5307)"/>
<rect x="6.5" y="6.5" width="47" height="47" rx="7.5" stroke="white"/>
<path d="M22.084 31C23.9791 31 25.3208 31.4341 26.3691 32.041C27.4297 32.655 28.2128 33.4566 28.9941 34.2539L28.998 34.2578C29.939 35.1988 30.8915 36.1857 32.2539 36.5264L32.2549 36.5273C33.4046 36.8126 34.5066 36.742 35.5391 36.2998C35.9392 36.1284 36.3229 35.902 36.6924 35.626C36.206 36.6306 35.585 37.4272 34.834 38.0283C33.625 38.9959 32.0295 39.5 30 39.5C28.1049 39.5 26.7632 39.0659 25.7148 38.459C24.6543 37.845 23.8712 37.0434 23.0898 36.2461L23.0859 36.2422C22.145 35.3012 21.1924 34.3143 19.8301 33.9736L19.8291 33.9727L19.6143 33.9238C18.542 33.6981 17.513 33.7856 16.5449 34.2002C16.1447 34.3716 15.7602 34.5969 15.3906 34.873C15.8769 33.8687 16.4991 33.0727 17.25 32.4717C18.459 31.5041 20.0545 31 22.084 31ZM30 21.5C31.8954 21.5 33.2377 21.934 34.2861 22.541C35.3467 23.155 36.1298 23.9566 36.9111 24.7539L36.9141 24.7578C37.8552 25.6989 38.8083 26.6857 40.1709 27.0264L40.1719 27.0273C41.3215 27.3125 42.4237 27.2419 43.4561 26.7998C43.8564 26.6283 44.2398 26.4012 44.6094 26.125C44.1229 27.1301 43.5013 27.927 42.75 28.5283C41.5411 29.4957 39.9464 30 37.917 30C36.0216 30 34.6793 29.566 33.6309 28.959C32.5706 28.3451 31.788 27.5433 31.0068 26.7461L31.0059 26.7451C30.0749 25.7987 29.1092 24.8144 27.7471 24.4736L27.7461 24.4727L27.5303 24.4238C26.4583 24.1983 25.4297 24.2858 24.4619 24.7002C24.0614 24.8717 23.6765 25.0976 23.3066 25.374C23.7931 24.3691 24.4158 23.5729 25.167 22.9717C26.3759 22.0042 27.9707 21.5001 30 21.5Z" fill="white" stroke="white"/>
<defs>
<linearGradient id="paint0_linear_656_5307" x1="30" y1="60" x2="30" y2="0" gradientUnits="userSpaceOnUse">
<stop stop-color="#1E1E1E"/>
<stop offset="1" stop-color="#434343"/>
</linearGradient>
</defs>
</svg>
