<svg viewBox="0 0 60 60" fill="none" xmlns="http://www.w3.org/2000/svg">
<rect width="60" height="60" rx="10" fill="url(#paint0_linear_656_5304)"/>
<rect x="6.5" y="6.5" width="47" height="47" rx="7.5" stroke="white"/>
<path d="M28.9707 38.0991L29.0186 38.2417L29.4707 39.6001L29.1768 40.4839L20.5244 37.6001L20.7588 36.8999H22.499V35.9419L28.9707 38.0991ZM37.499 36.8999H39.2383L39.4717 37.6001L30.8203 40.4839L30.5254 39.5991L30.9785 38.2417L31.0254 38.0991L37.499 35.9419V36.8999ZM19.7051 36.8999L19.5762 37.2837L19.2988 37.1909V36.8999H19.7051ZM40.6992 36.8999V37.1909L40.4209 37.2837L40.293 36.8999H40.6992ZM40.6992 27.3003V35.8999H39.959L39.4092 34.2505L38.9355 34.4087L38.499 34.5542V28.8999H40.0986V27.3003H40.6992ZM38.9053 35.8999H38.499V35.6079L38.7764 35.5151L38.9053 35.8999ZM21.499 35.6089V35.8999H21.0928L21.2197 35.5151L21.499 35.6089ZM21.499 32.1001V34.5542L20.5879 34.2505L20.0381 35.8999H19.2988V32.1001H21.499ZM39.0986 27.3003V27.8999H38.499V27.3003H39.0986ZM37.499 25.6997V27.8999H25.6992V25.6997H37.499ZM40.6992 17.6997V26.3003H40.0986V24.6997H38.499V19.3003H40.0986V17.6997H40.6992ZM39.0986 25.6997V26.3003H38.499V25.6997H39.0986ZM39.0986 17.6997V18.3003H38.499V17.6997H39.0986ZM39.0986 16.1001V16.6997H37.499V18.3003H19.2988V16.1001H39.0986ZM40.6992 16.1001V16.6997H40.0986V16.1001H40.6992Z" fill="white" stroke="white"/>
<defs>
<linearGradient id="paint0_linear_656_5304" x1="30" y1="60" x2="30" y2="0" gradientUnits="userSpaceOnUse">
<stop stop-color="#1E1E1E"/>
<stop offset="1" stop-color="#434343"/>
</linearGradient>
</defs>
</svg>
