<svg viewBox="0 0 60 60" fill="none" xmlns="http://www.w3.org/2000/svg">
<rect width="60" height="60" rx="10" fill="url(#paint0_linear_656_5355)"/>
<path d="M14 6.25H46C50.2802 6.25 53.75 9.71979 53.75 14V46C53.75 50.2802 50.2802 53.75 46 53.75H14C9.71979 53.75 6.25 50.2802 6.25 46V14C6.25 9.71979 9.71979 6.25 14 6.25ZM15.0908 6.92676C10.5345 6.92681 6.84084 10.6205 6.84082 15.1768V45.0537C6.84082 49.61 10.5345 53.3037 15.0908 53.3037H44.9092C49.4655 53.3037 53.1592 49.61 53.1592 45.0537V15.1768C53.1592 10.6205 49.4655 6.9268 44.9092 6.92676H15.0908ZM39.0078 22.8389C41.099 22.839 42.4897 23.7366 43.3672 24.9922C44.2527 26.2592 44.624 27.9057 44.624 29.3926C44.624 30.3753 44.553 31.1587 44.4678 31.5029L44.4668 31.5068C44.4594 31.5384 44.4526 31.5543 44.4492 31.5615C44.4413 31.5645 44.4262 31.569 44.4004 31.5742C44.0272 31.6418 42.8635 31.707 41.1094 31.707H35.9072C36.039 31.707 36.1466 31.813 36.1484 31.9443L35.9072 31.9453L35.6484 31.9482V31.9512C35.6684 33.3742 36.0058 34.6011 36.7637 35.4746C37.5274 36.3548 38.6843 36.8379 40.2568 36.8379C41.4264 36.8379 42.4458 36.6827 43.499 36.2236V38.6641C43.4989 38.7191 43.4735 38.776 43.3857 38.8457C43.2935 38.9189 43.1632 38.9806 43.0176 39.04C42.0828 39.4216 40.9412 39.5996 39.5312 39.5996C36.962 39.5996 35.225 38.6336 34.1221 37.1465C33.0107 35.6478 32.5225 33.5917 32.5225 31.3877C32.5225 29.0061 33.1228 26.8614 34.2314 25.3193C35.3352 23.7842 36.9464 22.8389 39.0078 22.8389ZM24.7686 17.2119L24.7754 17.2393L31.127 39.2764H27.9229C27.8966 39.2764 27.8785 39.2739 27.8672 39.2715V39.2695L26.9375 35.7959C26.4842 34.1015 24.9492 32.9231 23.1953 32.9229H19.5791C19.4574 32.9229 19.3554 33.0068 19.3281 33.1201C19.3278 33.1214 19.3275 33.1227 19.3271 33.124L17.7432 39.2412L17.7412 39.249L17.7393 39.2578C17.7373 39.2681 17.7331 39.2757 17.7314 39.2822C17.7211 39.2833 17.7072 39.2861 17.6885 39.2861H14.8018C14.8021 39.283 14.8023 39.2797 14.8027 39.2764L20.4756 18.9199L20.4775 18.915C20.5761 18.5299 20.6453 18.2185 20.6777 17.2119H24.7686ZM22.75 19.957C22.6404 19.957 22.5378 20.0245 22.498 20.1309L22.4854 20.1787C22.1567 22.0072 21.4492 24.8114 20.7627 27.458C20.4163 28.7936 21.4223 30.0976 22.8027 30.0977C24.1727 30.0977 25.176 28.8129 24.8301 27.4844C24.2734 25.3472 23.576 22.6909 23.1689 20.8877L23.0137 20.1719L22.999 20.124C22.9689 20.0495 22.9084 19.996 22.8379 19.9717L22.75 19.957ZM38.8682 25.3174C38.4423 25.3174 38.0601 25.397 37.7207 25.5439C37.1686 25.7831 36.8489 26.1596 36.7715 26.6162C36.6966 27.0581 36.8589 27.5168 37.1377 27.9141C37.6939 28.7064 38.7973 29.376 39.9619 29.376C40.506 29.376 40.8664 29.3761 41.0996 29.3711C41.4359 29.3639 41.7275 29.0981 41.7275 28.7412C41.7275 28.1499 41.5893 27.3085 41.167 26.6055C40.7364 25.889 40.0085 25.3174 38.8682 25.3174Z" fill="white" stroke="white" stroke-width="0.5"/>
<defs>
<linearGradient id="paint0_linear_656_5355" x1="30" y1="60" x2="30" y2="0" gradientUnits="userSpaceOnUse">
<stop stop-color="#1E1E1E"/>
<stop offset="1" stop-color="#434343"/>
</linearGradient>
</defs>
</svg>
