<svg viewBox="0 0 60 60" fill="none" xmlns="http://www.w3.org/2000/svg">
<rect width="60" height="60" rx="10" fill="url(#paint0_linear_726_7656)"/>
<rect x="6.5" y="6.5" width="47" height="47" rx="7.5" stroke="white"/>
<path d="M43.9852 36.4688C44.0226 36.5326 44.047 36.6032 44.0571 36.6766C44.0672 36.7499 44.0627 36.8245 44.0439 36.8961C44.0251 36.9677 43.9923 37.0349 43.9475 37.0938C43.9027 37.1527 43.8466 37.2022 43.7827 37.2394L30.2827 45.1144C30.1971 45.1637 30.1001 45.1897 30.0014 45.1897C29.9027 45.1897 29.8057 45.1637 29.7202 45.1144L16.2202 37.2394C16.0977 37.1615 16.0101 37.0394 15.9756 36.8985C15.9411 36.7576 15.9623 36.6088 16.0349 36.4832C16.1075 36.3576 16.2259 36.2649 16.3652 36.2244C16.5045 36.184 16.6541 36.199 16.7827 36.2663L30.0014 43.9767L43.2202 36.2663C43.3486 36.1924 43.5011 36.1723 43.6443 36.2102C43.7875 36.2481 43.91 36.341 43.9852 36.4688ZM43.2187 29.5134L30 37.2239L16.7812 29.5134C16.6527 29.4462 16.5031 29.4312 16.3638 29.4716C16.2245 29.5121 16.1061 29.6048 16.0335 29.7304C15.9609 29.856 15.9397 30.0048 15.9742 30.1457C16.0087 30.2866 16.0963 30.4087 16.2188 30.4866L29.7187 38.3616C29.8043 38.4109 29.9013 38.4369 30 38.4369C30.0987 38.4369 30.1957 38.4109 30.2812 38.3616L43.7812 30.4866C43.9037 30.4087 43.9913 30.2866 44.0258 30.1457C44.0603 30.0048 44.0391 29.856 43.9665 29.7304C43.8939 29.6048 43.7755 29.5121 43.6362 29.4716C43.4969 29.4312 43.3473 29.4462 43.2187 29.5134ZM15.9375 23.25C15.9376 23.1514 15.9636 23.0545 16.013 22.9691C16.0624 22.8837 16.1333 22.8128 16.2188 22.7634L29.7187 14.8884C29.8043 14.8391 29.9013 14.8131 30 14.8131C30.0987 14.8131 30.1957 14.8391 30.2812 14.8884L43.7812 22.7634C43.8665 22.8129 43.9372 22.8839 43.9864 22.9693C44.0356 23.0546 44.0615 23.1515 44.0615 23.25C44.0615 23.3485 44.0356 23.4454 43.9864 23.5308C43.9372 23.6161 43.8665 23.6871 43.7812 23.7366L30.2812 31.6116C30.1957 31.6609 30.0987 31.6869 30 31.6869C29.9013 31.6869 29.8043 31.6609 29.7187 31.6116L16.2188 23.7366C16.1333 23.6872 16.0624 23.6163 16.013 23.5309C15.9636 23.4455 15.9376 23.3486 15.9375 23.25ZM17.6166 23.25L30 30.4739L42.3834 23.25L30 16.0261L17.6166 23.25Z" fill="white"/>
<defs>
<linearGradient id="paint0_linear_726_7656" x1="30" y1="60" x2="30" y2="0" gradientUnits="userSpaceOnUse">
<stop stop-color="#1E1E1E"/>
<stop offset="1" stop-color="#434343"/>
</linearGradient>
</defs>
</svg>
