<svg viewBox="0 0 60 60" fill="none" xmlns="http://www.w3.org/2000/svg">
<rect width="60" height="60" rx="10" fill="url(#paint0_linear_726_7637)"/>
<rect x="6.5" y="6.5" width="47" height="47" rx="7.5" stroke="white"/>
<path d="M18.1055 23.205V26.6025H21.503V23.205H18.1055ZM23.2055 23.205V26.6025H26.603V23.205H23.2055ZM28.298 23.205V26.6025H31.703V23.205H28.298ZM33.398 23.205V26.6025H36.7955V23.205H33.398ZM38.498 23.205V26.6025H41.8955V23.205H38.498ZM18.1055 28.2975V31.7025H21.503V28.2975H18.1055ZM23.2055 28.2975V31.7025H26.603V28.2975H23.2055ZM28.298 28.2975V31.7025H31.703V28.2975H28.298ZM33.398 28.2975V31.7025H36.7955V28.2975H33.398ZM38.498 28.2975V31.7025H41.8955V28.2975H38.498ZM18.1055 33.3975V36.795H21.503V33.3975H18.1055ZM23.2055 33.3975V36.795H36.7955V33.3975H23.2055ZM38.498 33.3975V36.795H41.8955V33.3975H38.498Z" stroke="white" stroke-width="0.5" stroke-linecap="round" stroke-linejoin="round"/>
<path d="M44.625 38.625V21.375C44.625 20.9772 44.467 20.5956 44.1857 20.3143C43.9044 20.033 43.5228 19.875 43.125 19.875H16.875C16.4772 19.875 16.0956 20.033 15.8143 20.3143C15.533 20.5956 15.375 20.9772 15.375 21.375V38.625C15.375 39.0228 15.533 39.4044 15.8143 39.6857C16.0956 39.967 16.4772 40.125 16.875 40.125H43.125C43.5228 40.125 43.9044 39.967 44.1857 39.6857C44.467 39.4044 44.625 39.0228 44.625 38.625Z" stroke="white" stroke-linecap="round" stroke-linejoin="round"/>
<defs>
<linearGradient id="paint0_linear_726_7637" x1="30" y1="60" x2="30" y2="0" gradientUnits="userSpaceOnUse">
<stop stop-color="#1E1E1E"/>
<stop offset="1" stop-color="#434343"/>
</linearGradient>
</defs>
</svg>
