<svg viewBox="0 0 60 60" fill="none" xmlns="http://www.w3.org/2000/svg">
<rect width="60" height="60" rx="10" fill="url(#paint0_linear_726_7714)"/>
<rect x="6.5" y="6.5" width="47" height="47" rx="7.5" stroke="white"/>
<path d="M32.8293 44.1057L26.7963 44.1057ZM26.7963 39.2795L26.7963 37.9212C26.7942 36.8759 26.5568 35.8445 26.1019 34.9033C25.647 33.9622 24.9861 33.1355 24.1683 32.4845C23.1016 31.6323 22.2413 30.55 21.6516 29.3185C21.062 28.0871 20.7583 26.7383 20.7633 25.373C20.7716 20.3907 24.8126 16.3557 29.7941 16.3557C34.8101 16.3557 38.8623 20.3885 38.8623 25.385C38.8623 28.2537 37.5371 30.8067 35.4648 32.4672C33.8088 33.7932 32.8301 35.7875 32.8301 37.9085L32.8301 39.2795L26.7963 39.2795Z" fill="#8781C3"/>
<path d="M32.8293 44.1057L26.7963 44.1057M26.7963 39.2795L26.7963 37.9212C26.7942 36.8759 26.5568 35.8445 26.1019 34.9033C25.647 33.9622 24.9861 33.1355 24.1683 32.4845C23.1016 31.6323 22.2413 30.55 21.6516 29.3185C21.062 28.0871 20.7583 26.7383 20.7633 25.373C20.7716 20.3907 24.8126 16.3557 29.7941 16.3557C34.8101 16.3557 38.8623 20.3885 38.8623 25.385C38.8623 28.2537 37.5371 30.8067 35.4648 32.4672C33.8088 33.7932 32.8301 35.7875 32.8301 37.9085L32.8301 39.2795L26.7963 39.2795Z" stroke="#8781C3" stroke-width="0.75" stroke-linecap="round" stroke-linejoin="round"/>
<defs>
<linearGradient id="paint0_linear_726_7714" x1="30" y1="60" x2="30" y2="0" gradientUnits="userSpaceOnUse">
<stop stop-color="#1E1E1E"/>
<stop offset="1" stop-color="#434343"/>
</linearGradient>
</defs>
</svg>
