<svg width="103" height="64" viewBox="0 0 103 64" fill="none" xmlns="http://www.w3.org/2000/svg">
<path d="M11.0956 28.8121C12.3649 28.8121 13.7369 28.6348 15.2116 28.2801C16.6862 27.9441 18.1982 27.4774 19.7476 26.8801C21.3156 26.3014 22.8836 25.6108 24.4516 24.8081C26.0382 24.0054 27.5689 23.1468 29.0436 22.2321C30.5182 21.3174 31.9182 20.3654 33.2436 19.3761C34.5876 18.3868 35.7822 17.4161 36.8276 16.4641C36.9022 16.3894 36.9676 16.3521 37.0236 16.3521C37.1729 16.3521 37.3129 16.4174 37.4436 16.5481C37.5929 16.6601 37.6676 16.7908 37.6676 16.9401C37.6676 16.9961 37.6489 17.0428 37.6116 17.0801C36.6596 18.0881 35.5396 19.1148 34.2516 20.1601C32.9822 21.2054 31.6102 22.2134 30.1356 23.1841C28.6609 24.1548 27.1302 25.0694 25.5436 25.9281C23.9569 26.7868 22.3702 27.5334 20.7836 28.1681C19.2156 28.8028 17.6849 29.2974 16.1916 29.6521C14.6982 30.0254 13.3076 30.2121 12.0196 30.2121C9.2009 30.2121 7.0729 29.4934 5.63557 28.0561C4.19824 26.6374 3.47957 24.5094 3.47957 21.6721C3.47957 19.8988 3.81557 18.1348 4.48757 16.3801C5.15957 14.6068 6.07424 12.9174 7.23157 11.3121C8.3889 9.70677 9.7329 8.21343 11.2636 6.8321C12.7942 5.45077 14.4182 4.2561 16.1356 3.2481C17.8529 2.2401 19.6169 1.44677 21.4276 0.868101C23.2382 0.289434 24.9836 0.000100374 26.6636 0.000100374C27.1489 0.000100374 27.6342 0.0281006 28.1196 0.084101C28.6049 0.121434 29.0716 0.214767 29.5196 0.364101C29.9302 0.513434 30.3222 0.709434 30.6956 0.9521C31.0689 1.1761 31.3956 1.44677 31.6756 1.7641C31.9556 2.08143 32.1796 2.4361 32.3476 2.8281C32.5156 3.2201 32.5996 3.64943 32.5996 4.1161C32.5996 4.93743 32.4409 5.7121 32.1236 6.4401C31.8062 7.1681 31.3956 7.84943 30.8916 8.4841C30.3876 9.1001 29.8182 9.66943 29.1836 10.1921C28.5489 10.7148 27.9142 11.1908 27.2796 11.6201C27.1676 11.6948 27.0276 11.7881 26.8596 11.9001C26.6916 11.9934 26.5329 12.0401 26.3836 12.0401C26.1782 12.0401 25.9542 11.9468 25.7116 11.7601C25.4876 11.5548 25.3756 11.3308 25.3756 11.0881C25.3756 10.9948 25.4036 10.9108 25.4596 10.8361C25.7022 10.4814 25.9262 10.1361 26.1316 9.8001C26.3369 9.44543 26.5422 9.08143 26.7476 8.7081C26.8596 8.57743 26.9996 8.5121 27.1676 8.5121C27.3169 8.5121 27.4662 8.5681 27.6156 8.6801C27.7836 8.77343 27.9142 8.88543 28.0076 9.0161C28.3996 8.6801 28.7822 8.30677 29.1556 7.8961C29.5289 7.48543 29.8556 7.0561 30.1356 6.6081C30.4342 6.14143 30.6769 5.6561 30.8636 5.1521C31.0502 4.62943 31.1436 4.10677 31.1436 3.5841C31.1436 3.09877 31.0222 2.7161 30.7796 2.4361C30.5556 2.13743 30.2662 1.91343 29.9116 1.7641C29.5569 1.61477 29.1742 1.5121 28.7636 1.4561C28.3529 1.4001 27.9609 1.3721 27.5876 1.3721C25.9076 1.3721 24.1809 1.66143 22.4076 2.2401C20.6342 2.81877 18.9076 3.6121 17.2276 4.6201C15.5476 5.60943 13.9609 6.78543 12.4676 8.1481C10.9929 9.4921 9.69557 10.9481 8.57557 12.5161C7.45557 14.0841 6.5689 15.7174 5.91557 17.4161C5.26224 19.1148 4.93557 20.8041 4.93557 22.4841C4.93557 24.5748 5.4209 26.1521 6.39157 27.2161C7.3809 28.2801 8.9489 28.8121 11.0956 28.8121ZM36.539 23.4921C36.7817 23.4921 37.1364 23.3801 37.603 23.1561C38.0697 22.9321 38.6484 22.5494 39.339 22.0081C40.0297 21.4668 40.8417 20.7481 41.775 19.8521C42.7084 18.9561 43.7537 17.8268 44.911 16.4641C44.9857 16.3894 45.051 16.3521 45.107 16.3521C45.2564 16.3521 45.3964 16.4174 45.527 16.5481C45.6764 16.6601 45.751 16.7908 45.751 16.9401C45.751 16.9588 45.7324 17.0054 45.695 17.0801C44.8364 18.2001 43.987 19.2361 43.147 20.1881C42.307 21.1401 41.5044 21.9521 40.739 22.6241C39.9737 23.3148 39.2457 23.8468 38.555 24.2201C37.8644 24.6121 37.2204 24.8081 36.623 24.8081C36.4924 24.8081 36.3337 24.7614 36.147 24.6681C35.9604 24.5934 35.7737 24.4534 35.587 24.2481C35.419 24.0614 35.2697 23.8188 35.139 23.5201C35.0084 23.2214 34.943 22.8574 34.943 22.4281C34.943 22.0548 34.9804 21.6441 35.055 21.1961C35.1297 20.7294 35.223 20.2628 35.335 19.7961C35.4657 19.3108 35.6057 18.8441 35.755 18.3961C35.9044 17.9294 36.0444 17.5188 36.175 17.1641C36.3617 16.6414 36.5857 16.0068 36.847 15.2601C37.127 14.4948 37.4257 13.6828 37.743 12.8241C38.079 11.9468 38.4244 11.0508 38.779 10.1361C39.1524 9.22143 39.5257 8.36277 39.899 7.5601C40.2724 6.73877 40.6364 6.00143 40.991 5.3481C41.3644 4.6761 41.719 4.15343 42.055 3.7801C42.335 3.46277 42.6337 3.18277 42.951 2.9401C43.287 2.67877 43.6977 2.5481 44.183 2.5481C44.6684 2.5481 45.079 2.73477 45.415 3.1081C45.751 3.46277 45.919 3.88277 45.919 4.3681C45.919 4.94677 45.695 5.7401 45.247 6.7481C44.799 7.7561 44.2017 8.85743 43.455 10.0521C42.727 11.2281 41.8777 12.4414 40.907 13.6921C39.955 14.9428 38.9657 16.1094 37.939 17.1921C37.8084 17.5841 37.6497 18.0414 37.463 18.5641C37.2764 19.0681 37.1084 19.6001 36.959 20.1601C36.8097 20.7201 36.679 21.2708 36.567 21.8121C36.455 22.3348 36.399 22.8014 36.399 23.2121C36.399 23.3988 36.4457 23.4921 36.539 23.4921ZM39.031 14.3081C39.703 13.4121 40.375 12.4788 41.047 11.5081C41.719 10.5188 42.3164 9.55743 42.839 8.6241C43.3804 7.69077 43.819 6.82277 44.155 6.0201C44.491 5.19877 44.659 4.51743 44.659 3.9761C44.659 3.84543 44.6124 3.7801 44.519 3.7801C44.239 3.7801 43.931 3.9761 43.595 4.3681C43.2777 4.7601 42.9417 5.2641 42.587 5.8801C42.2324 6.4961 41.8777 7.1961 41.523 7.9801C41.187 8.74543 40.8604 9.5201 40.543 10.3041C40.2257 11.0881 39.9364 11.8348 39.675 12.5441C39.4137 13.2348 39.199 13.8228 39.031 14.3081ZM45.8062 13.0481C45.8062 12.9174 45.8808 12.8054 46.0302 12.7121C46.3848 12.5441 46.6648 12.3854 46.8702 12.2361C47.0942 12.0868 47.2808 11.9561 47.4302 11.8441C47.5795 11.7321 47.7008 11.6481 47.7942 11.5921C47.8875 11.5174 47.9808 11.4801 48.0742 11.4801C48.2795 11.4801 48.4942 11.5828 48.7182 11.7881C48.9608 11.9748 49.0822 12.1894 49.0822 12.4321C49.0822 12.5628 48.9795 12.7121 48.7742 12.8801C48.5688 13.0481 48.3262 13.2068 48.0462 13.3561C47.7848 13.4868 47.5235 13.5988 47.2622 13.6921C47.0008 13.7854 46.8048 13.8321 46.6742 13.8321C46.4875 13.8321 46.2915 13.7574 46.0862 13.6081C45.8995 13.4401 45.8062 13.2534 45.8062 13.0481ZM43.3982 20.7481C43.3982 20.2814 43.4542 19.8241 43.5662 19.3761C43.6968 18.9281 43.8462 18.4894 44.0142 18.0601C44.1635 17.7054 44.3035 17.3601 44.4342 17.0241C44.5835 16.6881 44.7235 16.3428 44.8542 15.9881C44.9288 15.8201 44.9848 15.6521 45.0222 15.4841C45.0782 15.2974 45.1342 15.1294 45.1902 14.9801C45.2648 14.7748 45.4142 14.6721 45.6382 14.6721C45.8435 14.6721 46.0582 14.7748 46.2822 14.9801C46.5248 15.1668 46.6462 15.3814 46.6462 15.6241C46.6462 15.7361 46.6182 15.8574 46.5622 15.9881C46.5248 16.1188 46.4875 16.2308 46.4502 16.3241C46.3195 16.6788 46.1608 17.0708 45.9742 17.5001C45.7875 17.9108 45.6102 18.3401 45.4422 18.7881C45.2928 19.2174 45.1622 19.6561 45.0502 20.1041C44.9382 20.5334 44.8822 20.9348 44.8822 21.3081C44.8822 21.4388 44.9195 21.5041 44.9942 21.5041C45.5168 21.5228 46.1048 21.3361 46.7582 20.9441C47.4302 20.5521 48.0928 20.0854 48.7462 19.5441C49.4182 19.0028 50.0435 18.4428 50.6222 17.8641C51.2008 17.2854 51.6582 16.8094 51.9942 16.4361C52.0502 16.3801 52.1155 16.3521 52.1902 16.3521C52.3395 16.3521 52.4795 16.4174 52.6102 16.5481C52.7595 16.6601 52.8342 16.7908 52.8342 16.9401C52.8342 16.9774 52.8155 17.0334 52.7782 17.1081C52.4235 17.5934 51.9662 18.1721 51.4062 18.8441C50.8462 19.4974 50.2395 20.1321 49.5862 20.7481C48.9328 21.3454 48.2608 21.8494 47.5702 22.2601C46.8795 22.6894 46.2075 22.9041 45.5542 22.9041C44.9568 22.9041 44.4435 22.6894 44.0142 22.2601C43.6035 21.8494 43.3982 21.3454 43.3982 20.7481ZM52.6056 21.5601C53.3709 21.5601 54.1362 21.3921 54.9016 21.0561C55.6856 20.7201 56.4416 20.3001 57.1696 19.7961C57.9162 19.2921 58.6256 18.7414 59.2976 18.1441C59.9882 17.5281 60.6229 16.9588 61.2016 16.4361C61.2576 16.3801 61.3136 16.3521 61.3696 16.3521C61.5189 16.3521 61.6589 16.4174 61.7896 16.5481C61.9389 16.6601 62.0136 16.7908 62.0136 16.9401C62.0136 16.9961 61.9856 17.0521 61.9296 17.1081C61.4256 17.6681 60.8376 18.2841 60.1656 18.9561C59.4936 19.6281 58.7656 20.2534 57.9816 20.8321C57.2162 21.4108 56.4229 21.8868 55.6016 22.2601C54.7802 22.6521 53.9682 22.8481 53.1656 22.8481C52.3256 22.8481 51.6349 22.6054 51.0936 22.1201C50.5709 21.6161 50.3096 20.9348 50.3096 20.0761C50.3096 19.4228 50.4589 18.7788 50.7576 18.1441C51.0749 17.5094 51.4856 16.9401 51.9896 16.4361C52.4936 15.9321 53.0629 15.5308 53.6976 15.2321C54.3509 14.9148 55.0042 14.7561 55.6576 14.7561C55.8816 14.7561 56.1056 14.7934 56.3296 14.8681C56.5536 14.9428 56.7589 15.0548 56.9456 15.2041C57.1509 15.3348 57.3096 15.4934 57.4216 15.6801C57.5522 15.8668 57.6176 16.0814 57.6176 16.3241C57.6176 16.3988 57.6082 16.5201 57.5896 16.6881C57.5709 16.8374 57.5336 16.9868 57.4776 17.1361C57.4402 17.2854 57.3749 17.4161 57.2816 17.5281C57.2069 17.6401 57.1136 17.6961 57.0016 17.6961C56.8522 17.6961 56.6936 17.6308 56.5256 17.5001C56.3762 17.3508 56.3016 17.1921 56.3016 17.0241C56.3016 16.8561 56.3296 16.6974 56.3856 16.5481C56.4416 16.3988 56.4696 16.2401 56.4696 16.0721C56.4696 15.9788 56.4042 15.9321 56.2736 15.9321C55.7509 15.9321 55.2189 16.0908 54.6776 16.4081C54.1549 16.7068 53.6789 17.0988 53.2496 17.5841C52.8389 18.0508 52.4936 18.5734 52.2136 19.1521C51.9522 19.7121 51.8216 20.2441 51.8216 20.7481C51.8216 21.0841 51.8682 21.3081 51.9616 21.4201C52.0549 21.5134 52.2696 21.5601 52.6056 21.5601ZM63.0583 19.6281C63.3757 20.0761 63.721 20.5148 64.0943 20.9441C64.4863 21.3734 64.8877 21.7561 65.2983 22.0921C65.7277 22.4281 66.157 22.6988 66.5863 22.9041C67.0343 23.1281 67.4823 23.2401 67.9303 23.2401C68.1543 23.2401 68.3223 23.1934 68.4343 23.1001C68.5463 23.0254 68.649 22.9881 68.7423 22.9881C68.817 22.9881 68.8823 23.0068 68.9383 23.0441C69.013 23.0814 69.0503 23.1468 69.0503 23.2401C69.0503 23.3894 68.985 23.5201 68.8543 23.6321C68.7423 23.7441 68.5837 23.8374 68.3783 23.9121C68.1917 24.0054 67.977 24.0708 67.7343 24.1081C67.5103 24.1641 67.2863 24.1921 67.0623 24.1921C66.5583 24.1921 66.073 24.0988 65.6063 23.9121C65.1397 23.7254 64.6917 23.4734 64.2623 23.1561C63.8517 22.8574 63.4597 22.5214 63.0863 22.1481C62.713 21.7748 62.3677 21.3921 62.0503 21.0001C61.5837 21.6908 61.173 22.3814 60.8183 23.0721C60.4637 23.7814 60.1277 24.5188 59.8103 25.2841C59.7543 25.4334 59.6797 25.5828 59.5863 25.7321C59.5117 25.8814 59.3903 25.9561 59.2223 25.9561C58.9983 25.9561 58.7743 25.8534 58.5503 25.6481C58.3263 25.4614 58.2143 25.2561 58.2143 25.0321C58.2143 24.9761 58.2237 24.9201 58.2423 24.8641C58.9143 22.6614 59.6423 20.4961 60.4263 18.3681C61.2103 16.2401 62.0037 14.1028 62.8063 11.9561C62.8063 11.9374 62.769 11.8908 62.6943 11.8161C62.6197 11.7414 62.5823 11.6388 62.5823 11.5081C62.5823 11.4334 62.601 11.3588 62.6383 11.2841C63.2357 9.90277 63.8143 8.49343 64.3743 7.0561C64.953 5.61877 65.4757 4.1441 65.9423 2.6321C65.9983 2.48277 66.1383 2.4081 66.3623 2.4081C66.5863 2.4081 66.8103 2.51077 67.0343 2.7161C67.2583 2.92143 67.3703 3.1361 67.3703 3.3601C67.3703 3.5281 67.3237 3.79877 67.2303 4.1721C67.137 4.52677 67.025 4.91877 66.8943 5.3481C66.7637 5.75877 66.633 6.1601 66.5023 6.5521C66.3717 6.92543 66.269 7.20543 66.1943 7.3921L61.9943 18.8161C62.5357 18.1441 63.1143 17.5094 63.7303 16.9121C64.3463 16.2961 65.009 15.7174 65.7183 15.1761C65.8303 15.0828 65.9983 14.9614 66.2223 14.8121C66.4463 14.6628 66.6237 14.5881 66.7543 14.5881C66.997 14.5881 67.1837 14.7094 67.3143 14.9521C67.4637 15.1761 67.5103 15.4001 67.4543 15.6241C67.4357 15.7734 67.3517 15.9041 67.2023 16.0161C66.3997 16.5574 65.6623 17.0988 64.9903 17.6401C64.3183 18.1814 63.6743 18.8441 63.0583 19.6281ZM78.7066 21.7001C79.1359 22.0921 79.4159 22.5868 79.5466 23.1841C79.6959 23.7814 79.7706 24.3601 79.7706 24.9201C79.7706 25.3308 79.7239 25.8068 79.6306 26.3481C79.5373 26.8894 79.4066 27.4494 79.2386 28.0281C79.0706 28.6068 78.8559 29.1761 78.5946 29.7361C78.3519 30.3148 78.0719 30.8281 77.7546 31.2761C77.4559 31.7241 77.1199 32.0881 76.7466 32.3681C76.3733 32.6481 75.9813 32.7881 75.5706 32.7881C75.2906 32.7881 75.0293 32.7134 74.7866 32.5641C74.5253 32.4334 74.3013 32.2374 74.1146 31.9761C73.9093 31.7334 73.7506 31.4441 73.6386 31.1081C73.5266 30.7721 73.4706 30.3988 73.4706 29.9881C73.4706 28.5508 74.1986 25.8534 75.6546 21.8961L78.2586 14.7841C78.1466 14.6348 78.0906 14.4948 78.0906 14.3641C78.0906 14.3081 78.1093 14.2428 78.1466 14.1681C78.6879 12.9361 79.1919 11.6948 79.6586 10.4441C80.1253 9.19343 80.5733 7.9241 81.0026 6.6361C81.0399 6.50543 81.0773 6.37477 81.1146 6.2441C81.1706 6.09477 81.2266 5.95477 81.2826 5.8241C81.3573 5.6561 81.4879 5.5721 81.6746 5.5721C81.8986 5.5721 82.1226 5.67477 82.3466 5.8801C82.5706 6.06677 82.6826 6.2721 82.6826 6.4961C82.6826 6.64543 82.6546 6.81343 82.5986 7.0001C82.5426 7.18677 82.4959 7.35477 82.4586 7.5041C81.7866 9.70677 81.0586 11.8908 80.2746 14.0561C79.5093 16.2028 78.7066 18.3494 77.8666 20.4961C78.1839 20.4588 78.6133 20.3094 79.1546 20.0481C79.6959 19.7681 80.2653 19.4321 80.8626 19.0401C81.4599 18.6481 82.0479 18.2188 82.6266 17.7521C83.2053 17.2854 83.6906 16.8468 84.0826 16.4361C84.1386 16.3801 84.1946 16.3521 84.2506 16.3521C84.3999 16.3521 84.5399 16.4081 84.6706 16.5201C84.8199 16.6321 84.8946 16.7628 84.8946 16.9121C84.8946 16.9494 84.8759 17.0054 84.8386 17.0801C84.5586 17.4534 84.1853 17.8828 83.7186 18.3681C83.2519 18.8534 82.7386 19.3201 82.1786 19.7681C81.6186 20.2161 81.0306 20.6268 80.4146 21.0001C79.8173 21.3548 79.2479 21.5881 78.7066 21.7001ZM77.3066 21.9801C77.0453 22.6894 76.7746 23.4454 76.4946 24.2481C76.2146 25.0508 75.9626 25.8348 75.7386 26.6001C75.4959 27.3841 75.2999 28.1214 75.1506 28.8121C75.0013 29.5028 74.9266 30.0814 74.9266 30.5481C74.9266 30.7534 74.9453 30.9401 74.9826 31.1081C75.0013 31.2948 75.0573 31.3881 75.1506 31.3881C75.4306 31.4068 75.7013 31.2854 75.9626 31.0241C76.2239 30.7814 76.4666 30.4548 76.6906 30.0441C76.9333 29.6521 77.1479 29.1948 77.3346 28.6721C77.5399 28.1681 77.7079 27.6548 77.8386 27.1321C77.9879 26.6094 78.0999 26.1054 78.1746 25.6201C78.2679 25.1348 78.3146 24.7148 78.3146 24.3601C78.3146 23.8748 78.2679 23.4081 78.1746 22.9601C78.0813 22.5121 77.7919 22.1854 77.3066 21.9801ZM82.389 20.3281C82.389 19.6561 82.5197 19.0121 82.781 18.3961C83.061 17.7614 83.4157 17.1921 83.845 16.6881C83.8264 16.5948 83.817 16.5014 83.817 16.4081C83.817 16.2961 83.817 16.1841 83.817 16.0721C83.817 15.5308 84.0317 15.1014 84.461 14.7841C84.8904 14.4668 85.357 14.3081 85.861 14.3081C86.309 14.3081 86.7104 14.3921 87.065 14.5601C87.4197 14.7281 87.7184 14.9614 87.961 15.2601C88.2224 15.5588 88.4184 15.9041 88.549 16.2961C88.6984 16.6694 88.773 17.0708 88.773 17.5001C88.773 17.6681 88.7637 17.8454 88.745 18.0321C88.7264 18.2001 88.6984 18.3681 88.661 18.5361C89.3517 18.3868 89.977 18.1161 90.537 17.7241C91.097 17.3321 91.6477 16.8934 92.189 16.4081C92.245 16.3521 92.301 16.3241 92.357 16.3241C92.5064 16.3241 92.6464 16.3894 92.777 16.5201C92.9264 16.6321 93.001 16.7628 93.001 16.9121C93.001 16.9308 92.973 16.9868 92.917 17.0801C92.3197 17.7521 91.629 18.3214 90.845 18.7881C90.0797 19.2548 89.2397 19.5441 88.325 19.6561C88.157 20.0854 87.9424 20.4961 87.681 20.8881C87.4384 21.2801 87.1584 21.6254 86.841 21.9241C86.5237 22.2041 86.1784 22.4281 85.805 22.5961C85.4317 22.7828 85.0397 22.8761 84.629 22.8761C84.293 22.8761 83.985 22.8014 83.705 22.6521C83.4437 22.5028 83.2104 22.3161 83.005 22.0921C82.8184 21.8494 82.669 21.5788 82.557 21.2801C82.445 20.9628 82.389 20.6454 82.389 20.3281ZM85.217 17.4721C85.3477 17.8828 85.5624 18.1721 85.861 18.3401C86.1784 18.5081 86.533 18.6108 86.925 18.6481C87.1864 18.0694 87.317 17.5001 87.317 16.9401C87.317 16.6228 87.2704 16.3241 87.177 16.0441C87.0837 15.7454 86.8317 15.5961 86.421 15.5961C86.197 15.5961 85.973 15.6521 85.749 15.7641C85.5437 15.8574 85.3757 15.9974 85.245 16.1841C85.5064 16.3708 85.637 16.5948 85.637 16.8561C85.637 16.9681 85.5997 17.0614 85.525 17.1361C85.469 17.2108 85.3664 17.3228 85.217 17.4721ZM84.573 18.3401C84.3304 18.7134 84.1344 19.1054 83.985 19.5161C83.8544 19.9081 83.789 20.3468 83.789 20.8321C83.789 21.0374 83.8077 21.2054 83.845 21.3361C83.901 21.4668 83.9664 21.5321 84.041 21.5321C84.265 21.5321 84.4984 21.4574 84.741 21.3081C84.9837 21.1588 85.217 20.9908 85.441 20.8041C85.665 20.5988 85.861 20.3841 86.029 20.1601C86.2157 19.9174 86.365 19.7121 86.477 19.5441C85.6744 19.3574 85.0397 18.9561 84.573 18.3401ZM97.4548 20.0201C96.7455 20.0201 96.2228 19.7868 95.8868 19.3201C95.5508 18.8348 95.3828 18.2654 95.3828 17.6121C95.3828 17.4628 95.3921 17.3508 95.4108 17.2761C94.7201 18.1161 94.0668 18.9934 93.4508 19.9081C92.8348 20.8228 92.2561 21.7188 91.7148 22.5961C91.6401 22.6894 91.5748 22.7548 91.5188 22.7921C91.4628 22.8481 91.3788 22.8761 91.2668 22.8761C91.0615 22.8761 90.8375 22.7734 90.5948 22.5681C90.3708 22.3814 90.2588 22.1668 90.2588 21.9241C90.2588 21.8121 90.2961 21.6161 90.3708 21.3361C90.4455 21.0374 90.5295 20.7294 90.6228 20.4121C90.7348 20.0948 90.8375 19.7868 90.9308 19.4881C91.0428 19.1894 91.1268 18.9748 91.1828 18.8441C91.2948 18.5081 91.4255 18.1441 91.5748 17.7521C91.7428 17.3414 91.8921 16.9494 92.0228 16.5761C92.1535 16.2028 92.2655 15.8761 92.3588 15.5961C92.4521 15.2974 92.4988 15.0921 92.4988 14.9801C92.4988 14.7748 92.6481 14.6721 92.9468 14.6721C93.1521 14.6721 93.3668 14.7748 93.5908 14.9801C93.8335 15.1668 93.9548 15.3814 93.9548 15.6241C93.9548 15.7548 93.9175 15.9414 93.8428 16.1841C93.7868 16.4081 93.7121 16.6508 93.6188 16.9121C93.5255 17.1734 93.4321 17.4254 93.3388 17.6681C93.2455 17.9108 93.1708 18.1068 93.1148 18.2561C93.1895 18.1254 93.3855 17.8641 93.7028 17.4721C94.0201 17.0614 94.3655 16.6414 94.7388 16.2121C95.1308 15.7828 95.5041 15.4001 95.8588 15.0641C96.2135 14.7281 96.4561 14.5601 96.5868 14.5601C96.8295 14.5601 97.0628 14.6721 97.2868 14.8961C97.5108 15.1014 97.6228 15.3161 97.6228 15.5401C97.6228 15.6148 97.5668 15.7548 97.4548 15.9601C97.3615 16.1654 97.2588 16.4081 97.1468 16.6881C97.0348 16.9494 96.9228 17.2388 96.8108 17.5561C96.7175 17.8548 96.6708 18.1534 96.6708 18.4521C96.6708 18.7694 96.7735 18.9281 96.9788 18.9281C97.3895 18.9281 97.8188 18.7974 98.2668 18.5361C98.7335 18.2561 99.1628 17.9574 99.5548 17.6401C99.9468 17.3041 100.283 17.0054 100.563 16.7441C100.843 16.4641 101.02 16.3241 101.095 16.3241C101.244 16.3241 101.384 16.3894 101.515 16.5201C101.664 16.6321 101.739 16.7628 101.739 16.9121C101.739 16.9681 101.711 17.0241 101.655 17.0801C101.431 17.3414 101.151 17.6494 100.815 18.0041C100.497 18.3401 100.152 18.6574 99.7788 18.9561C99.4055 19.2548 99.0135 19.5068 98.6028 19.7121C98.2108 19.9174 97.8281 20.0201 97.4548 20.0201ZM5.85191 50.9161C5.85191 50.5988 5.74925 50.3281 5.54391 50.1041C5.33858 49.8801 5.11458 49.6374 4.87191 49.3761C4.62925 49.1148 4.40525 48.8161 4.19991 48.4801C3.99458 48.1441 3.89191 47.7054 3.89191 47.1641C3.89191 46.7908 3.96658 46.4548 4.11591 46.1561C4.26525 45.8388 4.45191 45.5494 4.67591 45.2881C4.89991 45.0268 5.15191 44.7934 5.43191 44.5881C5.73058 44.3641 6.01991 44.1588 6.29991 43.9721C6.61725 43.7854 6.84125 43.6921 6.97191 43.6921C7.08391 43.6921 7.19591 43.7294 7.30791 43.8041C7.41991 43.8788 7.52258 43.9721 7.61591 44.0841C7.72791 44.1961 7.81191 44.3174 7.86791 44.4481C7.94258 44.5788 7.97991 44.7001 7.97991 44.8121C7.97991 44.8868 7.83991 44.9988 7.55991 45.1481C7.29858 45.2974 6.99991 45.4934 6.66391 45.7361C6.32791 45.9601 6.01991 46.2401 5.73991 46.5761C5.47858 46.9121 5.34791 47.3134 5.34791 47.7801C5.34791 48.0974 5.45058 48.3774 5.65591 48.6201C5.86125 48.8441 6.08525 49.0868 6.32791 49.3481C6.57058 49.5908 6.79458 49.8801 6.99991 50.2161C7.20525 50.5521 7.30791 50.9908 7.30791 51.5321C7.30791 52.2788 7.09325 52.9134 6.66391 53.4361C6.25325 53.9588 5.73058 54.3788 5.09591 54.6961C4.47991 55.0134 3.80791 55.2468 3.07991 55.3961C2.37058 55.5454 1.72658 55.6201 1.14791 55.6201C1.03591 55.6201 0.914581 55.6108 0.783914 55.5921C0.653247 55.5921 0.531914 55.5734 0.419914 55.5361C0.307914 55.4988 0.214581 55.4428 0.139914 55.3681C0.0465807 55.2934 -8.60393e-05 55.1814 -8.60393e-05 55.0321C-8.60393e-05 54.8641 0.083914 54.7801 0.251914 54.7801C0.382581 54.7801 0.615914 54.7428 0.951914 54.6681C1.26925 54.5934 1.64258 54.4814 2.07191 54.3321C2.48258 54.2014 2.90258 54.0241 3.33191 53.8001C3.77991 53.5948 4.19058 53.3428 4.56391 53.0441C4.93725 52.7641 5.24525 52.4468 5.48791 52.0921C5.73058 51.7374 5.85191 51.3454 5.85191 50.9161ZM9.40857 50.3281C9.40857 49.6561 9.53924 49.0121 9.80057 48.3961C10.0806 47.7614 10.4352 47.1921 10.8646 46.6881C10.8459 46.5948 10.8366 46.5014 10.8366 46.4081C10.8366 46.2961 10.8366 46.1841 10.8366 46.0721C10.8366 45.5308 11.0512 45.1014 11.4806 44.7841C11.9099 44.4668 12.3766 44.3081 12.8806 44.3081C13.3286 44.3081 13.7299 44.3921 14.0846 44.5601C14.4392 44.7281 14.7379 44.9614 14.9806 45.2601C15.2419 45.5588 15.4379 45.9041 15.5686 46.2961C15.7179 46.6694 15.7926 47.0708 15.7926 47.5001C15.7926 47.6681 15.7832 47.8454 15.7646 48.0321C15.7459 48.2001 15.7179 48.3681 15.6806 48.5361C16.3712 48.3868 16.9966 48.1161 17.5566 47.7241C18.1166 47.3321 18.6672 46.8934 19.2086 46.4081C19.2646 46.3521 19.3206 46.3241 19.3766 46.3241C19.5259 46.3241 19.6659 46.3894 19.7966 46.5201C19.9459 46.6321 20.0206 46.7628 20.0206 46.9121C20.0206 46.9308 19.9926 46.9868 19.9366 47.0801C19.3392 47.7521 18.6486 48.3214 17.8646 48.7881C17.0992 49.2548 16.2592 49.5441 15.3446 49.6561C15.1766 50.0854 14.9619 50.4961 14.7006 50.8881C14.4579 51.2801 14.1779 51.6254 13.8606 51.9241C13.5432 52.2041 13.1979 52.4281 12.8246 52.5961C12.4512 52.7828 12.0592 52.8761 11.6486 52.8761C11.3126 52.8761 11.0046 52.8014 10.7246 52.6521C10.4632 52.5028 10.2299 52.3161 10.0246 52.0921C9.8379 51.8494 9.68857 51.5788 9.57657 51.2801C9.46457 50.9628 9.40857 50.6454 9.40857 50.3281ZM12.2366 47.4721C12.3672 47.8828 12.5819 48.1721 12.8806 48.3401C13.1979 48.5081 13.5526 48.6108 13.9446 48.6481C14.2059 48.0694 14.3366 47.5001 14.3366 46.9401C14.3366 46.6228 14.2899 46.3241 14.1966 46.0441C14.1032 45.7454 13.8512 45.5961 13.4406 45.5961C13.2166 45.5961 12.9926 45.6521 12.7686 45.7641C12.5632 45.8574 12.3952 45.9974 12.2646 46.1841C12.5259 46.3708 12.6566 46.5948 12.6566 46.8561C12.6566 46.9681 12.6192 47.0614 12.5446 47.1361C12.4886 47.2108 12.3859 47.3228 12.2366 47.4721ZM11.5926 48.3401C11.3499 48.7134 11.1539 49.1054 11.0046 49.5161C10.8739 49.9081 10.8086 50.3468 10.8086 50.8321C10.8086 51.0374 10.8272 51.2054 10.8646 51.3361C10.9206 51.4668 10.9859 51.5321 11.0606 51.5321C11.2846 51.5321 11.5179 51.4574 11.7606 51.3081C12.0032 51.1588 12.2366 50.9908 12.4606 50.8041C12.6846 50.5988 12.8806 50.3841 13.0486 50.1601C13.2352 49.9174 13.3846 49.7121 13.4966 49.5441C12.6939 49.3574 12.0592 48.9561 11.5926 48.3401ZM28.0023 50.9161C28.2077 50.9161 28.525 50.7668 28.9543 50.4681C29.4023 50.1508 29.8877 49.7681 30.4103 49.3201C30.9517 48.8721 31.5023 48.3961 32.0623 47.8921C32.6223 47.3694 33.1263 46.8934 33.5743 46.4641C33.6303 46.4081 33.6863 46.3801 33.7423 46.3801C33.8917 46.3801 34.0317 46.4454 34.1623 46.5761C34.3117 46.6881 34.3863 46.8188 34.3863 46.9681C34.3863 47.0241 34.3583 47.0801 34.3023 47.1361C34.1343 47.3228 33.9103 47.5841 33.6303 47.9201C33.3503 48.2561 33.0237 48.6201 32.6503 49.0121C32.2957 49.3854 31.913 49.7774 31.5023 50.1881C31.1103 50.5988 30.709 50.9721 30.2983 51.3081C29.8877 51.6254 29.4863 51.8868 29.0943 52.0921C28.7023 52.2974 28.3383 52.4001 28.0023 52.4001C27.909 52.4001 27.7783 52.3628 27.6103 52.2881C27.461 52.2321 27.3117 52.1481 27.1623 52.0361C27.013 51.9054 26.8823 51.7468 26.7703 51.5601C26.677 51.3548 26.6303 51.1214 26.6303 50.8601C26.6303 50.6921 26.6677 50.4681 26.7423 50.1881C26.8357 49.8894 26.9383 49.5814 27.0503 49.2641C27.1623 48.9281 27.2743 48.6108 27.3863 48.3121C27.4983 48.0134 27.5823 47.7801 27.6383 47.6121C27.5637 47.6121 27.3957 47.7054 27.1343 47.8921C26.873 48.0788 26.565 48.3121 26.2103 48.5921C25.8557 48.8721 25.4823 49.1801 25.0903 49.5161C24.6983 49.8521 24.325 50.1601 23.9703 50.4401C23.6343 50.7201 23.3357 50.9534 23.0743 51.1401C22.8317 51.3268 22.673 51.4201 22.5983 51.4201C22.393 51.4201 22.1877 51.3268 21.9823 51.1401C21.7957 50.9534 21.7023 50.7574 21.7023 50.5521C21.7023 50.4774 21.749 50.3001 21.8423 50.0201C21.9357 49.7214 22.0383 49.4041 22.1503 49.0681C22.2623 48.7321 22.365 48.4148 22.4583 48.1161C22.5703 47.8174 22.645 47.6121 22.6823 47.5001C21.9357 48.2654 21.2357 49.0401 20.5823 49.8241C19.9477 50.5894 19.341 51.3268 18.7623 52.0361C18.669 52.1294 18.529 52.1761 18.3423 52.1761C18.1183 52.1761 17.885 52.0734 17.6423 51.8681C17.3997 51.6628 17.2783 51.4388 17.2783 51.1961C17.2783 51.0654 17.325 50.8414 17.4183 50.5241C17.5303 50.1881 17.661 49.8054 17.8103 49.3761C17.9597 48.9468 18.1183 48.4988 18.2863 48.0321C18.473 47.5468 18.641 47.0988 18.7903 46.6881C18.9397 46.2774 19.061 45.9228 19.1543 45.6241C19.2663 45.3254 19.3223 45.1388 19.3223 45.0641C19.3223 44.9334 19.369 44.8401 19.4623 44.7841C19.5557 44.7094 19.677 44.6721 19.8263 44.6721C20.0317 44.6721 20.2463 44.7748 20.4703 44.9801C20.713 45.1668 20.8343 45.3814 20.8343 45.6241C20.8343 45.7548 20.7877 45.9694 20.6943 46.2681C20.601 46.5668 20.489 46.8841 20.3583 47.2201C20.2463 47.5561 20.1157 47.8921 19.9663 48.2281C19.8357 48.5641 19.7143 48.8441 19.6023 49.0681C19.789 48.7694 20.1063 48.3774 20.5543 47.8921C21.0023 47.3881 21.469 46.9028 21.9543 46.4361C22.4397 45.9694 22.8877 45.5681 23.2983 45.2321C23.7277 44.8774 23.9983 44.7001 24.1103 44.7001C24.3157 44.7001 24.521 44.8028 24.7263 45.0081C24.9503 45.1948 25.0623 45.3908 25.0623 45.5961C25.0623 45.6148 24.997 45.7828 24.8663 46.1001C24.7543 46.3988 24.6237 46.7348 24.4743 47.1081C24.325 47.4628 24.185 47.8081 24.0543 48.1441C23.9237 48.4801 23.8397 48.6948 23.8023 48.7881C23.989 48.6388 24.2877 48.4148 24.6983 48.1161C25.1277 47.8174 25.5757 47.5094 26.0423 47.1921C26.5277 46.8748 26.985 46.6041 27.4143 46.3801C27.8623 46.1374 28.1983 46.0161 28.4223 46.0161C28.4783 46.0161 28.553 46.0441 28.6463 46.1001C28.7397 46.1561 28.833 46.2308 28.9263 46.3241C29.0197 46.4174 29.1037 46.5294 29.1783 46.6601C29.253 46.7721 29.2903 46.9028 29.2903 47.0521C29.2903 47.1454 29.253 47.3041 29.1783 47.5281C29.1037 47.7521 29.0103 48.0134 28.8983 48.3121C28.805 48.5921 28.693 48.8908 28.5623 49.2081C28.4503 49.5068 28.3477 49.7868 28.2543 50.0481C28.161 50.2908 28.0863 50.4961 28.0303 50.6641C27.9743 50.8321 27.965 50.9161 28.0023 50.9161ZM34.4898 50.9721C35.2551 50.9721 35.9925 50.8601 36.7018 50.6361C37.4111 50.3934 38.1205 50.0668 38.8298 49.6561C39.5391 49.2454 40.2485 48.7694 40.9578 48.2281C41.6858 47.6681 42.4325 47.0708 43.1978 46.4361C43.2538 46.3801 43.3098 46.3521 43.3658 46.3521C43.5151 46.3521 43.6551 46.4174 43.7858 46.5481C43.9351 46.6601 44.0098 46.7908 44.0098 46.9401C44.0098 46.9961 43.9818 47.0521 43.9258 47.1081C43.4591 47.6868 42.8898 48.2934 42.2178 48.9281C41.5645 49.5441 40.8458 50.1134 40.0618 50.6361C39.2778 51.1401 38.4658 51.5601 37.6258 51.8961C36.8045 52.2134 35.9925 52.3721 35.1898 52.3721C34.3125 52.3721 33.6218 52.1294 33.1178 51.6441C32.6138 51.1588 32.3618 50.4774 32.3618 49.6001C32.3618 48.9841 32.4738 48.3494 32.6978 47.6961C32.9405 47.0428 33.2671 46.4548 33.6778 45.9321C34.0885 45.3908 34.5738 44.9521 35.1338 44.6161C35.7125 44.2801 36.3378 44.1121 37.0098 44.1121C37.4578 44.1121 37.8778 44.2708 38.2698 44.5881C38.6805 44.9054 38.8858 45.3068 38.8858 45.7921C38.8858 46.2401 38.7365 46.6788 38.4378 47.1081C38.1578 47.5374 37.8031 47.9201 37.3738 48.2561C36.9445 48.5921 36.4778 48.8628 35.9738 49.0681C35.4885 49.2548 35.0311 49.3481 34.6018 49.3481C34.5085 49.3481 34.4058 49.3481 34.2938 49.3481C34.1818 49.3481 34.0605 49.3294 33.9298 49.2921C33.8551 49.5908 33.8178 49.8988 33.8178 50.2161C33.8178 50.5334 33.8551 50.7388 33.9298 50.8321C34.0231 50.9254 34.2098 50.9721 34.4898 50.9721ZM34.3218 48.1721C34.7885 48.0974 35.2085 47.9574 35.5818 47.7521C35.9551 47.5468 36.2725 47.3134 36.5338 47.0521C36.8138 46.7721 37.0285 46.5014 37.1778 46.2401C37.3271 45.9601 37.4018 45.7268 37.4018 45.5401C37.4018 45.5028 37.3831 45.4841 37.3458 45.4841C36.7298 45.5028 36.1511 45.7828 35.6098 46.3241C35.0685 46.8468 34.6391 47.4628 34.3218 48.1721ZM58.9828 50.9161C59.1881 50.9161 59.5055 50.7668 59.9348 50.4681C60.3828 50.1508 60.8681 49.7681 61.3908 49.3201C61.9321 48.8721 62.4828 48.3961 63.0428 47.8921C63.6028 47.3694 64.1068 46.8934 64.5548 46.4641C64.6108 46.4081 64.6668 46.3801 64.7228 46.3801C64.8721 46.3801 65.0121 46.4454 65.1428 46.5761C65.2921 46.6881 65.3668 46.8188 65.3668 46.9681C65.3668 47.0241 65.3388 47.0801 65.2828 47.1361C65.1148 47.3228 64.8908 47.5841 64.6108 47.9201C64.3308 48.2561 64.0041 48.6201 63.6308 49.0121C63.2761 49.3854 62.8935 49.7774 62.4828 50.1881C62.0908 50.5988 61.6895 50.9721 61.2788 51.3081C60.8681 51.6254 60.4668 51.8868 60.0748 52.0921C59.6828 52.2974 59.3188 52.4001 58.9828 52.4001C58.8895 52.4001 58.7588 52.3628 58.5908 52.2881C58.4415 52.2321 58.2921 52.1481 58.1428 52.0361C57.9935 51.9054 57.8628 51.7468 57.7508 51.5601C57.6575 51.3548 57.6108 51.1214 57.6108 50.8601C57.6108 50.6921 57.6481 50.4681 57.7228 50.1881C57.8161 49.8894 57.9188 49.5814 58.0308 49.2641C58.1428 48.9281 58.2548 48.6108 58.3668 48.3121C58.4788 48.0134 58.5628 47.7801 58.6188 47.6121C58.5441 47.6121 58.3761 47.7054 58.1148 47.8921C57.8535 48.0788 57.5455 48.3121 57.1908 48.5921C56.8361 48.8721 56.4628 49.1801 56.0708 49.5161C55.6788 49.8521 55.3055 50.1601 54.9508 50.4401C54.6148 50.7201 54.3161 50.9534 54.0548 51.1401C53.8121 51.3268 53.6535 51.4201 53.5788 51.4201C53.3735 51.4201 53.1681 51.3268 52.9628 51.1401C52.7761 50.9534 52.6828 50.7574 52.6828 50.5521C52.6828 50.4774 52.7295 50.3001 52.8228 50.0201C52.9161 49.7214 53.0188 49.4041 53.1308 49.0681C53.2428 48.7321 53.3455 48.4148 53.4388 48.1161C53.5508 47.8174 53.6255 47.6121 53.6628 47.5001C52.9161 48.2654 52.2161 49.0401 51.5628 49.8241C50.9281 50.5894 50.3215 51.3268 49.7428 52.0361C49.6495 52.1294 49.5095 52.1761 49.3228 52.1761C49.0988 52.1761 48.8655 52.0734 48.6228 51.8681C48.3801 51.6628 48.2588 51.4388 48.2588 51.1961C48.2588 51.0654 48.3055 50.8414 48.3988 50.5241C48.5108 50.1881 48.6415 49.8054 48.7908 49.3761C48.9401 48.9468 49.0988 48.4988 49.2668 48.0321C49.4535 47.5468 49.6215 47.0988 49.7708 46.6881C49.9201 46.2774 50.0415 45.9228 50.1348 45.6241C50.2468 45.3254 50.3028 45.1388 50.3028 45.0641C50.3028 44.9334 50.3495 44.8401 50.4428 44.7841C50.5361 44.7094 50.6575 44.6721 50.8068 44.6721C51.0121 44.6721 51.2268 44.7748 51.4508 44.9801C51.6935 45.1668 51.8148 45.3814 51.8148 45.6241C51.8148 45.7548 51.7681 45.9694 51.6748 46.2681C51.5815 46.5668 51.4695 46.8841 51.3388 47.2201C51.2268 47.5561 51.0961 47.8921 50.9468 48.2281C50.8161 48.5641 50.6948 48.8441 50.5828 49.0681C50.7695 48.7694 51.0868 48.3774 51.5348 47.8921C51.9828 47.3881 52.4495 46.9028 52.9348 46.4361C53.4201 45.9694 53.8681 45.5681 54.2788 45.2321C54.7081 44.8774 54.9788 44.7001 55.0908 44.7001C55.2961 44.7001 55.5015 44.8028 55.7068 45.0081C55.9308 45.1948 56.0428 45.3908 56.0428 45.5961C56.0428 45.6148 55.9775 45.7828 55.8468 46.1001C55.7348 46.3988 55.6041 46.7348 55.4548 47.1081C55.3055 47.4628 55.1655 47.8081 55.0348 48.1441C54.9041 48.4801 54.8201 48.6948 54.7828 48.7881C54.9695 48.6388 55.2681 48.4148 55.6788 48.1161C56.1081 47.8174 56.5561 47.5094 57.0228 47.1921C57.5081 46.8748 57.9655 46.6041 58.3948 46.3801C58.8428 46.1374 59.1788 46.0161 59.4028 46.0161C59.4588 46.0161 59.5335 46.0441 59.6268 46.1001C59.7201 46.1561 59.8135 46.2308 59.9068 46.3241C60.0001 46.4174 60.0841 46.5294 60.1588 46.6601C60.2335 46.7721 60.2708 46.9028 60.2708 47.0521C60.2708 47.1454 60.2335 47.3041 60.1588 47.5281C60.0841 47.7521 59.9908 48.0134 59.8788 48.3121C59.7855 48.5921 59.6735 48.8908 59.5428 49.2081C59.4308 49.5068 59.3281 49.7868 59.2348 50.0481C59.1415 50.2908 59.0668 50.4961 59.0108 50.6641C58.9548 50.8321 58.9455 50.9161 58.9828 50.9161ZM67.705 44.7001C68.153 44.7001 68.573 44.7654 68.965 44.8961C69.357 45.0081 69.693 45.1574 69.973 45.3441C70.2717 45.5308 70.505 45.7454 70.673 45.9881C70.841 46.2121 70.925 46.4454 70.925 46.6881C70.925 46.9308 70.7943 47.0521 70.533 47.0521C70.309 47.0521 70.1503 46.9961 70.057 46.8841C69.9823 46.7721 69.889 46.6508 69.777 46.5201C69.665 46.3894 69.5063 46.2681 69.301 46.1561C69.1143 46.0441 68.8063 45.9881 68.377 45.9881C67.8543 45.9881 67.3317 46.1561 66.809 46.4921C66.305 46.8281 65.8477 47.2668 65.437 47.8081C65.045 48.3308 64.7277 48.9188 64.485 49.5721C64.2423 50.2254 64.121 50.8601 64.121 51.4761C64.3077 51.4761 64.597 51.3081 64.989 50.9721C65.381 50.6174 65.801 50.2068 66.249 49.7401C66.697 49.2734 67.1263 48.7974 67.537 48.3121C67.9663 47.8268 68.293 47.4348 68.517 47.1361C68.5917 47.0428 68.7037 46.9961 68.853 46.9961C68.965 46.9961 69.0863 47.0334 69.217 47.1081C69.3477 47.1641 69.4597 47.2481 69.553 47.3601C69.665 47.4534 69.749 47.5654 69.805 47.6961C69.861 47.8268 69.8703 47.9574 69.833 48.0881C69.665 48.5734 69.5063 49.0494 69.357 49.5161C69.2263 49.9641 69.161 50.4494 69.161 50.9721C69.161 51.1028 69.217 51.1681 69.329 51.1681C69.721 51.1681 70.2063 51.0001 70.785 50.6641C71.3637 50.3281 71.961 49.9174 72.577 49.4321C73.193 48.9468 73.7903 48.4334 74.369 47.8921C74.9477 47.3321 75.433 46.8468 75.825 46.4361C75.881 46.3801 75.937 46.3521 75.993 46.3521C76.1423 46.3521 76.2823 46.4081 76.413 46.5201C76.5623 46.6321 76.637 46.7628 76.637 46.9121C76.637 46.9494 76.6183 47.0054 76.581 47.0801C76.2823 47.4908 75.853 48.0041 75.293 48.6201C74.7517 49.2174 74.1543 49.8054 73.501 50.3841C72.8663 50.9441 72.213 51.4294 71.541 51.8401C70.8877 52.2321 70.2903 52.4281 69.749 52.4281C69.1703 52.4281 68.7223 52.2508 68.405 51.8961C68.0877 51.5228 67.8823 51.0654 67.789 50.5241C67.6023 50.7481 67.3877 51.0001 67.145 51.2801C66.9023 51.5414 66.641 51.7934 66.361 52.0361C66.081 52.2788 65.7917 52.4841 65.493 52.6521C65.1943 52.8201 64.8957 52.9041 64.597 52.9041C63.9623 52.9041 63.477 52.6708 63.141 52.2041C62.8237 51.7188 62.665 51.1868 62.665 50.6081C62.665 49.9921 62.805 49.3388 63.085 48.6481C63.365 47.9574 63.7383 47.3228 64.205 46.7441C64.6717 46.1468 65.2037 45.6614 65.801 45.2881C66.417 44.8961 67.0517 44.7001 67.705 44.7001ZM79.9559 49.1521C79.6572 49.5628 79.3399 49.9641 79.0039 50.3561C78.6679 50.7294 78.3225 51.0654 77.9679 51.3641C77.6319 51.6441 77.2959 51.8681 76.9599 52.0361C76.6239 52.2041 76.2972 52.2881 75.9799 52.2881C75.4012 52.2881 74.9532 52.0734 74.6359 51.6441C74.3185 51.2148 74.1599 50.7294 74.1599 50.1881C74.1599 49.6468 74.2999 49.0308 74.5799 48.3401C74.8599 47.6308 75.2239 46.9681 75.6719 46.3521C76.1385 45.7361 76.6705 45.2134 77.2679 44.7841C77.8652 44.3548 78.4719 44.1401 79.0879 44.1401C79.4612 44.1401 79.8159 44.2428 80.1519 44.4481C80.5065 44.6348 80.7959 44.8774 81.0199 45.1761C81.1506 44.8961 81.2626 44.6721 81.3559 44.5041C81.4679 44.3174 81.6079 44.2241 81.7759 44.2241C81.9812 44.2241 82.1959 44.3268 82.4199 44.5321C82.6625 44.7188 82.7839 44.9334 82.7839 45.1761C82.5972 46.0161 82.3172 47.0801 81.9439 48.3681C81.5892 49.6374 81.1506 51.0001 80.6279 52.4561C81.2252 52.4748 81.7945 52.5774 82.3359 52.7641C82.8772 52.9694 83.3346 53.3148 83.7079 53.8001C83.7452 53.8748 83.7919 53.9681 83.8479 54.0801C83.9225 54.1921 83.9599 54.2948 83.9599 54.3881C83.9599 54.5748 83.8572 54.6681 83.6519 54.6681C83.4466 54.6681 83.3066 54.6121 83.2319 54.5001C83.1572 54.3881 83.0545 54.2574 82.9239 54.1081C82.7932 53.9774 82.5972 53.8561 82.3359 53.7441C82.0932 53.6321 81.6919 53.5761 81.1319 53.5761C80.8332 53.5761 80.5159 53.6041 80.1799 53.6601C79.6945 54.9294 79.1625 56.1708 78.5839 57.3841C78.0052 58.5974 77.3985 59.6801 76.7639 60.6321C76.1292 61.5841 75.4665 62.3494 74.7759 62.9281C74.0852 63.5068 73.3852 63.7961 72.6759 63.7961C72.3585 63.7961 72.0599 63.7401 71.7799 63.6281C71.4812 63.5161 71.2199 63.3574 70.9959 63.1521C70.7719 62.9654 70.5945 62.7321 70.4639 62.4521C70.3332 62.1908 70.2679 61.8921 70.2679 61.5561C70.2679 60.5668 70.5199 59.5961 71.0239 58.6441C71.5279 57.6921 72.1905 56.8148 73.0119 56.0121C73.8145 55.2094 74.7199 54.5094 75.7279 53.9121C76.7545 53.3334 77.7719 52.9228 78.7799 52.6801C79.0225 52.0454 79.2372 51.4294 79.4239 50.8321C79.6292 50.2348 79.8065 49.6748 79.9559 49.1521ZM80.1799 46.6601C80.2359 46.4921 80.2639 46.3334 80.2639 46.1841C80.2639 45.9414 80.2265 45.7361 80.1519 45.5681C80.0959 45.4001 79.9185 45.3161 79.6199 45.3161C79.1532 45.3161 78.6772 45.5214 78.1919 45.9321C77.7065 46.3241 77.2772 46.8094 76.9039 47.3881C76.5305 47.9668 76.2225 48.5641 75.9799 49.1801C75.7372 49.7774 75.6159 50.2908 75.6159 50.7201C75.6159 50.8321 75.6625 50.8881 75.7559 50.8881C75.9985 50.8881 76.2972 50.7761 76.6519 50.5521C77.0065 50.3281 77.3892 50.0201 77.7999 49.6281C78.2105 49.2361 78.6212 48.7881 79.0319 48.2841C79.4425 47.7614 79.8252 47.2201 80.1799 46.6601ZM78.1639 54.2481C77.3425 54.6028 76.5399 55.0694 75.7559 55.6481C74.9905 56.2268 74.3092 56.8614 73.7119 57.5521C73.1145 58.2614 72.6385 59.0081 72.2839 59.7921C71.9105 60.5761 71.7239 61.3508 71.7239 62.1161C71.7239 62.3401 71.8452 62.4521 72.0879 62.4521C72.6292 62.4521 73.1705 62.2188 73.7119 61.7521C74.2532 61.2854 74.7852 60.6601 75.3079 59.8761C75.8305 59.1108 76.3345 58.2334 76.8199 57.2441C77.3052 56.2734 77.7532 55.2748 78.1639 54.2481ZM86.3569 43.0481C86.3569 42.9174 86.4316 42.8054 86.5809 42.7121C86.9356 42.5441 87.2156 42.3854 87.4209 42.2361C87.6449 42.0868 87.8316 41.9561 87.9809 41.8441C88.1303 41.7321 88.2516 41.6481 88.3449 41.5921C88.4383 41.5174 88.5316 41.4801 88.6249 41.4801C88.8303 41.4801 89.0449 41.5828 89.2689 41.7881C89.5116 41.9748 89.6329 42.1894 89.6329 42.4321C89.6329 42.5628 89.5303 42.7121 89.3249 42.8801C89.1196 43.0481 88.8769 43.2068 88.5969 43.3561C88.3356 43.4868 88.0743 43.5988 87.8129 43.6921C87.5516 43.7854 87.3556 43.8321 87.2249 43.8321C87.0383 43.8321 86.8423 43.7574 86.6369 43.6081C86.4503 43.4401 86.3569 43.2534 86.3569 43.0481ZM83.9489 50.7481C83.9489 50.2814 84.0049 49.8241 84.1169 49.3761C84.2476 48.9281 84.3969 48.4894 84.5649 48.0601C84.7143 47.7054 84.8543 47.3601 84.9849 47.0241C85.1343 46.6881 85.2743 46.3428 85.4049 45.9881C85.4796 45.8201 85.5356 45.6521 85.5729 45.4841C85.6289 45.2974 85.6849 45.1294 85.7409 44.9801C85.8156 44.7748 85.9649 44.6721 86.1889 44.6721C86.3943 44.6721 86.6089 44.7748 86.8329 44.9801C87.0756 45.1668 87.1969 45.3814 87.1969 45.6241C87.1969 45.7361 87.1689 45.8574 87.1129 45.9881C87.0756 46.1188 87.0383 46.2308 87.0009 46.3241C86.8703 46.6788 86.7116 47.0708 86.5249 47.5001C86.3383 47.9108 86.1609 48.3401 85.9929 48.7881C85.8436 49.2174 85.7129 49.6561 85.6009 50.1041C85.4889 50.5334 85.4329 50.9348 85.4329 51.3081C85.4329 51.4388 85.4703 51.5041 85.5449 51.5041C86.0676 51.5228 86.6556 51.3361 87.3089 50.9441C87.9809 50.5521 88.6436 50.0854 89.2969 49.5441C89.9689 49.0028 90.5943 48.4428 91.1729 47.8641C91.7516 47.2854 92.2089 46.8094 92.5449 46.4361C92.6009 46.3801 92.6663 46.3521 92.7409 46.3521C92.8903 46.3521 93.0303 46.4174 93.1609 46.5481C93.3103 46.6601 93.3849 46.7908 93.3849 46.9401C93.3849 46.9774 93.3663 47.0334 93.3289 47.1081C92.9743 47.5934 92.5169 48.1721 91.9569 48.8441C91.3969 49.4974 90.7903 50.1321 90.1369 50.7481C89.4836 51.3454 88.8116 51.8494 88.1209 52.2601C87.4303 52.6894 86.7583 52.9041 86.1049 52.9041C85.5076 52.9041 84.9943 52.6894 84.5649 52.2601C84.1543 51.8494 83.9489 51.3454 83.9489 50.7481ZM93.1564 51.5601C93.9217 51.5601 94.687 51.3921 95.4524 51.0561C96.2364 50.7201 96.9924 50.3001 97.7204 49.7961C98.467 49.2921 99.1764 48.7414 99.8484 48.1441C100.539 47.5281 101.174 46.9588 101.752 46.4361C101.808 46.3801 101.864 46.3521 101.92 46.3521C102.07 46.3521 102.21 46.4174 102.34 46.5481C102.49 46.6601 102.564 46.7908 102.564 46.9401C102.564 46.9961 102.536 47.0521 102.48 47.1081C101.976 47.6681 101.388 48.2841 100.716 48.9561C100.044 49.6281 99.3164 50.2534 98.5324 50.8321C97.767 51.4108 96.9737 51.8868 96.1524 52.2601C95.331 52.6521 94.519 52.8481 93.7164 52.8481C92.8764 52.8481 92.1857 52.6054 91.6444 52.1201C91.1217 51.6161 90.8604 50.9348 90.8604 50.0761C90.8604 49.4228 91.0097 48.7788 91.3084 48.1441C91.6257 47.5094 92.0364 46.9401 92.5404 46.4361C93.0444 45.9321 93.6137 45.5308 94.2484 45.2321C94.9017 44.9148 95.555 44.7561 96.2084 44.7561C96.4324 44.7561 96.6564 44.7934 96.8804 44.8681C97.1044 44.9428 97.3097 45.0548 97.4964 45.2041C97.7017 45.3348 97.8604 45.4934 97.9724 45.6801C98.103 45.8668 98.1684 46.0814 98.1684 46.3241C98.1684 46.3988 98.159 46.5201 98.1404 46.6881C98.1217 46.8374 98.0844 46.9868 98.0284 47.1361C97.991 47.2854 97.9257 47.4161 97.8324 47.5281C97.7577 47.6401 97.6644 47.6961 97.5524 47.6961C97.403 47.6961 97.2444 47.6308 97.0764 47.5001C96.927 47.3508 96.8524 47.1921 96.8524 47.0241C96.8524 46.8561 96.8804 46.6974 96.9364 46.5481C96.9924 46.3988 97.0204 46.2401 97.0204 46.0721C97.0204 45.9788 96.955 45.9321 96.8244 45.9321C96.3017 45.9321 95.7697 46.0908 95.2284 46.4081C94.7057 46.7068 94.2297 47.0988 93.8004 47.5841C93.3897 48.0508 93.0444 48.5734 92.7644 49.1521C92.503 49.7121 92.3724 50.2441 92.3724 50.7481C92.3724 51.0841 92.419 51.3081 92.5124 51.4201C92.6057 51.5134 92.8204 51.5601 93.1564 51.5601Z" fill="black"/>
</svg>
