<svg viewBox="0 0 85 780" fill="none" xmlns="http://www.w3.org/2000/svg">
<g clip-path="url(#clip0_656_6210)">
<path d="M31.0924 29.9352L2 29.9352L2 4.42333L98.9748 4.42334L98.9748 49.0318C98.9748 59.326 95.6926 67.9791 89.2773 74.9912C82.8621 82.0032 74.8057 85.5838 65.1082 85.5838C55.4107 85.5838 47.3544 82.0032 40.7899 74.9912C34.3747 67.9791 31.0924 59.326 31.0924 49.0317L31.0924 29.9352ZM75.4025 49.0317L75.4025 29.9352L54.5156 29.9352L54.5156 49.0317C54.5156 54.8502 58.9914 59.0276 65.1082 59.0276C70.9267 59.0276 75.4025 54.8502 75.4025 49.0317ZM100.467 139.926C100.467 154.397 95.6926 166.631 86.1443 176.329C76.596 186.175 64.6606 191.099 50.4874 191.099C36.3142 191.099 24.3788 186.175 14.8305 176.329C5.28222 166.631 0.508073 154.397 0.508074 139.926C0.508074 125.305 5.28222 113.071 14.8305 103.225C24.3788 93.5271 36.3142 88.6038 50.4874 88.6038C64.6606 88.6038 76.596 93.5271 86.1443 103.225C95.6926 113.071 100.467 125.305 100.467 139.926ZM50.6366 115.309C43.3262 115.309 37.2093 117.696 32.286 122.321C27.3626 126.946 24.9756 132.914 24.9756 139.926C24.9756 146.938 27.3626 152.756 32.286 157.381C37.2093 162.155 43.3262 164.543 50.6366 164.543C57.6486 164.543 63.6163 162.155 68.5396 157.381C73.463 152.756 75.9992 146.938 75.9992 139.926C75.9992 132.914 73.6122 126.946 68.6888 122.321C63.7655 117.696 57.7978 115.309 50.6366 115.309ZM98.9748 199.655L98.9748 245.606C98.9748 256.05 95.6926 264.703 89.2773 271.715C82.8621 278.727 74.8057 282.158 65.1082 282.158C53.0237 282.158 42.431 276.041 36.4633 265.896L1.99999 285.44L1.99999 257.094L31.0924 240.384L31.0924 225.167L1.99999 225.167L1.99999 199.655L98.9748 199.655ZM75.4025 245.606L75.4025 225.167L54.5156 225.167L54.5156 245.606C54.5156 251.425 58.9913 255.751 65.1082 255.751C70.9267 255.751 75.4025 251.425 75.4025 245.606ZM75.4025 312.716L75.4025 285.264L98.9748 285.264L98.9748 365.679L75.4025 365.679L75.4025 338.228L1.99999 338.228L1.99999 312.716L75.4025 312.716ZM98.9748 373.033L98.9748 446.435L75.4025 446.435L75.4025 398.544L61.9752 398.544L61.9752 438.08L38.552 438.08L38.552 398.544L1.99998 398.544L1.99998 373.033L98.9748 373.033ZM100.467 501.105C100.467 515.576 95.6926 527.81 86.1443 537.507C76.596 547.354 64.6606 552.277 50.4874 552.277C36.3141 552.277 24.3788 547.354 14.8305 537.507C5.2822 527.81 0.508057 515.576 0.508058 501.105C0.508058 486.484 5.2822 474.25 14.8305 464.403C24.3788 454.706 36.3141 449.782 50.4874 449.782C64.6606 449.782 76.596 454.706 86.1443 464.403C95.6926 474.25 100.467 486.484 100.467 501.105ZM50.6366 476.488C43.3262 476.488 37.2093 478.875 32.286 483.5C27.3626 488.125 24.9756 494.093 24.9756 501.105C24.9756 508.117 27.3626 513.935 32.286 518.56C37.2093 523.334 43.3262 525.721 50.6366 525.721C57.6486 525.721 63.6163 523.334 68.5396 518.56C73.463 513.935 75.9992 508.117 75.9992 501.105C75.9992 494.093 73.6121 488.125 68.6888 483.5C63.7655 478.875 57.7978 476.488 50.6366 476.488ZM98.9748 560.834L98.9748 586.346L25.4231 586.346L25.4231 631.103L1.99997 631.103L1.99998 560.834L98.9748 560.834ZM1.99997 664.147L1.99997 638.635L98.9748 638.635L98.9748 664.147L1.99997 664.147ZM100.467 724.018C100.467 738.49 95.6926 750.724 86.1443 760.421C76.596 770.268 64.6606 775.191 50.4874 775.191C36.3141 775.191 24.3788 770.268 14.8305 760.421C5.28219 750.724 0.508047 738.49 0.508048 724.018C0.508049 709.398 5.28219 697.164 14.8305 687.317C24.3788 677.62 36.3141 672.696 50.4874 672.696C64.6606 672.696 76.596 677.62 86.1443 687.317C95.6926 697.164 100.467 709.398 100.467 724.018ZM50.6366 699.402C43.3262 699.402 37.2093 701.789 32.2859 706.414C27.3626 711.039 24.9755 717.006 24.9755 724.018C24.9755 731.03 27.3626 736.849 32.2859 741.474C37.2093 746.248 43.3262 748.635 50.6366 748.635C57.6486 748.635 63.6163 746.248 68.5396 741.474C73.4629 736.849 75.9992 731.03 75.9992 724.018C75.9992 717.006 73.6121 711.039 68.6888 706.414C63.7655 701.789 57.7978 699.402 50.6366 699.402Z" fill="#1F1F1F"/>
</g>
<defs>
<clipPath id="clip0_656_6210">
<rect width="85" height="780" fill="white"/>
</clipPath>
</defs>
</svg>
