<svg width="86" height="1023" viewBox="0 0 86 1023" fill="none" xmlns="http://www.w3.org/2000/svg">
<g clip-path="url(#clip0_716_7097)">
<mask id="mask0_716_7097" style="mask-type:luminance" maskUnits="userSpaceOnUse" x="0" y="122" width="85" height="780">
<path d="M85 122H0V902H85V122Z" fill="white"/>
</mask>
<g mask="url(#mask0_716_7097)">
<path d="M31.0922 151.935H1.99976V126.423L98.9746 126.423V171.031C98.9746 181.326 95.6924 189.979 89.2771 196.991C82.8619 204.003 74.8055 207.583 65.108 207.583C55.4105 207.583 47.3542 204.003 40.7897 196.991C34.3745 189.979 31.0922 181.326 31.0922 171.031V151.935ZM75.4023 171.031V151.935H54.5154V171.031C54.5154 176.85 58.9912 181.027 65.108 181.027C70.9265 181.027 75.4023 176.85 75.4023 171.031ZM100.467 261.926C100.467 276.397 95.6924 288.631 86.1441 298.329C76.5958 308.175 64.6604 313.099 50.4872 313.099C36.314 313.099 24.3786 308.175 14.8303 298.329C5.28198 288.631 0.507837 276.397 0.507838 261.926C0.507838 247.305 5.28198 235.071 14.8303 225.225C24.3786 215.527 36.314 210.603 50.4872 210.603C64.6604 210.603 76.5958 215.527 86.1441 225.225C95.6924 235.071 100.467 247.305 100.467 261.926ZM50.6364 237.309C43.326 237.309 37.2091 239.696 32.2858 244.321C27.3624 248.946 24.9754 254.914 24.9754 261.926C24.9754 268.938 27.3624 274.756 32.2858 279.381C37.2091 284.155 43.326 286.543 50.6364 286.543C57.6484 286.543 63.6161 284.155 68.5394 279.381C73.4628 274.756 75.999 268.938 75.999 261.926C75.999 254.914 73.612 248.946 68.6886 244.321C63.7653 239.696 57.7976 237.309 50.6364 237.309ZM98.9746 321.655V367.606C98.9746 378.05 95.6924 386.703 89.2771 393.715C82.8619 400.727 74.8055 404.158 65.108 404.158C53.0235 404.158 42.4308 398.041 36.4631 387.896L1.99975 407.44V379.094L31.0922 362.384V347.167H1.99975V321.655H98.9746ZM75.4023 367.606V347.167H54.5154V367.606C54.5154 373.425 58.9911 377.751 65.108 377.751C70.9265 377.751 75.4023 373.425 75.4023 367.606ZM75.4023 434.716V407.264H98.9746V487.678H75.4023V460.228H1.99975V434.716H75.4023ZM98.9746 495.033V568.435H75.4023V520.544H61.975V560.079H38.5518V520.544H1.99974V495.033H98.9746ZM100.467 623.105C100.467 637.576 95.6924 649.81 86.1441 659.507C76.5958 669.354 64.6604 674.276 50.4872 674.276C36.3139 674.276 24.3786 669.354 14.8303 659.507C5.28196 649.81 0.507822 637.576 0.507823 623.105C0.507823 608.484 5.28196 596.25 14.8303 586.403C24.3786 576.706 36.3139 571.782 50.4872 571.782C64.6604 571.782 76.5958 576.706 86.1441 586.403C95.6924 596.25 100.467 608.484 100.467 623.105ZM50.6364 598.488C43.326 598.488 37.2091 600.875 32.2858 605.5C27.3624 610.125 24.9754 616.093 24.9754 623.105C24.9754 630.117 27.3624 635.935 32.2858 640.56C37.2091 645.334 43.326 647.721 50.6364 647.721C57.6484 647.721 63.6161 645.334 68.5394 640.56C73.4628 635.935 75.999 630.117 75.999 623.105C75.999 616.093 73.6119 610.125 68.6886 605.5C63.7653 600.875 57.7976 598.488 50.6364 598.488ZM98.9746 682.833V708.346H25.4229V753.103H1.99973L1.99974 682.833H98.9746ZM1.99973 786.146V760.635H98.9746V786.146H1.99973ZM100.467 846.018C100.467 860.49 95.6924 872.724 86.1441 882.421C76.5958 892.268 64.6604 897.19 50.4872 897.19C36.3139 897.19 24.3786 892.268 14.8303 882.421C5.28195 872.724 0.507812 860.49 0.507813 846.018C0.507814 831.398 5.28195 819.164 14.8303 809.317C24.3786 799.62 36.3139 794.695 50.4872 794.695C64.6604 794.695 76.5958 799.62 86.1441 809.317C95.6924 819.164 100.467 831.398 100.467 846.018ZM50.6364 821.401C43.326 821.401 37.2091 823.789 32.2857 828.414C27.3624 833.039 24.9753 839.006 24.9753 846.018C24.9753 853.03 27.3624 858.849 32.2857 863.474C37.2091 868.248 43.326 870.635 50.6364 870.635C57.6484 870.635 63.6161 868.248 68.5394 863.474C73.4627 858.849 75.999 853.03 75.999 846.018C75.999 839.006 73.6119 833.039 68.6886 828.414C63.7653 823.789 57.7976 821.401 50.6364 821.401Z" fill="#1F1F1F"/>
</g>
</g>
<line x1="85.5" y1="-2.18557e-08" x2="85.5" y2="1023" stroke="black"/>
<defs>
<clipPath id="clip0_716_7097">
<rect width="85" height="780" fill="white" transform="translate(0 122)"/>
</clipPath>
</defs>
</svg>
