<svg width="36" height="36" viewBox="0 0 36 36" fill="none" xmlns="http://www.w3.org/2000/svg">
<path d="M7.41892 4.5C6.64477 4.5 5.90233 4.80753 5.35493 5.35493C4.80753 5.90233 4.5 6.64477 4.5 7.41892V28.5811C4.5 29.3552 4.80753 30.0977 5.35493 30.6451C5.90233 31.1925 6.64477 31.5 7.41892 31.5H28.5811C29.3552 31.5 30.0977 31.1925 30.6451 30.6451C31.1925 30.0977 31.5 29.3552 31.5 28.5811V7.41892C31.5 6.64477 31.1925 5.90233 30.6451 5.35493C30.0977 4.80753 29.3552 4.5 28.5811 4.5H7.41892Z" stroke="#434343" stroke-width="0.486486" stroke-linecap="round" stroke-linejoin="round"/>
<path d="M25.301 22.1236C25.0599 22.5465 24.7112 22.8981 24.2903 23.1426C23.8695 23.3872 23.3913 23.516 22.9046 23.5159C22.173 23.5159 21.4714 23.2253 20.9541 22.708C20.4368 22.1907 20.1462 21.4891 20.1462 20.7576V18.9653C20.1462 18.2338 20.4368 17.5322 20.9541 17.0149C21.4714 16.4976 22.173 16.207 22.9046 16.207C23.6361 16.207 24.3377 16.4976 24.855 17.0149C25.3723 17.5322 25.6629 18.2338 25.6629 18.9653V19.8615H20.1462M14.8885 17.9999C15.2544 17.994 15.6179 18.0609 15.9578 18.1968C16.2976 18.3328 16.607 18.535 16.8679 18.7917C17.1288 19.0484 17.336 19.3544 17.4774 19.692C17.6189 20.0296 17.6917 20.3919 17.6917 20.7579C17.6917 21.1239 17.6189 21.4863 17.4774 21.8239C17.336 22.1614 17.1288 22.4675 16.8679 22.7242C16.607 22.9809 16.2976 23.1831 15.9578 23.319C15.6179 23.455 15.2544 23.5219 14.8885 23.5159H10.3379V12.4846H14.8885C15.256 12.4762 15.6214 12.5412 15.9634 12.676C16.3054 12.8108 16.6169 13.0126 16.8798 13.2695C17.1427 13.5264 17.3516 13.8333 17.4942 14.172C17.6368 14.5108 17.7103 14.8747 17.7103 15.2423C17.7103 15.6098 17.6368 15.9737 17.4942 16.3125C17.3516 16.6513 17.1427 16.9581 16.8798 17.215C16.6169 17.4719 16.3054 17.6737 15.9634 17.8085C15.6214 17.9433 15.256 18.0084 14.8885 17.9999ZM14.8885 17.9999H10.3379M20.1462 12.4839H25.6622" stroke="#434343" stroke-width="0.486486" stroke-linecap="round" stroke-linejoin="round"/>
</svg>
