<svg width="36" height="36" viewBox="0 0 36 36" fill="none" xmlns="http://www.w3.org/2000/svg">
<path d="M17.9996 31.875V13.9313C17.9996 12.9218 18.4007 11.9536 19.1145 11.2398C19.8283 10.526 20.7964 10.125 21.8059 10.125C23.6794 10.125 24.8486 10.68 25.6504 11.7173M14.7754 17.466H22.3879" stroke="#434343" stroke-width="0.5" stroke-linecap="round" stroke-linejoin="round"/>
<path d="M28.875 4.125H7.125C6.32935 4.125 5.56629 4.44107 5.00368 5.00368C4.44107 5.56629 4.125 6.32935 4.125 7.125V28.875C4.125 29.6706 4.44107 30.4337 5.00368 30.9963C5.56629 31.5589 6.32935 31.875 7.125 31.875H28.875C29.6706 31.875 30.4337 31.5589 30.9963 30.9963C31.5589 30.4337 31.875 29.6706 31.875 28.875V7.125C31.875 6.32935 31.5589 5.56629 30.9963 5.00368C30.4337 4.44107 29.6706 4.125 28.875 4.125Z" stroke="#434343" stroke-width="0.5" stroke-linecap="round" stroke-linejoin="round"/>
</svg>
