<svg width="36" height="36" viewBox="0 0 36 36" fill="none" xmlns="http://www.w3.org/2000/svg">
<path d="M28.5811 4.5H7.41892C5.80684 4.5 4.5 5.80684 4.5 7.41892V28.5811C4.5 30.1932 5.80684 31.5 7.41892 31.5H28.5811C30.1932 31.5 31.5 30.1932 31.5 28.5811V7.41892C31.5 5.80684 30.1932 4.5 28.5811 4.5Z" stroke="#434343" stroke-width="0.486486" stroke-linecap="round" stroke-linejoin="round"/>
<path d="M12.8936 13.1094C13.6589 13.1094 14.2793 12.489 14.2793 11.7236C14.2793 10.9583 13.6589 10.3379 12.8936 10.3379C12.1282 10.3379 11.5078 10.9583 11.5078 11.7236C11.5078 12.489 12.1282 13.1094 12.8936 13.1094Z" stroke="#434343" stroke-width="0.486486" stroke-linecap="round" stroke-linejoin="round"/>
<path d="M12.8936 15.1729V25.662M24.4926 25.662V19.1309C24.4926 18.6111 24.3902 18.0963 24.1913 17.6161C23.9923 17.1358 23.7007 16.6994 23.3331 16.3319C22.9654 15.9643 22.529 15.6728 22.0487 15.4739C21.5684 15.2751 21.0537 15.1728 20.5338 15.1729C19.4841 15.1729 18.4773 15.5899 17.7351 16.3321C16.9928 17.0744 16.5758 18.0812 16.5758 19.1309M16.5758 25.662V15.1729" stroke="#434343" stroke-width="0.486486" stroke-linecap="round" stroke-linejoin="round"/>
</svg>
