<svg width="36" height="36" viewBox="0 0 36 36" fill="none" xmlns="http://www.w3.org/2000/svg">
<path d="M17.5 8.23731C15.2446 8.23615 13.0624 9.03789 11.3442 10.499C9.62596 11.96 8.48396 13.985 8.12265 16.2113C7.76134 18.4376 8.20432 20.7199 9.37227 22.6493C10.5402 24.5788 12.3569 26.0295 14.4969 26.7417C14.9739 26.83 15.1461 26.5386 15.1461 26.3001V24.6881C12.4963 25.2622 11.9487 23.4162 11.9487 23.4162C11.7734 22.8321 11.3921 22.3315 10.8755 22.0074C10.0143 21.42 10.9418 21.4289 10.9418 21.4289C11.2426 21.471 11.5298 21.5812 11.7816 21.7511C12.0334 21.921 12.2431 22.1461 12.3947 22.4093C13.2427 23.8623 14.6029 23.4427 15.1593 23.1998C15.2029 22.7173 15.4175 22.2662 15.7644 21.9279C13.6534 21.6894 11.4364 20.8768 11.4364 17.2378C11.4228 16.2938 11.774 15.381 12.4168 14.6896C12.1246 13.871 12.1578 12.9715 12.5095 12.1767C12.5095 12.1767 13.3045 11.9205 15.1196 13.1483C16.6752 12.7243 18.3159 12.7243 19.8716 13.1483C21.6867 11.9205 22.4816 12.1767 22.4816 12.1767C22.8307 12.9721 22.8638 13.8706 22.5744 14.6896C23.2163 15.3812 23.566 16.2943 23.5504 17.2378C23.5504 20.8857 21.3422 21.685 19.2179 21.9235C19.4459 22.1544 19.6214 22.4317 19.7327 22.7365C19.8439 23.0414 19.8883 23.3665 19.8627 23.69V26.2957C19.8627 26.6092 20.035 26.8433 20.5163 26.7373C22.6542 26.0223 24.4679 24.5701 25.6331 22.6404C26.7984 20.7106 27.239 18.4293 26.8762 16.2044C26.5135 13.9796 25.371 11.9564 23.6532 10.4967C21.9353 9.03703 19.7542 8.23615 17.5 8.23731Z" stroke="#434343" stroke-width="0.418389" stroke-linecap="round" stroke-linejoin="round"/>
<path d="M28.0811 4H6.91892C5.30684 4 4 5.30684 4 6.91892V28.0811C4 29.6932 5.30684 31 6.91892 31H28.0811C29.6932 31 31 29.6932 31 28.0811V6.91892C31 5.30684 29.6932 4 28.0811 4Z" stroke="#434343" stroke-width="0.486486" stroke-linecap="round" stroke-linejoin="round"/>
</svg>
