<svg width="36" height="36" viewBox="0 0 36 36" fill="none" xmlns="http://www.w3.org/2000/svg">
<path d="M28.875 4.125H7.125C5.46815 4.125 4.125 5.46815 4.125 7.125V28.875C4.125 30.5319 5.46815 31.875 7.125 31.875H28.875C30.5319 31.875 31.875 30.5319 31.875 28.875V7.125C31.875 5.46815 30.5319 4.125 28.875 4.125Z" stroke="#434343" stroke-width="0.5" stroke-linecap="round" stroke-linejoin="round"/>
<path d="M26.5127 11.1748C27.4447 11.1748 28.2002 10.4193 28.2002 9.4873C28.2002 8.55532 27.4447 7.7998 26.5127 7.7998C25.5807 7.7998 24.8252 8.55532 24.8252 9.4873C24.8252 10.4193 25.5807 11.1748 26.5127 11.1748Z" stroke="#434343" stroke-width="0.5" stroke-linecap="round" stroke-linejoin="round"/>
<path d="M18 24.1875C21.4173 24.1875 24.1875 21.4173 24.1875 18C24.1875 14.5827 21.4173 11.8125 18 11.8125C14.5827 11.8125 11.8125 14.5827 11.8125 18C11.8125 21.4173 14.5827 24.1875 18 24.1875Z" stroke="#434343" stroke-width="0.5" stroke-linecap="round" stroke-linejoin="round"/>
</svg>
