<svg viewBox="0 0 60 60" fill="none" xmlns="http://www.w3.org/2000/svg">
<rect width="60" height="60" rx="10" fill="url(#paint0_linear_688_6767)"/>
<path d="M19.8678 25.4688C21.0678 26.6688 23.7278 26.5388 24.6178 25.0088C24.8878 24.5388 25.0278 23.8888 25.0678 23.3388C25.2678 20.7288 24.8878 17.8788 25.0778 15.2388L25.2678 15.0488C26.5978 14.8188 27.9078 15.3988 28.0578 16.8388C28.2478 18.6388 28.2078 22.3588 28.0578 24.2088C27.5478 30.6488 16.5778 30.6688 16.0778 24.2088C15.8478 21.3188 16.2078 18.0788 16.1378 15.1588C17.5878 14.6988 18.9478 15.4188 19.0778 16.9688C19.2578 19.0388 18.8878 21.3888 19.0778 23.4588C19.1378 24.1488 19.3678 24.9788 19.8678 25.4788V25.4688Z" fill="white"/>
<path d="M16.2879 32.0189C17.6179 31.7989 18.9179 32.3689 19.0779 33.8089C19.3079 35.8989 18.5879 40.2189 19.4679 41.8989C20.2079 43.3089 22.3279 43.5489 23.6479 42.8789C24.6479 42.3689 24.9779 41.3689 25.0679 40.2989C25.1579 39.1789 24.8879 32.4489 25.1179 32.1189C26.4379 31.6589 27.8879 32.3389 28.0579 33.8089C28.2579 35.5589 28.2179 39.4989 28.0579 41.2889C27.4979 47.5589 16.6479 47.5689 16.0879 41.2889C15.8379 38.4589 16.2779 35.2889 16.0879 32.4289L16.2979 32.0189H16.2879Z" fill="white"/>
<path d="M31.2281 32.009H33.7181C33.7981 32.009 34.5881 32.509 34.7181 32.629C35.2181 33.109 37.2281 36.439 37.4581 36.499C37.6381 36.539 37.6681 36.389 37.7481 36.289C38.6381 35.339 39.3981 33.499 40.3181 32.619C40.4481 32.499 41.2381 31.999 41.3181 31.999H43.8081L43.9981 32.309L39.2781 38.939L43.9981 45.659L43.8081 45.969H41.3181C41.1981 45.969 40.4081 45.439 40.2581 45.279C39.8081 44.799 37.7981 41.529 37.5781 41.479C37.3981 41.439 37.3681 41.589 37.2881 41.689C36.5481 42.479 34.7381 45.979 33.7181 45.979H31.2281L31.0381 45.669L35.7581 39.039L31.0381 32.319L31.2281 32.009Z" fill="white"/>
<path d="M41.458 15.0386H43.828C43.968 15.0386 44.078 15.4186 43.988 15.5686C42.488 19.5486 41.808 24.1886 40.308 28.1086C40.208 28.3786 39.928 29.0086 39.588 29.0086H37.218C37.078 29.0086 36.968 28.6286 37.058 28.4786C38.558 24.4986 39.238 19.8586 40.738 15.9386C40.908 15.5086 40.998 15.2486 41.458 15.0386Z" fill="white"/>
<path d="M31.2481 15.0588C32.5081 14.8488 33.6981 15.3188 34.0081 16.6288L33.9881 28.8988L33.8381 28.9988C32.5781 29.2088 31.3881 28.7388 31.0781 27.4288L31.0981 15.1588L31.2481 15.0588Z" fill="white"/>
<rect x="6.5" y="6.5" width="47" height="47" rx="7.5" stroke="white"/>
<defs>
<linearGradient id="paint0_linear_688_6767" x1="30" y1="60" x2="30" y2="0" gradientUnits="userSpaceOnUse">
<stop stop-color="#1E1E1E"/>
<stop offset="1" stop-color="#434343"/>
</linearGradient>
</defs>
</svg>
