<svg viewBox="0 0 60 60" fill="none" xmlns="http://www.w3.org/2000/svg">
<g clip-path="url(#clip0_887_11024)">
<path d="M50 0H10C4.47715 0 0 4.47715 0 10V50C0 55.5228 4.47715 60 10 60H50C55.5228 60 60 55.5228 60 50V10C60 4.47715 55.5228 0 50 0Z" fill="white"/>
<path d="M46 6.5H14C9.85786 6.5 6.5 9.85786 6.5 14V46C6.5 50.1421 9.85786 53.5 14 53.5H46C50.1421 53.5 53.5 50.1421 53.5 46V14C53.5 9.85786 50.1421 6.5 46 6.5Z" stroke="black"/>
<mask id="mask0_887_11024" style="mask-type:luminance" maskUnits="userSpaceOnUse" x="15" y="27" width="30" height="6">
<path d="M15.1182 27V32.9902H16.1464V28.2803L19.9383 32.9926H26.3778V32.0362H22.2224V30.4548H25.5638V29.4984H22.2224V27.9589H26.3776V27.0019H21.194V27.9589L21.1944 32.9484L16.4033 27H15.1182ZM34.9035 27.0023V27.9592H37.0031V32.9933H38.0309V27.9592H40.088V27.0021L34.9035 27.0023ZM27.6204 27.0049L32.4406 32.9956H33.7899L31.3798 30.0023L33.7864 27.0095L32.4401 27.0119L30.7057 29.1652L28.9665 27.0051L27.6204 27.0049ZM43.9337 30.3992C43.7567 30.3992 43.5977 30.429 43.4568 30.4909C43.3167 30.5521 43.2061 30.638 43.1252 30.7485C43.0438 30.8593 43.0031 30.9883 43.0031 31.1354C43.0028 31.3143 43.0633 31.4574 43.1845 31.5649C43.305 31.6728 43.4696 31.7531 43.6784 31.8058L43.9667 31.8783C44.0481 31.898 44.1279 31.924 44.2053 31.956C44.2654 31.9797 44.3196 32.0163 44.3641 32.0632C44.4027 32.1082 44.4233 32.1659 44.4218 32.2252C44.4223 32.2933 44.3991 32.3593 44.356 32.412C44.3092 32.4684 44.2482 32.5114 44.1792 32.5364C44.095 32.5675 44.0058 32.5826 43.916 32.581C43.8277 32.5824 43.7398 32.5681 43.6565 32.5387C43.584 32.5126 43.5195 32.4679 43.4696 32.4092C43.4204 32.3473 43.3918 32.2716 43.3877 32.1927H42.9364C42.9426 32.3581 42.9865 32.4985 43.068 32.614C43.1903 32.7872 43.2624 32.817 43.4075 32.8768C43.5517 32.9372 43.723 32.9674 43.9195 32.9674C44.1229 32.9671 44.296 32.9361 44.4387 32.8744C44.5821 32.8117 44.6917 32.725 44.7675 32.6145C44.8436 32.5031 44.881 32.3754 44.881 32.229C44.8808 32.1204 44.8602 32.0261 44.8191 31.946C44.7787 31.8661 44.7216 31.7958 44.6517 31.7397C44.5792 31.6815 44.4987 31.634 44.4127 31.5986C44.3233 31.5606 44.2307 31.5306 44.136 31.5091L43.8988 31.4509C43.8464 31.4384 43.7946 31.4233 43.7437 31.4056C43.695 31.3891 43.6484 31.3668 43.6049 31.3393C43.5645 31.3152 43.5302 31.2819 43.5049 31.2421C43.4797 31.2018 43.4669 31.1549 43.4682 31.1073C43.4682 31.0472 43.4876 30.9887 43.5235 30.9406C43.5598 30.8917 43.613 30.8531 43.6812 30.8243C43.7595 30.7943 43.8429 30.7798 43.9267 30.7815C44.0628 30.7814 44.1737 30.811 44.2592 30.8706C44.3006 30.8984 44.3351 30.9353 44.3602 30.9783C44.3853 31.0214 44.4003 31.0696 44.4041 31.1194H44.8459C44.8455 30.9855 44.8038 30.855 44.7266 30.7457C44.6491 30.6372 44.5424 30.5522 44.4064 30.4909C44.2708 30.4295 44.1132 30.3989 43.9337 30.3992ZM42.074 30.4327V32.1883C42.0732 32.2762 42.0596 32.3501 42.0331 32.4101C42.0092 32.4666 41.968 32.5142 41.9154 32.5459C41.8644 32.5769 41.8022 32.5924 41.7287 32.5924C41.6614 32.5924 41.6017 32.5792 41.5494 32.5529C41.499 32.5281 41.4568 32.4892 41.428 32.441C41.3979 32.3879 41.3823 32.3277 41.3827 32.2666H40.9263C40.9259 32.4204 40.9606 32.5488 41.0302 32.6517C41.0996 32.7549 41.1974 32.8358 41.3118 32.8847C41.438 32.9389 41.5743 32.9658 41.7117 32.9637C41.874 32.9637 42.0162 32.9327 42.1384 32.8707C42.258 32.8113 42.3578 32.7185 42.4258 32.6035C42.494 32.4878 42.5287 32.3492 42.53 32.188V30.4327H42.074ZM29.6731 30.4464L27.6167 33H28.9665L30.347 31.284L29.6731 30.4464ZM40.3191 32.4224C40.2438 32.4224 40.1795 32.4485 40.1261 32.5005C40.1003 32.5244 40.0798 32.5534 40.066 32.5858C40.0523 32.6181 40.0455 32.653 40.0462 32.6882C40.0453 32.7237 40.0519 32.7591 40.0657 32.7919C40.0795 32.8247 40.1001 32.8542 40.1261 32.8784C40.1795 32.9306 40.2438 32.9567 40.3191 32.9565C40.3661 32.9569 40.4123 32.9444 40.4526 32.9202C40.4934 32.8969 40.5276 32.8636 40.5521 32.8235C40.5774 32.7829 40.5908 32.736 40.5907 32.6882C40.5907 32.6529 40.5833 32.6181 40.5692 32.5858C40.555 32.5535 40.5343 32.5245 40.5084 32.5005C40.4837 32.4755 40.4542 32.4557 40.4217 32.4423C40.3892 32.4289 40.3543 32.4221 40.3191 32.4224Z" fill="white"/>
</mask>
<g mask="url(#mask0_887_11024)">
<path d="M15.1182 27V32.9902H16.1464V28.2803L19.9383 32.9926H26.3778V32.0362H22.2224V30.4548H25.5638V29.4984H22.2224V27.9589H26.3776V27.0019H21.194V27.9589L21.1944 32.9484L16.4033 27H15.1182ZM34.9035 27.0023V27.9592H37.0031V32.9933H38.0309V27.9592H40.088V27.0021L34.9035 27.0023ZM27.6204 27.0049L32.4406 32.9956H33.7899L31.3798 30.0023L33.7864 27.0095L32.4401 27.0119L30.7057 29.1652L28.9665 27.0051L27.6204 27.0049ZM43.9337 30.3992C43.7567 30.3992 43.5977 30.429 43.4568 30.4909C43.3167 30.5521 43.2061 30.638 43.1252 30.7485C43.0438 30.8593 43.0031 30.9883 43.0031 31.1354C43.0028 31.3143 43.0633 31.4574 43.1845 31.5649C43.305 31.6728 43.4696 31.7531 43.6784 31.8058L43.9667 31.8783C44.0481 31.898 44.1279 31.924 44.2053 31.956C44.2654 31.9797 44.3196 32.0163 44.3641 32.0632C44.4027 32.1082 44.4233 32.1659 44.4218 32.2252C44.4223 32.2933 44.3991 32.3593 44.356 32.412C44.3092 32.4684 44.2482 32.5114 44.1792 32.5364C44.095 32.5675 44.0058 32.5826 43.916 32.581C43.8277 32.5824 43.7398 32.5681 43.6565 32.5387C43.584 32.5126 43.5195 32.4679 43.4696 32.4092C43.4204 32.3473 43.3918 32.2716 43.3877 32.1927H42.9364C42.9426 32.3581 42.9865 32.4985 43.068 32.614C43.1903 32.7872 43.2624 32.817 43.4075 32.8768C43.5517 32.9372 43.723 32.9674 43.9195 32.9674C44.1229 32.9671 44.296 32.9361 44.4387 32.8744C44.5821 32.8117 44.6917 32.725 44.7675 32.6145C44.8436 32.5031 44.881 32.3754 44.881 32.229C44.8808 32.1204 44.8602 32.0261 44.8191 31.946C44.7787 31.8661 44.7216 31.7958 44.6517 31.7397C44.5792 31.6815 44.4987 31.634 44.4127 31.5986C44.3233 31.5606 44.2307 31.5306 44.136 31.5091L43.8988 31.4509C43.8464 31.4384 43.7946 31.4233 43.7437 31.4056C43.695 31.3891 43.6484 31.3668 43.6049 31.3393C43.5645 31.3152 43.5302 31.2819 43.5049 31.2421C43.4797 31.2018 43.4669 31.1549 43.4682 31.1073C43.4682 31.0472 43.4876 30.9887 43.5235 30.9406C43.5598 30.8917 43.613 30.8531 43.6812 30.8243C43.7595 30.7943 43.8429 30.7798 43.9267 30.7815C44.0628 30.7814 44.1737 30.811 44.2592 30.8706C44.3006 30.8984 44.3351 30.9353 44.3602 30.9783C44.3853 31.0214 44.4003 31.0696 44.4041 31.1194H44.8459C44.8455 30.9855 44.8038 30.855 44.7266 30.7457C44.6491 30.6372 44.5424 30.5522 44.4064 30.4909C44.2708 30.4295 44.1132 30.3989 43.9337 30.3992ZM42.074 30.4327V32.1883C42.0732 32.2762 42.0596 32.3501 42.0331 32.4101C42.0092 32.4666 41.968 32.5142 41.9154 32.5459C41.8644 32.5769 41.8022 32.5924 41.7287 32.5924C41.6614 32.5924 41.6017 32.5792 41.5494 32.5529C41.499 32.5281 41.4568 32.4892 41.428 32.441C41.3979 32.3879 41.3823 32.3277 41.3827 32.2666H40.9263C40.9259 32.4204 40.9606 32.5488 41.0302 32.6517C41.0996 32.7549 41.1974 32.8358 41.3118 32.8847C41.438 32.9389 41.5743 32.9658 41.7117 32.9637C41.874 32.9637 42.0162 32.9327 42.1384 32.8707C42.258 32.8113 42.3578 32.7185 42.4258 32.6035C42.494 32.4878 42.5287 32.3492 42.53 32.188V30.4327H42.074ZM29.6731 30.4464L27.6167 33H28.9665L30.347 31.284L29.6731 30.4464ZM40.3191 32.4224C40.2438 32.4224 40.1795 32.4485 40.1261 32.5005C40.1003 32.5244 40.0798 32.5534 40.066 32.5858C40.0523 32.6181 40.0455 32.653 40.0462 32.6882C40.0453 32.7237 40.0519 32.7591 40.0657 32.7919C40.0795 32.8247 40.1001 32.8542 40.1261 32.8784C40.1795 32.9306 40.2438 32.9567 40.3191 32.9565C40.3661 32.9569 40.4123 32.9444 40.4526 32.9202C40.4934 32.8969 40.5276 32.8636 40.5521 32.8235C40.5774 32.7829 40.5908 32.736 40.5907 32.6882C40.5907 32.6529 40.5833 32.6181 40.5692 32.5858C40.555 32.5535 40.5343 32.5245 40.5084 32.5005C40.4837 32.4755 40.4542 32.4557 40.4217 32.4423C40.3892 32.4289 40.3543 32.4221 40.3191 32.4224Z" fill="black" stroke="black" stroke-width="0.25"/>
</g>
</g>
<defs>
<clipPath id="clip0_887_11024">
<rect width="60" height="60" fill="white"/>
</clipPath>
</defs>
</svg>
