<svg viewBox="0 0 60 60" fill="none" xmlns="http://www.w3.org/2000/svg">
<g clip-path="url(#clip0_887_11039)">
<path d="M50 0H10C4.47715 0 0 4.47715 0 10V50C0 55.5228 4.47715 60 10 60H50C55.5228 60 60 55.5228 60 50V10C60 4.47715 55.5228 0 50 0Z" fill="white"/>
<path d="M14 6.25H46C50.2802 6.25 53.75 9.71979 53.75 14V46C53.75 50.2802 50.2802 53.75 46 53.75H14C9.71979 53.75 6.25 50.2802 6.25 46V14C6.25 9.71979 9.71979 6.25 14 6.25ZM15.0908 6.81152C10.5345 6.81157 6.84082 10.5052 6.84082 15.0615V44.9385C6.84082 49.4948 10.5345 53.1884 15.0908 53.1885H44.9092C49.4655 53.1884 53.1592 49.4948 53.1592 44.9385V15.0615C53.1592 10.5052 49.4655 6.81157 44.9092 6.81152H15.0908ZM38.3516 22.8311C39.72 22.8311 40.7504 23.0065 41.4258 23.2217C41.5676 23.2669 41.6952 23.3212 41.7832 23.3877C41.8666 23.4509 41.8906 23.5053 41.8906 23.5596V26.3096C41.8832 26.3053 41.8751 26.3005 41.8652 26.2949C40.9366 25.7688 39.6328 25.4413 38.3643 25.4404C38.3471 25.4404 38.3311 25.4443 38.3154 25.4473C37.5072 25.456 36.9296 25.6695 36.5488 26.002C36.1598 26.3417 36.001 26.7849 36.001 27.1875C36.001 27.3945 36.0258 27.5994 36.1074 27.8066C36.189 28.0137 36.321 28.2097 36.5166 28.4082C36.9006 28.7979 37.5512 29.22 38.6104 29.7812L38.6152 29.7832C40.1672 30.5574 41.1596 31.2986 41.7656 32.0957C42.3651 32.8843 42.6015 33.7486 42.6016 34.8076C42.6016 36.3783 42.019 37.5663 41.0576 38.3652C40.0904 39.1689 38.7167 39.5986 37.1104 39.5986C35.4957 39.5986 34.1264 39.2711 33.2949 38.8389L33.1357 38.751L33.124 38.7451L33.1123 38.7383L33.1143 38.7393C33.1108 38.731 33.1025 38.7036 33.1025 38.6299V35.7607C34.304 36.5188 35.6884 36.9201 37.1025 36.917C37.9257 36.917 38.5497 36.7439 38.9727 36.4131C39.4045 36.0752 39.5947 35.5988 39.5947 35.0742C39.5947 34.6341 39.4529 34.227 39.0459 33.7949C38.6512 33.376 38.004 32.9296 36.9941 32.3857L36.9863 32.3818L36.4785 32.123C35.341 31.5191 34.5307 30.9105 33.9893 30.2256C33.3772 29.4512 33.0938 28.5601 33.0938 27.4209C33.0939 26.1642 33.5721 25.0219 34.459 24.1924C35.3462 23.3627 36.659 22.8311 38.3516 22.8311ZM23.2031 17.1475C25.9301 17.1475 27.783 17.9131 28.9551 19.1289C30.129 20.3467 30.6562 22.0532 30.6562 24.0059C30.6562 26.5499 29.7601 28.3379 28.3398 29.4951C26.9117 30.6587 24.923 31.209 22.7021 31.209C21.7141 31.2092 20.8984 31.9687 20.8984 32.9736V39.2939H17.8506V17.3066C17.8561 17.3036 17.8622 17.3001 17.8691 17.2969C17.8973 17.2836 17.9313 17.2719 17.9658 17.2637C18.0011 17.2552 18.03 17.252 18.0469 17.252H18.0576C19.3431 17.196 20.6295 17.1625 21.916 17.1514L23.2031 17.1475ZM23.0625 19.9033C21.8294 19.9033 20.8984 20.9229 20.8984 22.1338V26.5166C20.8986 27.5633 21.7136 28.4238 22.7734 28.4238C23.9639 28.4238 25.1615 28.2083 26.0664 27.5449C26.9857 26.8708 27.5614 25.7649 27.5615 24.0801C27.5615 22.7261 27.1501 21.669 26.3564 20.9541C25.567 20.2431 24.4361 19.9033 23.0625 19.9033Z" fill="black"/>
<path d="M38.5811 25.5723C38.5922 25.5921 38.6004 25.6125 38.6055 25.6338M38.5713 25.5566C38.5729 25.559 38.5747 25.5611 38.5762 25.5635M14 6.25H46C50.2802 6.25 53.75 9.71979 53.75 14V46C53.75 50.2802 50.2802 53.75 46 53.75H14C9.71979 53.75 6.25 50.2802 6.25 46V14C6.25 9.71979 9.71979 6.25 14 6.25ZM15.0908 6.81152C10.5345 6.81157 6.84082 10.5052 6.84082 15.0615V44.9385C6.84082 49.4948 10.5345 53.1884 15.0908 53.1885H44.9092C49.4655 53.1884 53.1592 49.4948 53.1592 44.9385V15.0615C53.1592 10.5052 49.4655 6.81157 44.9092 6.81152H15.0908ZM38.3516 22.8311C39.72 22.8311 40.7504 23.0065 41.4258 23.2217C41.5676 23.2669 41.6952 23.3212 41.7832 23.3877C41.8666 23.4509 41.8906 23.5053 41.8906 23.5596V26.3096C41.8832 26.3053 41.8751 26.3005 41.8652 26.2949C40.9366 25.7688 39.6328 25.4413 38.3643 25.4404C38.3471 25.4404 38.3311 25.4443 38.3154 25.4473C37.5072 25.456 36.9296 25.6695 36.5488 26.002C36.1598 26.3417 36.001 26.7849 36.001 27.1875C36.001 27.3945 36.0258 27.5994 36.1074 27.8066C36.189 28.0137 36.321 28.2097 36.5166 28.4082C36.9006 28.7979 37.5512 29.22 38.6104 29.7812L38.6152 29.7832C40.1672 30.5574 41.1596 31.2986 41.7656 32.0957C42.3651 32.8843 42.6015 33.7486 42.6016 34.8076C42.6016 36.3783 42.019 37.5663 41.0576 38.3652C40.0904 39.1689 38.7167 39.5986 37.1104 39.5986C35.4957 39.5986 34.1264 39.2711 33.2949 38.8389L33.1357 38.751L33.124 38.7451L33.1123 38.7383L33.1143 38.7393C33.1108 38.731 33.1025 38.7036 33.1025 38.6299V35.7607C34.304 36.5188 35.6884 36.9201 37.1025 36.917C37.9257 36.917 38.5497 36.7439 38.9727 36.4131C39.4045 36.0752 39.5947 35.5988 39.5947 35.0742C39.5947 34.6341 39.4529 34.227 39.0459 33.7949C38.6512 33.376 38.004 32.9296 36.9941 32.3857L36.9863 32.3818L36.4785 32.123C35.341 31.5191 34.5307 30.9105 33.9893 30.2256C33.3772 29.4512 33.0938 28.5601 33.0938 27.4209C33.0939 26.1642 33.5721 25.0219 34.459 24.1924C35.3462 23.3627 36.659 22.8311 38.3516 22.8311ZM23.2031 17.1475C25.9301 17.1475 27.783 17.9131 28.9551 19.1289C30.129 20.3467 30.6562 22.0532 30.6562 24.0059C30.6562 26.5499 29.7601 28.3379 28.3398 29.4951C26.9117 30.6587 24.923 31.209 22.7021 31.209C21.7141 31.2092 20.8984 31.9687 20.8984 32.9736V39.2939H17.8506V17.3066C17.8561 17.3036 17.8622 17.3001 17.8691 17.2969C17.8973 17.2836 17.9313 17.2719 17.9658 17.2637C18.0011 17.2552 18.03 17.252 18.0469 17.252H18.0576C19.3431 17.196 20.6295 17.1625 21.916 17.1514L23.2031 17.1475ZM23.0625 19.9033C21.8294 19.9033 20.8984 20.9229 20.8984 22.1338V26.5166C20.8986 27.5633 21.7136 28.4238 22.7734 28.4238C23.9639 28.4238 25.1615 28.2083 26.0664 27.5449C26.9857 26.8708 27.5614 25.7649 27.5615 24.0801C27.5615 22.7261 27.1501 21.669 26.3564 20.9541C25.567 20.2431 24.4361 19.9033 23.0625 19.9033Z" stroke="black" stroke-width="0.5"/>
</g>
<defs>
<clipPath id="clip0_887_11039">
<rect width="60" height="60" fill="white"/>
</clipPath>
</defs>
</svg>
