<svg viewBox="0 0 60 60" fill="none" xmlns="http://www.w3.org/2000/svg">
<g clip-path="url(#clip0_887_11035)">
<path d="M50 0H10C4.47715 0 0 4.47715 0 10V50C0 55.5228 4.47715 60 10 60H50C55.5228 60 60 55.5228 60 50V10C60 4.47715 55.5228 0 50 0Z" fill="white"/>
<path d="M46 6.5H14C9.85786 6.5 6.5 9.85786 6.5 14V46C6.5 50.1421 9.85786 53.5 14 53.5H46C50.1421 53.5 53.5 50.1421 53.5 46V14C53.5 9.85786 50.1421 6.5 46 6.5Z" stroke="black"/>
<path d="M24.957 37.1489H28.3662V40.5591C28.3662 41.2337 28.1658 41.8937 27.791 42.4546C27.4162 43.0153 26.8838 43.4524 26.2607 43.7104C25.6375 43.9685 24.9516 44.0364 24.29 43.9048C23.6284 43.7731 23.0199 43.4483 22.543 42.9712C22.066 42.4941 21.7418 41.8858 21.6104 41.2241C21.4789 40.5625 21.5464 39.8766 21.8047 39.2534C22.063 38.6303 22.5006 38.0978 23.0615 37.7231C23.5525 37.3953 24.1191 37.2009 24.7051 37.1577L24.957 37.1489ZM24.957 27.0601H28.3662V33.8784H24.957C24.5094 33.8784 24.0659 33.7909 23.6523 33.6196C23.2389 33.4484 22.8634 33.1968 22.5469 32.8804C22.2303 32.5638 21.9789 32.1875 21.8076 31.7739C21.6363 31.3603 21.5479 30.9169 21.5479 30.4692C21.5479 30.0216 21.6363 29.5781 21.8076 29.1646C21.9789 28.751 22.2304 28.3756 22.5469 28.0591C22.8634 27.7426 23.2388 27.4911 23.6523 27.3198C24.0659 27.1485 24.5094 27.0601 24.957 27.0601ZM35.0459 27.0591C35.7176 27.0592 36.3744 27.2573 36.9336 27.6294C37.493 28.0016 37.9299 28.5312 38.1895 29.1509C38.449 29.7706 38.5197 30.4531 38.3926 31.1128C38.2655 31.7724 37.9467 32.38 37.4756 32.8589C37.0043 33.3378 36.4018 33.6674 35.7441 33.8052C35.0866 33.9429 34.403 33.8827 33.7793 33.6333C33.1555 33.3837 32.6185 32.9552 32.2373 32.4019C31.9038 31.9177 31.7019 31.3567 31.6494 30.7739L31.6367 30.5229V30.4136C31.651 29.5189 32.0165 28.6652 32.6543 28.0376C33.2921 27.4102 34.1512 27.059 35.0459 27.0591ZM24.957 16.9702H28.3662V23.7905H24.957C24.0527 23.7905 23.1854 23.4309 22.5459 22.7915C21.9065 22.1521 21.5469 21.2847 21.5469 20.3804C21.5469 19.4761 21.9065 18.6087 22.5459 17.9692C23.1454 17.3697 23.9453 17.0159 24.7881 16.9741L24.957 16.9702ZM35.0361 16.9702L35.2031 16.9771C36.0343 17.0343 36.8183 17.395 37.4043 17.9927C38.0293 18.6302 38.3799 19.4876 38.3799 20.3804C38.3798 21.2732 38.0294 22.1305 37.4043 22.7681C36.7792 23.4056 35.9288 23.7729 35.0361 23.7905H31.6367V16.9702H35.0361Z" fill="black" stroke="black"/>
</g>
<defs>
<clipPath id="clip0_887_11035">
<rect width="60" height="60" fill="white"/>
</clipPath>
</defs>
</svg>
