<svg viewBox="0 0 60 60" fill="none" xmlns="http://www.w3.org/2000/svg">
<rect width="60" height="60" rx="10" fill="url(#paint0_linear_656_5305)"/>
<rect x="6.5" y="6.5" width="47" height="47" rx="7.5" stroke="white"/>
<mask id="path-3-inside-1_656_5305" fill="white">
<path d="M40.2059 25.1688C39.8411 25.1156 39.528 24.959 39.1632 24.8557C39.2165 24.6475 39.2165 24.4393 39.3198 24.1262C40.0493 20.3785 39.5296 17.4119 37.8623 16.3692C36.1967 15.4331 33.4884 16.4209 30.7817 18.7644C30.5718 18.9726 30.2087 19.1809 30.0005 19.4924C29.8439 19.3374 29.6357 19.1809 29.4792 18.9726C26.6159 16.4225 23.8043 15.3799 22.0353 16.3692C20.3681 17.3054 19.8483 20.1702 20.5763 23.6581C20.6295 24.0229 20.7328 24.3877 20.7861 24.6992C20.4213 24.7524 20.0033 24.909 19.6401 25.0639C16.2555 26.2615 13.8604 28.1887 13.8604 30.0109C13.8604 31.988 16.4105 33.9668 19.9 35.1112C20.2115 35.1644 20.473 35.321 20.7845 35.321C20.7328 35.6858 20.5763 36.0489 20.5763 36.4669C19.8984 39.9032 20.4213 42.6615 22.087 43.5993C23.7526 44.6403 26.6675 43.5993 29.3759 41.1008C29.5841 40.8909 29.7923 40.736 30.0537 40.5278C30.3264 40.7962 30.6224 41.0398 30.9382 41.2557C33.5416 43.5993 36.2483 44.537 37.9673 43.5993C39.6329 42.5582 40.2059 39.6417 39.4764 35.9973C39.4247 35.789 39.4247 35.4259 39.2665 35.1128C39.4764 35.0611 39.6329 35.0611 39.8411 34.903C43.4856 33.8119 46.1406 31.8347 46.1406 29.8543C46.089 28.2403 43.5905 26.3664 40.2059 25.1688ZM31.6678 19.8587C34.0081 17.8267 36.1967 17.0988 37.2361 17.6185C38.2788 18.1915 38.6952 20.69 38.0189 23.9712C37.9672 24.1795 37.9672 24.3344 37.8623 24.6475C36.4565 24.3344 35.1024 24.0745 33.6449 23.9696C32.8637 22.8253 31.9793 21.6293 31.0415 20.69C31.1979 20.377 31.4095 20.0949 31.6661 19.8571M24.4273 33.3406C24.7404 33.9136 25.1052 34.4349 25.4699 34.9546C24.4876 34.8999 23.5118 34.7606 22.5534 34.5382C22.7939 33.5815 23.1432 32.6554 23.5945 31.7782C23.8043 32.2463 24.1674 32.8725 24.4273 33.3406ZM22.555 25.8435C23.5014 25.6307 24.4561 25.4568 25.4167 25.3222C25.0519 25.8435 24.7388 26.3648 24.4806 26.9362C24.2191 27.5092 23.9076 27.9788 23.5945 28.6035C23.1264 27.6141 22.8682 26.728 22.555 25.8435ZM24.2175 30.1642C24.5822 29.2797 25.1036 28.4986 25.6233 27.6141C26.1446 26.728 26.6643 25.9468 27.134 25.114C28.0701 25.0623 29.0079 25.0623 29.9973 25.0623C30.9334 25.0623 31.976 25.114 32.8605 25.114C33.4335 25.8951 33.9016 26.728 34.3712 27.5092C34.8909 28.2903 35.3074 29.1764 35.7754 30.0593C35.4123 30.947 34.8909 31.7266 34.3712 32.6127C33.8499 33.4972 33.3286 34.2783 32.8605 35.1112C31.9244 35.1628 30.9866 35.1628 29.9456 35.1628C28.9046 35.1628 27.9668 35.1112 27.0823 35.1112C26.5094 34.33 26.0397 33.4972 25.5716 32.6127C25.1036 31.7266 24.6872 31.0503 24.2175 30.1642ZM35.5688 33.3406C35.8803 32.7676 36.1402 32.2479 36.4533 31.6749C36.8181 32.5594 37.1828 33.4972 37.4943 34.4349C36.5582 34.6431 35.5156 34.798 34.4761 34.9546C34.8909 34.4349 35.2557 33.8619 35.5688 33.3406ZM36.505 28.5502C36.1934 27.9788 35.932 27.4575 35.6205 26.8845C35.309 26.3116 34.9426 25.8435 34.6843 25.3754C35.6449 25.5095 36.5996 25.6829 37.546 25.8951C37.2345 26.7812 36.8697 27.6657 36.505 28.5502ZM30.0005 21.526C30.6784 22.2539 31.2497 22.9835 31.8227 23.7647C30.574 23.7128 29.3237 23.7128 28.075 23.7647C28.7512 22.9318 29.4275 22.2023 30.0005 21.526ZM22.7116 17.6685C23.7526 17.0972 26.1478 17.8783 28.543 20.1686C28.6996 20.3252 28.8545 20.4801 29.0627 20.585C28.1266 21.6261 27.2405 22.772 26.356 23.8647C24.9384 24.0095 23.5303 24.2359 22.1386 24.5426C22.087 24.2295 21.9821 23.8647 21.9304 23.6049C21.3574 20.5334 21.7222 18.2415 22.7116 17.6685ZM21.2525 34.2283C21.0427 34.175 20.7312 34.0717 20.4713 34.0185C19.0196 33.6251 17.658 32.9536 16.4621 32.0413C15.7326 31.52 15.3678 30.8954 15.2129 30.1658C15.2129 29.0199 17.2433 27.564 20.1066 26.5214C20.4713 26.3664 20.8361 26.3132 21.1993 26.1582C21.6157 27.5624 22.137 28.8649 22.71 30.1658C22.1887 31.4683 21.6157 32.7692 21.2525 34.2283ZM28.4898 40.3196C27.4374 41.264 26.2192 42.0055 24.897 42.5066C24.5605 42.6814 24.1885 42.777 23.8095 42.7859C23.4304 42.7949 23.0543 42.717 22.71 42.5582C21.6689 41.9852 21.3042 39.7983 21.8239 36.7801C21.8772 36.4137 21.9805 36.0505 22.0337 35.7374C23.4379 36.0505 24.897 36.2587 26.2495 36.3104C27.0307 37.4563 28.0201 38.6523 28.9578 39.695C28.9062 40.0065 28.6964 40.163 28.4898 40.3196ZM30.0505 38.8621C29.3726 38.1326 28.8013 37.4031 28.1766 36.6219C28.7496 36.6219 29.3226 36.6751 29.9989 36.6751C30.6751 36.6751 31.2998 36.6751 31.8727 36.6219C31.3014 37.2998 30.7268 38.0293 30.0505 38.8621ZM38.2771 40.6811C38.2255 41.4107 37.8607 42.1918 37.2361 42.6599C36.1951 43.2329 34.1114 42.505 31.8211 40.4745C31.6129 40.2647 31.3014 40.0565 31.0399 39.745C31.9943 38.6861 32.8647 37.5545 33.6433 36.3604C35.1008 36.3088 36.5066 35.9956 37.8607 35.6825C37.9124 35.8923 37.9124 36.2038 38.0173 36.4121C38.382 37.8711 38.3821 39.3286 38.2771 40.6811ZM39.4231 33.9668C39.2665 34.0185 39.0583 34.0185 38.8501 34.1218C38.4337 32.716 37.8091 31.4151 37.2361 30.1126C37.8091 28.8633 38.3288 27.5092 38.7452 26.1566C39.11 26.2083 39.4231 26.3648 39.6829 26.4681C42.5979 27.5092 44.6283 28.9666 44.6283 30.1126C44.6815 31.3102 42.5462 32.9242 39.4231 33.9652M30.0005 32.9758C31.6145 32.9758 32.8637 31.6749 32.8637 30.1126C32.8566 29.3555 32.5526 28.6316 32.0171 28.0964C31.4816 27.5613 30.7575 27.2577 30.0005 27.2509C28.4914 27.2509 27.1372 28.5518 27.1372 30.1142C27.1372 31.6765 28.3865 32.9774 30.0005 32.9774"/>
</mask>
<path d="M40.2059 25.1688C39.8411 25.1156 39.528 24.959 39.1632 24.8557C39.2165 24.6475 39.2165 24.4393 39.3198 24.1262C40.0493 20.3785 39.5296 17.4119 37.8623 16.3692C36.1967 15.4331 33.4884 16.4209 30.7817 18.7644C30.5718 18.9726 30.2087 19.1809 30.0005 19.4924C29.8439 19.3374 29.6357 19.1809 29.4792 18.9726C26.6159 16.4225 23.8043 15.3799 22.0353 16.3692C20.3681 17.3054 19.8483 20.1702 20.5763 23.6581C20.6295 24.0229 20.7328 24.3877 20.7861 24.6992C20.4213 24.7524 20.0033 24.909 19.6401 25.0639C16.2555 26.2615 13.8604 28.1887 13.8604 30.0109C13.8604 31.988 16.4105 33.9668 19.9 35.1112C20.2115 35.1644 20.473 35.321 20.7845 35.321C20.7328 35.6858 20.5763 36.0489 20.5763 36.4669C19.8984 39.9032 20.4213 42.6615 22.087 43.5993C23.7526 44.6403 26.6675 43.5993 29.3759 41.1008C29.5841 40.8909 29.7923 40.736 30.0537 40.5278C30.3264 40.7962 30.6224 41.0398 30.9382 41.2557C33.5416 43.5993 36.2483 44.537 37.9673 43.5993C39.6329 42.5582 40.2059 39.6417 39.4764 35.9973C39.4247 35.789 39.4247 35.4259 39.2665 35.1128C39.4764 35.0611 39.6329 35.0611 39.8411 34.903C43.4856 33.8119 46.1406 31.8347 46.1406 29.8543C46.089 28.2403 43.5905 26.3664 40.2059 25.1688ZM31.6678 19.8587C34.0081 17.8267 36.1967 17.0988 37.2361 17.6185C38.2788 18.1915 38.6952 20.69 38.0189 23.9712C37.9672 24.1795 37.9672 24.3344 37.8623 24.6475C36.4565 24.3344 35.1024 24.0745 33.6449 23.9696C32.8637 22.8253 31.9793 21.6293 31.0415 20.69C31.1979 20.377 31.4095 20.0949 31.6661 19.8571M24.4273 33.3406C24.7404 33.9136 25.1052 34.4349 25.4699 34.9546C24.4876 34.8999 23.5118 34.7606 22.5534 34.5382C22.7939 33.5815 23.1432 32.6554 23.5945 31.7782C23.8043 32.2463 24.1674 32.8725 24.4273 33.3406ZM22.555 25.8435C23.5014 25.6307 24.4561 25.4568 25.4167 25.3222C25.0519 25.8435 24.7388 26.3648 24.4806 26.9362C24.2191 27.5092 23.9076 27.9788 23.5945 28.6035C23.1264 27.6141 22.8682 26.728 22.555 25.8435ZM24.2175 30.1642C24.5822 29.2797 25.1036 28.4986 25.6233 27.6141C26.1446 26.728 26.6643 25.9468 27.134 25.114C28.0701 25.0623 29.0079 25.0623 29.9973 25.0623C30.9334 25.0623 31.976 25.114 32.8605 25.114C33.4335 25.8951 33.9016 26.728 34.3712 27.5092C34.8909 28.2903 35.3074 29.1764 35.7754 30.0593C35.4123 30.947 34.8909 31.7266 34.3712 32.6127C33.8499 33.4972 33.3286 34.2783 32.8605 35.1112C31.9244 35.1628 30.9866 35.1628 29.9456 35.1628C28.9046 35.1628 27.9668 35.1112 27.0823 35.1112C26.5094 34.33 26.0397 33.4972 25.5716 32.6127C25.1036 31.7266 24.6872 31.0503 24.2175 30.1642ZM35.5688 33.3406C35.8803 32.7676 36.1402 32.2479 36.4533 31.6749C36.8181 32.5594 37.1828 33.4972 37.4943 34.4349C36.5582 34.6431 35.5156 34.798 34.4761 34.9546C34.8909 34.4349 35.2557 33.8619 35.5688 33.3406ZM36.505 28.5502C36.1934 27.9788 35.932 27.4575 35.6205 26.8845C35.309 26.3116 34.9426 25.8435 34.6843 25.3754C35.6449 25.5095 36.5996 25.6829 37.546 25.8951C37.2345 26.7812 36.8697 27.6657 36.505 28.5502ZM30.0005 21.526C30.6784 22.2539 31.2497 22.9835 31.8227 23.7647C30.574 23.7128 29.3237 23.7128 28.075 23.7647C28.7512 22.9318 29.4275 22.2023 30.0005 21.526ZM22.7116 17.6685C23.7526 17.0972 26.1478 17.8783 28.543 20.1686C28.6996 20.3252 28.8545 20.4801 29.0627 20.585C28.1266 21.6261 27.2405 22.772 26.356 23.8647C24.9384 24.0095 23.5303 24.2359 22.1386 24.5426C22.087 24.2295 21.9821 23.8647 21.9304 23.6049C21.3574 20.5334 21.7222 18.2415 22.7116 17.6685ZM21.2525 34.2283C21.0427 34.175 20.7312 34.0717 20.4713 34.0185C19.0196 33.6251 17.658 32.9536 16.4621 32.0413C15.7326 31.52 15.3678 30.8954 15.2129 30.1658C15.2129 29.0199 17.2433 27.564 20.1066 26.5214C20.4713 26.3664 20.8361 26.3132 21.1993 26.1582C21.6157 27.5624 22.137 28.8649 22.71 30.1658C22.1887 31.4683 21.6157 32.7692 21.2525 34.2283ZM28.4898 40.3196C27.4374 41.264 26.2192 42.0055 24.897 42.5066C24.5605 42.6814 24.1885 42.777 23.8095 42.7859C23.4304 42.7949 23.0543 42.717 22.71 42.5582C21.6689 41.9852 21.3042 39.7983 21.8239 36.7801C21.8772 36.4137 21.9805 36.0505 22.0337 35.7374C23.4379 36.0505 24.897 36.2587 26.2495 36.3104C27.0307 37.4563 28.0201 38.6523 28.9578 39.695C28.9062 40.0065 28.6964 40.163 28.4898 40.3196ZM30.0505 38.8621C29.3726 38.1326 28.8013 37.4031 28.1766 36.6219C28.7496 36.6219 29.3226 36.6751 29.9989 36.6751C30.6751 36.6751 31.2998 36.6751 31.8727 36.6219C31.3014 37.2998 30.7268 38.0293 30.0505 38.8621ZM38.2771 40.6811C38.2255 41.4107 37.8607 42.1918 37.2361 42.6599C36.1951 43.2329 34.1114 42.505 31.8211 40.4745C31.6129 40.2647 31.3014 40.0565 31.0399 39.745C31.9943 38.6861 32.8647 37.5545 33.6433 36.3604C35.1008 36.3088 36.5066 35.9956 37.8607 35.6825C37.9124 35.8923 37.9124 36.2038 38.0173 36.4121C38.382 37.8711 38.3821 39.3286 38.2771 40.6811ZM39.4231 33.9668C39.2665 34.0185 39.0583 34.0185 38.8501 34.1218C38.4337 32.716 37.8091 31.4151 37.2361 30.1126C37.8091 28.8633 38.3288 27.5092 38.7452 26.1566C39.11 26.2083 39.4231 26.3648 39.6829 26.4681C42.5979 27.5092 44.6283 28.9666 44.6283 30.1126C44.6815 31.3102 42.5462 32.9242 39.4231 33.9652M30.0005 32.9758C31.6145 32.9758 32.8637 31.6749 32.8637 30.1126C32.8566 29.3555 32.5526 28.6316 32.0171 28.0964C31.4816 27.5613 30.7575 27.2577 30.0005 27.2509C28.4914 27.2509 27.1372 28.5518 27.1372 30.1142C27.1372 31.6765 28.3865 32.9774 30.0005 32.9774" fill="white"/>
<path d="M40.2059 25.1688L40.5395 24.2261L40.4472 24.1935L40.3504 24.1793L40.2059 25.1688ZM39.1632 24.8557L38.1944 24.6079L37.9528 25.5523L38.8908 25.8179L39.1632 24.8557ZM39.3198 24.1262L40.2694 24.4395L40.2893 24.3794L40.3014 24.3173L39.3198 24.1262ZM37.8623 16.3692L38.3926 15.5214L38.3727 15.509L38.3523 15.4975L37.8623 16.3692ZM30.7817 18.7644L30.1271 18.0084L30.1014 18.0307L30.0773 18.0546L30.7817 18.7644ZM30.0005 19.4924L29.297 20.2031L30.1584 21.0556L30.8319 20.0481L30.0005 19.4924ZM29.4792 18.9726L30.2784 18.3717L30.2186 18.2921L30.1443 18.2259L29.4792 18.9726ZM22.0353 16.3692L21.5472 15.4965L21.5457 15.4973L22.0353 16.3692ZM20.5763 23.6581L21.5658 23.5136L21.5614 23.4836L21.5552 23.4538L20.5763 23.6581ZM20.7861 24.6992L20.9306 25.6887L21.9445 25.5406L21.7718 24.5306L20.7861 24.6992ZM19.6401 25.0639L19.9737 26.0067L20.0035 25.9961L20.0326 25.9837L19.6401 25.0639ZM19.9 35.1112L19.5884 36.0614L19.6586 36.0844L19.7314 36.0969L19.9 35.1112ZM20.7845 35.321L21.7746 35.4612L21.936 34.321H20.7845V35.321ZM20.5763 36.4669L21.5574 36.6605L21.5763 36.5646V36.4669H20.5763ZM22.087 43.5993L22.617 42.7513L22.5975 42.7391L22.5776 42.7279L22.087 43.5993ZM29.3759 41.1008L30.0539 41.8358L30.0701 41.8208L30.0857 41.8051L29.3759 41.1008ZM30.0537 40.5278L30.7552 39.8151L30.1238 39.1937L29.4308 39.7455L30.0537 40.5278ZM30.9382 41.2557L31.6073 40.5125L31.5577 40.4679L31.5027 40.4302L30.9382 41.2557ZM37.9673 43.5993L38.4462 44.4771L38.4721 44.4629L38.4972 44.4473L37.9673 43.5993ZM39.4764 35.9973L40.4569 35.801L40.4524 35.7786L40.4469 35.7565L39.4764 35.9973ZM39.2665 35.1128L39.0275 34.1418L37.8074 34.4421L38.3739 35.5637L39.2665 35.1128ZM39.8411 34.903L39.5543 33.945L39.3806 33.997L39.2362 34.1067L39.8411 34.903ZM46.1406 29.8543H47.1406V29.8383L47.1401 29.8223L46.1406 29.8543ZM37.2361 17.6185L37.7177 16.7421L37.7007 16.7328L37.6833 16.7241L37.2361 17.6185ZM38.0189 23.9712L38.9895 24.212L38.9943 24.1926L38.9983 24.1731L38.0189 23.9712ZM37.8623 24.6475L37.6449 25.6236L38.5243 25.8195L38.8105 24.9652L37.8623 24.6475ZM33.6449 23.9696L32.819 24.5334L33.0913 24.9324L33.5731 24.9671L33.6449 23.9696ZM31.0415 20.69L30.147 20.243L29.8252 20.887L30.3338 21.3965L31.0415 20.69ZM24.4273 33.3406L25.3048 32.861L25.3016 32.8552L24.4273 33.3406ZM25.4699 34.9546L25.4144 35.9531L27.4729 36.0677L26.2885 34.3801L25.4699 34.9546ZM22.5534 34.5382L21.5836 34.2945L21.3354 35.2821L22.3274 35.5123L22.5534 34.5382ZM23.5945 31.7782L24.507 31.3692L23.6565 29.4719L22.7052 31.3207L23.5945 31.7782ZM22.555 25.8435L22.3357 24.8679L21.2363 25.115L21.6124 26.1772L22.555 25.8435ZM25.4167 25.3222L26.236 25.8955L27.5532 24.013L25.2779 24.3319L25.4167 25.3222ZM24.4806 26.9362L25.3903 27.3513L25.3918 27.3481L24.4806 26.9362ZM23.5945 28.6035L22.6905 29.0311L23.5684 30.8868L24.4884 29.0516L23.5945 28.6035ZM24.2175 30.1642L23.293 29.783L23.1139 30.2174L23.3339 30.6325L24.2175 30.1642ZM25.6233 27.6141L24.7614 27.107L24.7611 27.1075L25.6233 27.6141ZM27.134 25.114L27.0789 24.1155L26.532 24.1457L26.263 24.6227L27.134 25.114ZM32.8605 25.114L33.6669 24.5225L33.3672 24.114H32.8605V25.114ZM34.3712 27.5092L33.5142 28.0244L33.526 28.044L33.5386 28.0631L34.3712 27.5092ZM35.7754 30.0593L36.701 30.4379L36.8783 30.0046L36.6589 29.5909L35.7754 30.0593ZM34.3712 32.6127L35.2327 33.1204L35.2338 33.1186L34.3712 32.6127ZM32.8605 35.1112L32.9156 36.1096L33.4634 36.0794L33.7323 35.6011L32.8605 35.1112ZM27.0823 35.1112L26.276 35.7026L26.5757 36.1112H27.0823V35.1112ZM25.5716 32.6127L24.6874 33.0797L24.6878 33.0804L25.5716 32.6127ZM35.5688 33.3406L36.4261 33.8555L36.4371 33.8371L36.4474 33.8182L35.5688 33.3406ZM36.4533 31.6749L37.3778 31.2937L36.5797 29.3584L35.5758 31.1954L36.4533 31.6749ZM37.4943 34.4349L37.7115 35.411L38.7925 35.1706L38.4434 34.1196L37.4943 34.4349ZM34.4761 34.9546L33.6946 34.3308L32.1044 36.3231L34.6251 35.9435L34.4761 34.9546ZM36.505 28.5502L35.627 29.0289L36.6303 30.8692L37.4294 28.9315L36.505 28.5502ZM34.6843 25.3754L34.8226 24.385L32.8434 24.1088L33.8088 25.8585L34.6843 25.3754ZM37.546 25.8951L38.4894 26.2268L38.8625 25.1656L37.7648 24.9194L37.546 25.8951ZM30.0005 21.526L30.7323 20.8445L29.9652 20.0208L29.2375 20.8796L30.0005 21.526ZM31.8227 23.7647L31.7812 24.7638L33.8589 24.85L32.6291 23.1732L31.8227 23.7647ZM28.075 23.7647L27.2987 23.1343L25.9008 24.8557L28.1164 24.7638L28.075 23.7647ZM22.7116 17.6685L22.2305 16.7919L22.2204 16.7974L22.2105 16.8032L22.7116 17.6685ZM28.543 20.1686L29.2501 19.4615L29.2422 19.4536L29.2341 19.4459L28.543 20.1686ZM29.0627 20.585L29.8063 21.2537L30.6812 20.2808L29.5127 19.692L29.0627 20.585ZM26.356 23.8647L26.4577 24.8595L26.8716 24.8173L27.1333 24.4939L26.356 23.8647ZM22.1386 24.5426L21.152 24.7054L21.3236 25.7462L22.3539 25.5192L22.1386 24.5426ZM21.9304 23.6049L20.9473 23.7883L20.9496 23.7998L21.9304 23.6049ZM21.2525 34.2283L21.0065 35.1976L21.9803 35.4447L22.2229 34.4698L21.2525 34.2283ZM20.4713 34.0185L20.2098 34.9837L20.24 34.9918L20.2706 34.9981L20.4713 34.0185ZM16.4621 32.0413L17.0687 31.2463L17.0563 31.2368L17.0435 31.2277L16.4621 32.0413ZM15.2129 30.1658H14.2129V30.2709L14.2347 30.3736L15.2129 30.1658ZM20.1066 26.5214L20.4488 27.461L20.4734 27.452L20.4975 27.4418L20.1066 26.5214ZM21.1993 26.1582L22.158 25.8739L21.839 24.7981L20.8068 25.2385L21.1993 26.1582ZM22.71 30.1658L23.6384 30.5374L23.7945 30.1473L23.6251 29.7627L22.71 30.1658ZM28.4898 40.3196L27.8858 39.5226L27.8527 39.5476L27.8219 39.5753L28.4898 40.3196ZM24.897 42.5066L24.5426 41.5715L24.4878 41.5922L24.4358 41.6192L24.897 42.5066ZM22.71 42.5582L22.2278 43.4343L22.259 43.4514L22.2913 43.4663L22.71 42.5582ZM21.8239 36.7801L22.8094 36.9497L22.8116 36.9369L22.8135 36.9239L21.8239 36.7801ZM22.0337 35.7374L22.2514 34.7614L21.2243 34.5324L21.0479 35.5697L22.0337 35.7374ZM26.2495 36.3104L27.0758 35.7471L26.7917 35.3304L26.2877 35.3111L26.2495 36.3104ZM28.9578 39.695L29.9444 39.8585L30.0231 39.3839L29.7014 39.0263L28.9578 39.695ZM30.0505 38.8621L29.318 39.5428L30.1013 40.3859L30.8268 39.4925L30.0505 38.8621ZM28.1766 36.6219V35.6219H26.0967L27.3956 37.2464L28.1766 36.6219ZM31.8727 36.6219L32.6374 37.2664L34.2102 35.4003L31.7802 35.6262L31.8727 36.6219ZM38.2771 40.6811L37.2801 40.6038L37.2796 40.6105L38.2771 40.6811ZM37.2361 42.6599L37.7183 43.536L37.7797 43.5022L37.8358 43.4601L37.2361 42.6599ZM31.8211 40.4745L31.1113 41.1789L31.1338 41.2016L31.1577 41.2228L31.8211 40.4745ZM31.0399 39.745L30.2971 39.0755L29.7147 39.7216L30.274 40.3879L31.0399 39.745ZM33.6433 36.3604L33.6079 35.361L33.0891 35.3794L32.8056 35.8142L33.6433 36.3604ZM37.8607 35.6825L38.8317 35.4435L38.5961 34.4861L37.6354 34.7082L37.8607 35.6825ZM38.0173 36.4121L38.9874 36.1695L38.9604 36.0615L38.9103 35.9621L38.0173 36.4121ZM38.8501 34.1218L37.8913 34.4058L38.2291 35.5462L39.2945 35.0176L38.8501 34.1218ZM37.2361 30.1126L36.3271 29.6957L36.1399 30.104L36.3208 30.5152L37.2361 30.1126ZM38.7452 26.1566L38.8854 25.1665L38.0405 25.0469L37.7895 25.8624L38.7452 26.1566ZM39.6829 26.4681L39.3135 27.3974L39.33 27.4039L39.3466 27.4099L39.6829 26.4681ZM44.6283 30.1126H43.6283V30.1348L43.6293 30.157L44.6283 30.1126ZM32.8637 30.1126H33.8638L33.8637 30.1031L32.8637 30.1126ZM30.0005 27.2509L30.0094 26.2509H30.0005V27.2509ZM40.2059 25.1688L40.3504 24.1793C40.2632 24.1666 40.1651 24.1392 40.0119 24.0861C39.8819 24.0411 39.655 23.9557 39.4357 23.8936L39.1632 24.8557L38.8908 25.8179C39.0363 25.8591 39.1483 25.9036 39.3572 25.976C39.5429 26.0403 39.7838 26.1178 40.0614 26.1584L40.2059 25.1688ZM39.1632 24.8557L40.132 25.1036C40.1727 24.9446 40.1978 24.7628 40.2091 24.695C40.2242 24.6047 40.2398 24.5292 40.2694 24.4395L39.3198 24.1262L38.3701 23.8129C38.2964 24.0363 38.2605 24.2214 38.2364 24.3656C38.2086 24.5322 38.207 24.5586 38.1944 24.6079L39.1632 24.8557ZM39.3198 24.1262L40.3014 24.3173C40.682 22.3619 40.7497 20.5512 40.4733 19.052C40.1998 17.5688 39.5587 16.2506 38.3926 15.5214L37.8623 16.3692L37.3321 17.2171C37.8333 17.5305 38.2856 18.217 38.5064 19.4146C38.7243 20.5963 38.6871 22.1428 38.3382 23.9351L39.3198 24.1262ZM37.8623 16.3692L38.3523 15.4975C37.1722 14.8343 35.751 14.92 34.3858 15.3918C33.0067 15.8684 31.544 16.7817 30.1271 18.0084L30.7817 18.7644L31.4362 19.5204C32.726 18.4037 33.9708 17.6513 35.039 17.2821C36.121 16.9082 36.8868 16.9681 37.3724 17.241L37.8623 16.3692ZM30.7817 18.7644L30.0773 18.0546C30.017 18.1144 29.969 18.1424 29.7573 18.3157C29.5965 18.4472 29.3585 18.6533 29.1691 18.9367L30.0005 19.4924L30.8319 20.0481C30.8507 20.0199 30.8984 19.9661 31.0236 19.8637C31.0968 19.8038 31.1337 19.7765 31.2266 19.7018C31.2993 19.6434 31.3949 19.5647 31.486 19.4743L30.7817 18.7644ZM30.0005 19.4924L30.7039 18.7816C30.6476 18.7259 30.591 18.6743 30.5452 18.6329C30.4944 18.5871 30.4589 18.5555 30.4196 18.5191C30.3443 18.4493 30.3037 18.4052 30.2784 18.3717L29.4792 18.9726L28.6799 19.5736C28.8112 19.7483 28.953 19.8866 29.06 19.9858C29.1977 20.1135 29.2294 20.1361 29.297 20.2031L30.0005 19.4924ZM29.4792 18.9726L30.1443 18.2259C28.6507 16.8957 27.1224 15.9136 25.6819 15.4014C24.2506 14.8926 22.7778 14.8082 21.5472 15.4965L22.0353 16.3692L22.5235 17.242C23.0618 16.9409 23.8793 16.8832 25.0119 17.2858C26.1352 17.6852 27.4443 18.4995 28.8141 19.7194L29.4792 18.9726ZM22.0353 16.3692L21.5457 15.4973C20.3553 16.1657 19.7028 17.4454 19.4261 18.8655C19.1462 20.3014 19.2148 22.0295 19.5974 23.8624L20.5763 23.6581L21.5552 23.4538C21.2098 21.7989 21.1743 20.3506 21.3891 19.2481C21.6071 18.1297 22.0481 17.5089 22.5249 17.2412L22.0353 16.3692ZM20.5763 23.6581L19.5868 23.8026C19.6192 24.025 19.6657 24.239 19.7051 24.416C19.7475 24.6066 19.7791 24.7433 19.8004 24.8677L20.7861 24.6992L21.7718 24.5306C21.7398 24.3435 21.6931 24.142 21.6573 23.9812C21.6184 23.8068 21.5866 23.6561 21.5658 23.5136L20.5763 23.6581ZM20.7861 24.6992L20.6416 23.7097C20.1398 23.7829 19.6205 23.9851 19.2477 24.1442L19.6401 25.0639L20.0326 25.9837C20.3861 25.8329 20.7028 25.7219 20.9306 25.6887L20.7861 24.6992ZM19.6401 25.0639L19.3066 24.1212C17.5357 24.7478 15.9756 25.5808 14.8374 26.5378C13.7294 27.4696 12.8604 28.6609 12.8604 30.0109H13.8604H14.8604C14.8604 29.5386 15.1889 28.8553 16.1246 28.0686C17.0302 27.3071 18.36 26.5777 19.9737 26.0067L19.6401 25.0639ZM13.8604 30.0109H12.8604C12.8604 31.4376 13.7665 32.6815 14.9356 33.645C16.1307 34.6299 17.761 35.4621 19.5884 36.0614L19.9 35.1112L20.2116 34.161C18.5495 33.6159 17.16 32.8865 16.2076 32.1016C15.2293 31.2954 14.8604 30.5614 14.8604 30.0109H13.8604ZM19.9 35.1112L19.7314 36.0969C19.7972 36.1081 19.8422 36.126 20.0377 36.1885C20.1978 36.2397 20.465 36.321 20.7845 36.321V35.321V34.321C20.7924 34.321 20.7731 34.3239 20.6468 34.2835C20.5558 34.2545 20.3143 34.1675 20.0685 34.1255L19.9 35.1112ZM20.7845 35.321L19.7943 35.1808C19.7775 35.2995 19.748 35.3948 19.689 35.639C19.6384 35.8483 19.5763 36.1365 19.5763 36.4669H20.5763H21.5763C21.5763 36.3793 21.5924 36.2769 21.633 36.1089C21.6652 35.9759 21.7398 35.7072 21.7746 35.4612L20.7845 35.321ZM20.5763 36.4669L19.5952 36.2734C19.2392 38.0777 19.1845 39.767 19.4733 41.1714C19.7602 42.5668 20.4184 43.8075 21.5964 44.4707L22.087 43.5993L22.5776 42.7279C22.0899 42.4533 21.6538 41.8459 21.4323 40.7686C21.2127 39.7004 21.2354 38.2924 21.5574 36.6605L20.5763 36.4669ZM22.087 43.5993L21.557 44.4473C22.753 45.1948 24.2518 45.1134 25.6681 44.6221C27.1062 44.1233 28.6275 43.1517 30.0539 41.8358L29.3759 41.1008L28.6978 40.3658C27.4159 41.5484 26.1256 42.3465 25.0127 42.7326C23.8781 43.1261 23.0866 43.0448 22.617 42.7513L22.087 43.5993ZM29.3759 41.1008L30.0857 41.8051C30.2409 41.6488 30.3839 41.5432 30.6767 41.3101L30.0537 40.5278L29.4308 39.7455C29.2006 39.9288 28.9273 40.1331 28.666 40.3964L29.3759 41.1008ZM30.0537 40.5278L29.3523 41.2405C29.6672 41.5504 30.009 41.8318 30.3738 42.0812L30.9382 41.2557L31.5027 40.4302C31.2358 40.2477 30.9856 40.0419 30.7552 39.8151L30.0537 40.5278ZM30.9382 41.2557L30.2692 41.9989C31.6419 43.2347 33.085 44.1405 34.465 44.6056C35.8364 45.0678 37.2561 45.1264 38.4462 44.4771L37.9673 43.5993L37.4883 42.7214C36.9595 43.0099 36.1663 43.0685 35.1038 42.7103C34.0499 42.3551 32.8379 41.6203 31.6073 40.5125L30.9382 41.2557ZM37.9673 43.5993L38.4972 44.4473C39.6517 43.7257 40.3111 42.433 40.601 40.9687C40.8935 39.491 40.8396 37.713 40.4569 35.801L39.4764 35.9973L38.4958 36.1935C38.8426 37.9259 38.867 39.4285 38.639 40.5804C38.4084 41.7457 37.9484 42.4318 37.4373 42.7513L37.9673 43.5993ZM39.4764 35.9973L40.4469 35.7565C40.4477 35.7594 40.4439 35.7436 40.434 35.674C40.4263 35.6201 40.4134 35.5228 40.3975 35.4285C40.365 35.2353 40.3051 34.9509 40.1591 34.6619L39.2665 35.1128L38.3739 35.5637C38.3861 35.5878 38.4053 35.6415 38.4252 35.7602C38.4356 35.8219 38.4423 35.8739 38.4541 35.9565C38.4636 36.0233 38.4792 36.131 38.5058 36.238L39.4764 35.9973ZM39.2665 35.1128L39.5055 36.0838C39.5416 36.0749 40.0219 36.0215 40.446 35.6992L39.8411 34.903L39.2362 34.1067C39.2335 34.1087 39.2401 34.1035 39.2545 34.0965C39.2688 34.0895 39.2793 34.0864 39.2786 34.0866C39.2732 34.0882 39.2604 34.0914 39.2145 34.1009C39.1769 34.1086 39.1038 34.123 39.0275 34.1418L39.2665 35.1128ZM39.8411 34.903L40.1279 35.8609C42.0339 35.2903 43.7311 34.4747 44.9748 33.4989C46.1879 32.5471 47.1406 31.3002 47.1406 29.8543H46.1406H45.1406C45.1406 30.3889 44.7658 31.1207 43.7402 31.9254C42.7453 32.7061 41.2928 33.4245 39.5543 33.945L39.8411 34.903ZM46.1406 29.8543L47.1401 29.8223C47.0992 28.5444 46.141 27.4248 45.0371 26.5661C43.8769 25.6637 42.3036 24.8503 40.5395 24.2261L40.2059 25.1688L39.8723 26.1116C41.4927 26.6849 42.861 27.4073 43.8091 28.1448C44.8135 28.9259 45.1304 29.5502 45.1411 29.8863L46.1406 29.8543ZM31.6678 19.8587L32.3234 20.6138C33.4277 19.6549 34.4613 19.0355 35.2971 18.7157C36.1872 18.3751 36.6531 18.445 36.7889 18.5129L37.2361 17.6185L37.6833 16.7241C36.7797 16.2722 35.6316 16.4463 34.5824 16.8477C33.479 17.2699 32.2481 18.0305 31.0121 19.1037L31.6678 19.8587ZM37.2361 17.6185L36.7545 18.4949C36.7713 18.5041 36.871 18.5715 36.9913 18.8229C37.1088 19.0685 37.2156 19.4295 37.2811 19.9135C37.4121 20.8803 37.3612 22.2082 37.0395 23.7694L38.0189 23.9712L38.9983 24.1731C39.3528 22.453 39.4319 20.891 39.263 19.645C39.1787 19.0226 39.0282 18.4464 38.7955 17.9599C38.5655 17.4791 38.2223 17.0194 37.7177 16.7421L37.2361 17.6185ZM38.0189 23.9712L37.0483 23.7305C37.0135 23.8708 36.9876 24.0331 36.9779 24.0849C36.9646 24.1552 36.9488 24.2263 36.9141 24.3298L37.8623 24.6475L38.8105 24.9652C38.8808 24.7556 38.9174 24.5927 38.9433 24.4551C38.9727 24.2992 38.9726 24.2799 38.9895 24.212L38.0189 23.9712ZM37.8623 24.6475L38.0797 23.6714C36.6577 23.3547 35.2474 23.0824 33.7167 22.9722L33.6449 23.9696L33.5731 24.9671C34.9573 25.0667 36.2554 25.3141 37.6449 25.6236L37.8623 24.6475ZM33.6449 23.9696L34.4708 23.4058C33.6808 22.2486 32.7544 20.9903 31.7492 19.9835L31.0415 20.69L30.3338 21.3965C31.2042 22.2683 32.0467 23.402 32.819 24.5334L33.6449 23.9696ZM31.0415 20.69L31.9361 21.1369C32.0386 20.9317 32.1774 20.7467 32.3457 20.5908L31.6661 19.8571L30.9866 19.1235C30.6416 19.4431 30.3572 19.8223 30.147 20.243L31.0415 20.69ZM24.4273 33.3406L23.5498 33.8201C23.8938 34.4497 24.2906 35.015 24.6514 35.5291L25.4699 34.9546L26.2885 34.3801C25.9198 33.8548 25.587 33.3775 25.3048 32.861L24.4273 33.3406ZM25.4699 34.9546L25.5255 33.9562C24.6006 33.9047 23.6819 33.7735 22.7795 33.5641L22.5534 34.5382L22.3274 35.5123C23.3418 35.7477 24.3746 35.8952 25.4144 35.9531L25.4699 34.9546ZM22.5534 34.5382L23.5233 34.7819C23.7451 33.8993 24.0673 33.045 24.4837 32.2357L23.5945 31.7782L22.7052 31.3207C22.219 32.2659 21.8426 33.2636 21.5836 34.2945L22.5534 34.5382ZM23.5945 31.7782L22.682 32.1873C22.9148 32.7067 23.3125 33.3927 23.553 33.826L24.4273 33.3406L25.3016 32.8552C25.0224 32.3523 24.6938 31.7859 24.507 31.3692L23.5945 31.7782ZM22.555 25.8435L22.7744 26.8191C23.6941 26.6123 24.6219 26.4433 25.5555 26.3125L25.4167 25.3222L25.2779 24.3319C24.2902 24.4703 23.3087 24.6491 22.3357 24.8679L22.555 25.8435ZM25.4167 25.3222L24.5973 24.7489C24.2067 25.3072 23.8592 25.8829 23.5693 26.5243L24.4806 26.9362L25.3918 27.3481C25.6184 26.8468 25.8972 26.3798 26.236 25.8955L25.4167 25.3222ZM24.4806 26.9362L23.5708 26.521C23.4586 26.7669 23.3331 26.9965 23.1845 27.2616C23.0396 27.5202 22.8699 27.8175 22.7005 28.1553L23.5945 28.6035L24.4884 29.0516C24.6322 28.7648 24.7747 28.515 24.9292 28.2393C25.0801 27.9702 25.241 27.6785 25.3903 27.3513L24.4806 26.9362ZM23.5945 28.6035L24.4984 28.1758C24.0593 27.2477 23.832 26.454 23.4977 25.5098L22.555 25.8435L21.6124 26.1772C21.9043 27.002 22.1935 27.9804 22.6905 29.0311L23.5945 28.6035ZM24.2175 30.1642L25.1419 30.5455C25.4712 29.7471 25.9273 29.0706 26.4855 28.1207L25.6233 27.6141L24.7611 27.1075C24.2798 27.9265 23.6933 28.8124 23.293 29.783L24.2175 30.1642ZM25.6233 27.6141L26.4852 28.1212C26.9517 27.3281 27.5472 26.4171 28.005 25.6052L27.134 25.114L26.263 24.6227C25.7815 25.4765 25.3375 26.1278 24.7614 27.107L25.6233 27.6141ZM27.134 25.114L27.1891 26.1124C28.093 26.0626 29.0029 26.0623 29.9973 26.0623V25.0623V24.0623C29.0128 24.0623 28.0473 24.0621 27.0789 24.1155L27.134 25.114ZM29.9973 25.0623V26.0623C30.4498 26.0623 30.9312 26.0748 31.4218 26.0878C31.9066 26.1006 32.4025 26.114 32.8605 26.114V25.114V24.114C32.4341 24.114 31.9664 24.1015 31.4747 24.0885C30.9888 24.0756 30.4808 24.0623 29.9973 24.0623V25.0623ZM32.8605 25.114L32.0542 25.7054C32.5917 26.4382 33.0243 27.2097 33.5142 28.0244L34.3712 27.5092L35.2283 26.9939C34.7788 26.2463 34.2753 25.3521 33.6669 24.5225L32.8605 25.114ZM34.3712 27.5092L33.5386 28.0631C34.0216 28.7889 34.3924 29.5855 34.8919 30.5277L35.7754 30.0593L36.6589 29.5909C36.2223 28.7673 35.7603 27.7917 35.2038 26.9553L34.3712 27.5092ZM35.7754 30.0593L34.8499 29.6807C34.5225 30.4809 34.0677 31.1536 33.5086 32.1068L34.3712 32.6127L35.2338 33.1186C35.7142 32.2996 36.302 31.4131 36.701 30.4379L35.7754 30.0593ZM34.3712 32.6127L33.5097 32.1049C33.0414 32.8996 32.448 33.804 31.9888 34.6212L32.8605 35.1112L33.7323 35.6011C34.2091 34.7527 34.6584 34.0948 35.2327 33.1204L34.3712 32.6127ZM32.8605 35.1112L32.8054 34.1127C31.9017 34.1625 30.992 34.1628 29.9456 34.1628V35.1628V36.1628C30.9813 36.1628 31.9471 36.1631 32.9156 36.1096L32.8605 35.1112ZM29.9456 35.1628V34.1628C29.4403 34.1628 28.9581 34.1503 28.4824 34.1374C28.0112 34.1246 27.5409 34.1112 27.0823 34.1112V35.1112V36.1112C27.5082 36.1112 27.9491 36.1236 28.4281 36.1366C28.9027 36.1495 29.4098 36.1628 29.9456 36.1628V35.1628ZM27.0823 35.1112L27.8887 34.5197C27.3601 33.7991 26.9178 33.0185 26.4555 32.1449L25.5716 32.6127L24.6878 33.0804C25.1616 33.9758 25.6586 34.8609 26.276 35.7026L27.0823 35.1112ZM25.5716 32.6127L26.4558 32.1456C26.214 31.6878 25.9861 31.2853 25.7652 30.8955C25.5431 30.5035 25.3283 30.1247 25.101 29.6959L24.2175 30.1642L23.3339 30.6325C23.5763 31.0898 23.8046 31.4922 24.0251 31.8814C24.2469 32.2728 24.4612 32.6514 24.6874 33.0797L25.5716 32.6127ZM35.5688 33.3406L36.4474 33.8182C36.6075 33.5237 36.754 33.2435 36.8964 32.9716C37.0396 32.698 37.1791 32.4322 37.3308 32.1545L36.4533 31.6749L35.5758 31.1954C35.4144 31.4907 35.2674 31.7712 35.1246 32.0439C34.9808 32.3184 34.8416 32.5845 34.6903 32.863L35.5688 33.3406ZM36.4533 31.6749L35.5288 32.0562C35.8888 32.929 36.244 33.843 36.5453 34.7501L37.4943 34.4349L38.4434 34.1196C38.1217 33.1513 37.7474 32.1898 37.3778 31.2937L36.4533 31.6749ZM37.4943 34.4349L37.2772 33.4587C36.382 33.6579 35.3768 33.8077 34.3272 33.9658L34.4761 34.9546L34.6251 35.9435C35.6543 35.7884 36.7345 35.6283 37.7115 35.411L37.4943 34.4349ZM34.4761 34.9546L35.2577 35.5784C35.7139 35.0068 36.1055 34.3893 36.4261 33.8555L35.5688 33.3406L34.7116 32.8257C34.4059 33.3346 34.0679 33.863 33.6946 34.3308L34.4761 34.9546ZM36.505 28.5502L37.3829 28.0715C37.2317 27.7941 37.0921 27.5279 36.9485 27.2538C36.8058 26.9816 36.659 26.7012 36.499 26.4069L35.6205 26.8845L34.7419 27.3622C34.8934 27.6408 35.0331 27.9076 35.1769 28.1821C35.3198 28.4548 35.4667 28.7349 35.627 29.0289L36.505 28.5502ZM35.6205 26.8845L36.499 26.4069C36.321 26.0794 36.1304 25.7878 35.9675 25.5405C35.7966 25.2811 35.6658 25.0843 35.5599 24.8924L34.6843 25.3754L33.8088 25.8585C33.9611 26.1347 34.1426 26.4059 34.2974 26.6408C34.4601 26.8878 34.6085 27.1167 34.7419 27.3622L35.6205 26.8845ZM34.6843 25.3754L34.5461 26.3658C35.4796 26.4961 36.4074 26.6646 37.3272 26.8709L37.546 25.8951L37.7648 24.9194C36.7918 24.7012 35.8102 24.5229 34.8226 24.385L34.6843 25.3754ZM37.546 25.8951L36.6026 25.5635C36.3014 26.4202 35.9471 27.28 35.5805 28.1689L36.505 28.5502L37.4294 28.9315C37.7924 28.0514 38.1676 27.1422 38.4894 26.2268L37.546 25.8951ZM30.0005 21.526L29.2687 22.2075C29.9097 22.8958 30.4553 23.5912 31.0163 24.3561L31.8227 23.7647L32.6291 23.1732C32.0441 22.3757 31.4471 21.612 30.7323 20.8445L30.0005 21.526ZM31.8227 23.7647L31.8642 22.7655C30.5878 22.7125 29.3098 22.7125 28.0335 22.7655L28.075 23.7647L28.1164 24.7638C29.3375 24.7131 30.5602 24.7131 31.7812 24.7638L31.8227 23.7647ZM28.075 23.7647L28.8513 24.395C29.5301 23.559 30.1408 22.9073 30.7635 22.1724L30.0005 21.526L29.2375 20.8796C28.7142 21.4972 27.9723 22.3047 27.2987 23.1343L28.075 23.7647ZM22.7116 17.6685L23.1927 18.5452C23.3058 18.4831 23.7938 18.3933 24.749 18.7743C25.6363 19.1282 26.7282 19.8169 27.8519 20.8914L28.543 20.1686L29.2341 19.4459C27.9626 18.2301 26.6594 17.383 25.49 16.9166C24.3885 16.4773 23.1584 16.2826 22.2305 16.7919L22.7116 17.6685ZM28.543 20.1686L27.8359 20.8757C27.9772 21.017 28.2392 21.2899 28.6128 21.4781L29.0627 20.585L29.5127 19.692C29.4973 19.6843 29.4721 19.669 29.4298 19.6331C29.3823 19.5929 29.3333 19.5447 29.2501 19.4615L28.543 20.1686ZM29.0627 20.585L28.3192 19.9164C27.3599 20.9831 26.4438 22.1669 25.5788 23.2356L26.356 23.8647L27.1333 24.4939C28.0372 23.3772 28.8933 22.269 29.8063 21.2537L29.0627 20.585ZM26.356 23.8647L26.2544 22.8699C24.7986 23.0186 23.3525 23.2511 21.9234 23.566L22.1386 24.5426L22.3539 25.5192C23.708 25.2207 25.0782 25.0005 26.4577 24.8595L26.356 23.8647ZM22.1386 24.5426L23.1253 24.3799C23.093 24.1842 23.0462 23.9837 23.0068 23.82C22.9635 23.64 22.932 23.5143 22.9112 23.4099L21.9304 23.6049L20.9496 23.7998C20.9805 23.9553 21.0272 24.1419 21.0622 24.2875C21.1012 24.4495 21.1326 24.5879 21.152 24.7054L22.1386 24.5426ZM21.9304 23.6049L22.9135 23.4215C22.6403 21.9574 22.6013 20.7296 22.7256 19.8377C22.8605 18.8688 23.1429 18.5743 23.2127 18.5339L22.7116 17.6685L22.2105 16.8032C21.2909 17.3357 20.8962 18.4737 20.7447 19.5618C20.5824 20.727 20.6475 22.1809 20.9474 23.7882L21.9304 23.6049ZM21.2525 34.2283L21.4986 33.259C21.4134 33.2374 21.313 33.207 21.1562 33.1621C21.0171 33.1222 20.8426 33.0738 20.6721 33.0388L20.4713 34.0185L20.2706 34.9981C20.3599 35.0164 20.4711 35.0463 20.6052 35.0847C20.7216 35.118 20.8819 35.1659 21.0065 35.1976L21.2525 34.2283ZM20.4713 34.0185L20.7329 33.0533C19.4061 32.6938 18.1616 32.0801 17.0687 31.2463L16.4621 32.0413L15.8556 32.8364C17.1544 33.8272 18.6331 34.5564 20.2098 34.9837L20.4713 34.0185ZM16.4621 32.0413L17.0435 31.2277C16.5249 30.8571 16.2961 30.4524 16.1911 29.9581L15.2129 30.1658L14.2347 30.3736C14.4396 31.3383 14.9403 32.1829 15.8807 32.8549L16.4621 32.0413ZM15.2129 30.1658H16.2129C16.2129 30.1744 16.2127 30.0761 16.3753 29.859C16.5329 29.6486 16.795 29.3929 17.1791 29.11C17.9455 28.5455 19.0763 27.9608 20.4488 27.461L20.1066 26.5214L19.7644 25.5817C18.2736 26.1246 16.9576 26.7892 15.9929 27.4997C15.5115 27.8543 15.0871 28.2427 14.7745 28.6601C14.4669 29.0709 14.2129 29.5843 14.2129 30.1658H15.2129ZM20.1066 26.5214L20.4975 27.4418C20.6142 27.3923 20.7378 27.3558 20.9283 27.3013C21.1025 27.2516 21.3437 27.1838 21.5917 27.078L21.1993 26.1582L20.8068 25.2385C20.6917 25.2876 20.569 25.324 20.3788 25.3783C20.2049 25.428 19.9638 25.4956 19.7156 25.601L20.1066 26.5214ZM21.1993 26.1582L20.2405 26.4425C20.6737 27.9031 21.2131 29.2482 21.7948 30.5689L22.71 30.1658L23.6251 29.7627C23.0609 28.4816 22.5577 27.2218 22.158 25.8739L21.1993 26.1582ZM22.71 30.1658L21.7816 29.7942C21.2768 31.0554 20.6665 32.4424 20.2821 33.9868L21.2525 34.2283L22.2229 34.4698C22.5649 33.096 23.1005 31.8813 23.6384 30.5374L22.71 30.1658ZM28.4898 40.3196L27.8219 39.5753C26.8613 40.4373 25.7495 41.1141 24.5426 41.5715L24.897 42.5066L25.2513 43.4417C26.689 42.8969 28.0134 42.0907 29.1577 41.0638L28.4898 40.3196ZM24.897 42.5066L24.4358 41.6192C24.2348 41.7237 24.0124 41.7809 23.7859 41.7862L23.8095 42.7859L23.8331 43.7857C24.3646 43.7731 24.8863 43.6391 25.3581 43.3939L24.897 42.5066ZM23.8095 42.7859L23.7859 41.7862C23.5593 41.7916 23.3345 41.745 23.1287 41.6501L22.71 42.5582L22.2913 43.4663C22.7741 43.689 23.3015 43.7982 23.8331 43.7857L23.8095 42.7859ZM22.71 42.5582L23.1922 41.6821C23.0922 41.6271 22.8128 41.343 22.6695 40.431C22.5355 39.5772 22.5611 38.3919 22.8094 36.9497L21.8239 36.7801L20.8384 36.6104C20.567 38.1864 20.5151 39.6037 20.6938 40.7412C20.8633 41.8205 21.2867 42.9163 22.2278 43.4343L22.71 42.5582ZM21.8239 36.7801L22.8135 36.9239C22.8343 36.781 22.8661 36.6305 22.9049 36.4562C22.9407 36.2953 22.9875 36.0935 23.0196 35.9051L22.0337 35.7374L21.0479 35.5697C21.0267 35.6944 20.9952 35.8307 20.9527 36.0213C20.9133 36.1985 20.8668 36.4127 20.8343 36.6362L21.8239 36.7801ZM22.0337 35.7374L21.8161 36.7134C23.2683 37.0373 24.7882 37.2553 26.2114 37.3096L26.2495 36.3104L26.2877 35.3111C25.0058 35.2622 23.6075 35.0638 22.2514 34.7614L22.0337 35.7374ZM26.2495 36.3104L25.4232 36.8736C26.2389 38.0702 27.2602 39.3028 28.2143 40.3637L28.9578 39.695L29.7014 39.0263C28.78 38.0018 27.8225 36.8425 27.0758 35.7471L26.2495 36.3104ZM28.9578 39.695L27.9713 39.5314C27.9745 39.5123 27.982 39.4861 27.9958 39.4583C28.009 39.4315 28.0222 39.415 28.0266 39.41C28.0296 39.4065 28.0243 39.4133 28 39.4337C27.9881 39.4437 27.9734 39.4555 27.954 39.4705C27.9339 39.4861 27.9131 39.5019 27.8858 39.5226L28.4898 40.3196L29.0937 41.1166C29.267 40.9853 29.8195 40.6117 29.9444 39.8585L28.9578 39.695ZM30.0505 38.8621L30.7831 38.1814C30.1364 37.4855 29.5916 36.7902 28.9577 35.9974L28.1766 36.6219L27.3956 37.2464C28.0109 38.0159 28.6089 38.7797 29.318 39.5428L30.0505 38.8621ZM28.1766 36.6219V37.6219C28.4365 37.6219 28.6992 37.6339 29.0046 37.6475C29.3036 37.6608 29.636 37.6751 29.9989 37.6751V36.6751V35.6751C29.6854 35.6751 29.3933 35.6628 29.0934 35.6495C28.8 35.6364 28.4898 35.6219 28.1766 35.6219V36.6219ZM29.9989 36.6751V37.6751C30.6636 37.6751 31.3373 37.676 31.9653 37.6176L31.8727 36.6219L31.7802 35.6262C31.2623 35.6743 30.6867 35.6751 29.9989 35.6751V36.6751ZM31.8727 36.6219L31.1081 35.9774C30.5293 36.6641 29.9374 37.4151 29.2742 38.2318L30.0505 38.8621L30.8268 39.4925C31.5162 38.6435 32.0735 37.9354 32.6374 37.2664L31.8727 36.6219ZM38.2771 40.6811L37.2796 40.6105C37.2455 41.093 36.9969 41.5895 36.6364 41.8597L37.2361 42.6599L37.8358 43.4601C38.7245 42.7942 39.2055 41.7284 39.2746 40.7517L38.2771 40.6811ZM37.2361 42.6599L36.7539 41.7838C36.6249 41.8549 36.2019 41.9388 35.3592 41.6114C34.5625 41.3018 33.5688 40.6875 32.4845 39.7262L31.8211 40.4745L31.1577 41.2228C32.3637 42.2919 33.557 43.0568 34.6349 43.4756C35.6669 43.8765 36.8063 44.0379 37.7183 43.536L37.2361 42.6599ZM31.8211 40.4745L32.5309 39.7702C32.3893 39.6274 32.2014 39.4746 32.1017 39.389C31.9775 39.2824 31.8835 39.1946 31.8058 39.1021L31.0399 39.745L30.274 40.3879C30.4578 40.6069 30.6503 40.7789 30.7992 40.9068C30.9727 41.0556 31.0447 41.1118 31.1113 41.1789L31.8211 40.4745ZM31.0399 39.745L31.7827 40.4145C32.7719 39.3171 33.674 38.1442 34.481 36.9066L33.6433 36.3604L32.8056 35.8142C32.0554 36.9648 31.2167 38.0552 30.2971 39.0755L31.0399 39.745ZM33.6433 36.3604L33.6787 37.3598C35.2449 37.3043 36.7384 36.9684 38.086 36.6568L37.8607 35.6825L37.6354 34.7082C36.2748 35.0229 34.9566 35.3132 33.6079 35.361L33.6433 36.3604ZM37.8607 35.6825L36.8897 35.9215C36.8895 35.9207 36.8908 35.9261 36.8934 35.9403C36.8959 35.9544 36.8988 35.9727 36.9024 35.998C36.906 36.0231 36.9215 36.1393 36.9301 36.1966C36.9509 36.3343 36.994 36.6036 37.1242 36.862L38.0173 36.4121L38.9103 35.9621C38.9275 35.9962 38.9298 36.0126 38.9255 35.9954C38.9214 35.9792 38.9156 35.9505 38.9079 35.8992C38.9042 35.8743 38.9005 35.8478 38.8962 35.8161C38.8922 35.7866 38.8872 35.7495 38.8821 35.7135C38.8721 35.6442 38.8569 35.5456 38.8317 35.4435L37.8607 35.6825ZM38.0173 36.4121L37.0471 36.6546C37.3747 37.9648 37.3812 39.3007 37.2801 40.6038L38.2771 40.6811L39.2741 40.7585C39.3829 39.3564 39.3894 37.7775 38.9874 36.1695L38.0173 36.4121ZM39.4231 33.9668L39.1098 33.0172C39.1289 33.0109 39.1337 33.0112 39.1024 33.0174C39.0877 33.0203 39.0715 33.0233 39.0464 33.0279C39.0236 33.0321 38.9933 33.0377 38.9614 33.044C38.8334 33.0694 38.6277 33.1158 38.4057 33.226L38.8501 34.1218L39.2945 35.0176C39.2807 35.0244 39.2832 35.0192 39.3505 35.0058C39.3675 35.0025 39.3852 34.9992 39.4094 34.9947C39.4313 34.9907 39.4611 34.9852 39.4912 34.9792C39.5495 34.9677 39.639 34.9486 39.7364 34.9165L39.4231 33.9668ZM38.8501 34.1218L39.8089 33.8378C39.3693 32.3534 38.706 30.9706 38.1514 29.7099L37.2361 30.1126L36.3208 30.5152C36.9121 31.8596 37.4981 33.0785 37.8913 34.4058L38.8501 34.1218ZM37.2361 30.1126L38.1451 30.5295C38.736 29.2411 39.2714 27.846 39.7009 26.4509L38.7452 26.1566L37.7895 25.8624C37.3862 27.1723 36.8822 28.4855 36.3271 29.6957L37.2361 30.1126ZM38.7452 26.1566L38.605 27.1467C38.6895 27.1587 38.7843 27.1852 38.903 27.2296C38.9623 27.2518 39.0227 27.2766 39.0915 27.3054C39.1543 27.3317 39.2372 27.367 39.3135 27.3974L39.6829 26.4681L40.0523 25.5389C39.8923 25.4752 39.4055 25.2401 38.8854 25.1665L38.7452 26.1566ZM39.6829 26.4681L39.3466 27.4099C40.7442 27.909 41.8867 28.4938 42.6584 29.0582C43.0451 29.341 43.3082 29.5966 43.4659 29.8067C43.6286 30.0233 43.6283 30.1214 43.6283 30.1126H44.6283H45.6283C45.6283 29.5308 45.3741 29.017 45.065 28.6055C44.751 28.1874 44.3243 27.7987 43.839 27.4438C42.8667 26.7327 41.5366 26.0683 40.0193 25.5264L39.6829 26.4681ZM44.6283 30.1126L43.6293 30.157C43.6289 30.1496 43.633 30.2555 43.4646 30.4897C43.3017 30.7164 43.0263 30.9927 42.6195 31.2956C41.8084 31.8997 40.596 32.5202 39.1069 33.0165L39.4231 33.9652L39.7393 34.9139C41.3733 34.3692 42.7901 33.6622 43.8141 32.8996C44.325 32.5192 44.7685 32.1024 45.0886 31.657C45.4033 31.2193 45.6543 30.6743 45.6273 30.0681L44.6283 30.1126ZM30.0005 32.9758V33.9758C32.1785 33.9758 33.8637 32.2154 33.8637 30.1126H32.8637H31.8637C31.8637 31.1344 31.0505 31.9758 30.0005 31.9758V32.9758ZM32.8637 30.1126L33.8637 30.1031C33.8541 29.0841 33.4448 28.1095 32.724 27.3891L32.0171 28.0964L31.3102 28.8037C31.6603 29.1537 31.8591 29.627 31.8638 30.122L32.8637 30.1126ZM32.0171 28.0964L32.724 27.3891C32.0032 26.6687 31.0284 26.26 30.0094 26.251L30.0005 27.2509L29.9916 28.2509C30.4866 28.2553 30.9601 28.4538 31.3102 28.8037L32.0171 28.0964ZM30.0005 27.2509V26.2509C27.9511 26.2509 26.1372 27.9876 26.1372 30.1142H27.1372H28.1372C28.1372 29.116 29.0316 28.2509 30.0005 28.2509V27.2509ZM27.1372 30.1142H26.1372C26.1372 32.217 27.8225 33.9774 30.0005 33.9774V32.9774V31.9774C28.9505 31.9774 28.1372 31.1361 28.1372 30.1142H27.1372Z" fill="white" mask="url(#path-3-inside-1_656_5305)"/>
<defs>
<linearGradient id="paint0_linear_656_5305" x1="30" y1="60" x2="30" y2="0" gradientUnits="userSpaceOnUse">
<stop stop-color="#1E1E1E"/>
<stop offset="1" stop-color="#434343"/>
</linearGradient>
</defs>
</svg>
