<svg viewBox="0 0 60 60" fill="none" xmlns="http://www.w3.org/2000/svg">
<g clip-path="url(#clip0_886_10916)">
<path d="M50 0H10C4.47715 0 0 4.47715 0 10V50C0 55.5228 4.47715 60 10 60H50C55.5228 60 60 55.5228 60 50V10C60 4.47715 55.5228 0 50 0Z" fill="white"/>
<path d="M47.1433 30.1428V29.5702C47.1433 27.0468 45.0964 24.9999 42.573 24.9999H38.5718C37.2079 24.9999 35.8998 25.5418 34.9353 26.5062C33.9708 27.4707 33.429 28.7788 33.429 30.1428C33.429 31.5068 33.9708 32.8149 34.9353 33.7793C35.8998 34.7438 37.2079 35.2856 38.5718 35.2856H42.0004C43.3644 35.2856 44.6725 35.8275 45.637 36.792C46.6014 37.7564 47.1433 39.0645 47.1433 40.4285C47.1433 41.7925 46.6014 43.1006 45.637 44.0651C44.6725 45.0295 43.3644 45.5714 42.0004 45.5714H38.5718C37.2079 45.5714 35.8998 45.0295 34.9353 44.0651C33.9708 43.1006 33.429 41.7925 33.429 40.4285M26.5718 23.2856V40.4285C26.5718 41.7925 26.03 43.1006 25.0655 44.0651C24.1011 45.0295 22.793 45.5714 21.429 45.5714C20.065 45.5714 18.7569 45.0295 17.7924 44.0651C16.828 43.1006 16.2861 41.7925 16.2861 40.4285" stroke="#1E1E1E" stroke-width="2"/>
<path d="M46 6.5H14C9.85786 6.5 6.5 9.85786 6.5 14V46C6.5 50.1421 9.85786 53.5 14 53.5H46C50.1421 53.5 53.5 50.1421 53.5 46V14C53.5 9.85786 50.1421 6.5 46 6.5Z" stroke="#1E1E1E"/>
</g>
<defs>
<clipPath id="clip0_886_10916">
<rect width="60" height="60" fill="white"/>
</clipPath>
</defs>
</svg>
