<svg viewBox="0 0 60 60" fill="none" xmlns="http://www.w3.org/2000/svg">
<g clip-path="url(#clip0_887_11042)">
<path d="M50 0H10C4.47715 0 0 4.47715 0 10V50C0 55.5228 4.47715 60 10 60H50C55.5228 60 60 55.5228 60 50V10C60 4.47715 55.5228 0 50 0Z" fill="white"/>
<path d="M14 6.25H46C50.2802 6.25 53.75 9.71979 53.75 14V46C53.75 50.2802 50.2802 53.75 46 53.75H14C9.71981 53.75 6.25002 50.2802 6.25 46V14C6.25 9.71979 9.71979 6.25 14 6.25ZM15.0908 6.81152C10.5345 6.81157 6.84082 10.5052 6.84082 15.0615V44.8809C6.84082 49.4372 10.5345 53.1308 15.0908 53.1309H44.9092C49.4655 53.1308 53.1592 49.4372 53.1592 44.8809V15.0615C53.1592 10.5052 49.4655 6.81157 44.9092 6.81152H15.0908ZM40.8125 23.1338V39.3018H37.7344C37.7287 39.3018 37.7233 39.3 37.7188 39.2998V23.1338H40.8125ZM27.8574 17.1719L27.8623 17.1914L34.2139 39.2861H31.0098C30.9836 39.2861 30.9643 39.2829 30.9502 39.2812L29.4443 33.6631C29.3284 33.2308 28.9368 32.9297 28.4893 32.9297H22.6484C22.5084 32.9297 22.4239 33.0253 22.4033 33.1328L20.8213 39.2656L20.8184 39.2754L20.8164 39.2842L20.8154 39.2852C20.8035 39.2856 20.7897 39.2861 20.7734 39.2861H17.8809V39.2832L23.5537 18.9043C23.6615 18.514 23.7236 18.1685 23.7559 17.1719H27.8574ZM22.7588 32.957C22.8375 32.9936 22.8803 33.0615 22.8926 33.1348C22.8747 33.043 22.8073 32.9644 22.71 32.9395L22.7588 32.957ZM25.833 19.957C25.7055 19.9572 25.5874 20.047 25.5635 20.1826C25.239 22.0187 24.5385 24.8369 23.8584 27.4912C23.52 28.8117 24.5151 30.0976 25.8789 30.0977C27.2347 30.0977 28.2284 28.826 27.8916 27.5107C27.3445 25.3743 26.6606 22.7103 26.2559 20.8965L26.1016 20.1748L26.0869 20.127C26.0503 20.0361 25.9688 19.9763 25.8789 19.9609L25.833 19.957ZM39.2744 16.5957C39.8241 16.5957 40.2688 16.7854 40.5762 17.1006C40.8841 17.4164 41.0723 17.876 41.0723 18.4453C41.0723 19.0677 40.876 19.5231 40.5654 19.8232C40.2533 20.1248 39.7986 20.2959 39.2354 20.2959C38.6903 20.2959 38.2554 20.1269 37.957 19.8281C37.6659 19.5366 37.4809 19.0954 37.4717 18.4922C37.475 18.476 37.4765 18.4593 37.4766 18.4424C37.4773 17.8411 37.6799 17.3835 37.9932 17.0771C38.3077 16.7697 38.7533 16.5957 39.2744 16.5957Z" fill="black"/>
<path d="M22.4014 33.2119C22.3993 33.1952 22.3979 33.1783 22.3994 33.1611M37.3232 18.6748C37.3149 18.6785 37.3057 18.6799 37.2969 18.6826M14 6.25H46C50.2802 6.25 53.75 9.71979 53.75 14V46C53.75 50.2802 50.2802 53.75 46 53.75H14C9.71981 53.75 6.25002 50.2802 6.25 46V14C6.25 9.71979 9.71979 6.25 14 6.25ZM15.0908 6.81152C10.5345 6.81157 6.84082 10.5052 6.84082 15.0615V44.8809C6.84082 49.4372 10.5345 53.1308 15.0908 53.1309H44.9092C49.4655 53.1308 53.1592 49.4372 53.1592 44.8809V15.0615C53.1592 10.5052 49.4655 6.81157 44.9092 6.81152H15.0908ZM40.8125 23.1338V39.3018H37.7344C37.7287 39.3018 37.7233 39.3 37.7188 39.2998V23.1338H40.8125ZM27.8574 17.1719L27.8623 17.1914L34.2139 39.2861H31.0098C30.9836 39.2861 30.9643 39.2829 30.9502 39.2812L29.4443 33.6631C29.3284 33.2308 28.9368 32.9297 28.4893 32.9297H22.6484C22.5084 32.9297 22.4239 33.0253 22.4033 33.1328L20.8213 39.2656L20.8184 39.2754L20.8164 39.2842L20.8154 39.2852C20.8035 39.2856 20.7897 39.2861 20.7734 39.2861H17.8809V39.2832L23.5537 18.9043C23.6615 18.514 23.7236 18.1685 23.7559 17.1719H27.8574ZM22.7588 32.957C22.8375 32.9936 22.8803 33.0615 22.8926 33.1348C22.8747 33.043 22.8073 32.9644 22.71 32.9395L22.7588 32.957ZM25.833 19.957C25.7055 19.9572 25.5874 20.047 25.5635 20.1826C25.239 22.0187 24.5385 24.8369 23.8584 27.4912C23.52 28.8117 24.5151 30.0976 25.8789 30.0977C27.2347 30.0977 28.2284 28.826 27.8916 27.5107C27.3445 25.3743 26.6606 22.7103 26.2559 20.8965L26.1016 20.1748L26.0869 20.127C26.0503 20.0361 25.9688 19.9763 25.8789 19.9609L25.833 19.957ZM39.2744 16.5957C39.8241 16.5957 40.2688 16.7854 40.5762 17.1006C40.8841 17.4164 41.0723 17.876 41.0723 18.4453C41.0723 19.0677 40.876 19.5231 40.5654 19.8232C40.2533 20.1248 39.7986 20.2959 39.2354 20.2959C38.6903 20.2959 38.2554 20.1269 37.957 19.8281C37.6659 19.5366 37.4809 19.0954 37.4717 18.4922C37.475 18.476 37.4765 18.4593 37.4766 18.4424C37.4773 17.8411 37.6799 17.3835 37.9932 17.0771C38.3077 16.7697 38.7533 16.5957 39.2744 16.5957Z" stroke="black" stroke-width="0.5"/>
</g>
<defs>
<clipPath id="clip0_887_11042">
<rect width="60" height="60" fill="white"/>
</clipPath>
</defs>
</svg>
