<svg width="36" height="36" viewBox="0 0 36 36" fill="none" xmlns="http://www.w3.org/2000/svg">
<path d="M9.86719 13.2769V15.5999H12.1903V13.2769H9.86719ZM13.3544 13.2769V15.5999H15.6774V13.2769H13.3544ZM16.8364 13.2769V15.5999H19.1646V13.2769H16.8364ZM20.3236 13.2769V15.5999H22.6467V13.2769H20.3236ZM23.8108 13.2769V15.5999H26.1339V13.2769H23.8108ZM9.86719 16.7589V19.0871H12.1903V16.7589H9.86719ZM13.3544 16.7589V19.0871H15.6774V16.7589H13.3544ZM16.8364 16.7589V19.0871H19.1646V16.7589H16.8364ZM20.3236 16.7589V19.0871H22.6467V16.7589H20.3236ZM23.8108 16.7589V19.0871H26.1339V16.7589H23.8108ZM9.86719 20.2461V22.5692H12.1903V20.2461H9.86719ZM13.3544 20.2461V22.5692H22.6467V20.2461H13.3544ZM23.8108 20.2461V22.5692H26.1339V20.2461H23.8108Z" stroke="white" stroke-width="0.34188" stroke-linecap="round" stroke-linejoin="round"/>
<path d="M28 23.8205V12.0256C28 11.7536 27.8919 11.4927 27.6996 11.3004C27.5073 11.1081 27.2464 11 26.9744 11H9.02564C8.75362 11 8.49275 11.1081 8.3004 11.3004C8.10806 11.4927 8 11.7536 8 12.0256V23.8205C8 24.0925 8.10806 24.3534 8.3004 24.5458C8.49275 24.7381 8.75362 24.8462 9.02564 24.8462H26.9744C27.2464 24.8462 27.5073 24.7381 27.6996 24.5458C27.8919 24.3534 28 24.0925 28 23.8205Z" stroke="white" stroke-width="0.683761" stroke-linecap="round" stroke-linejoin="round"/>
<rect x="0.375" y="0.375" width="35.25" height="35.25" rx="17.625" stroke="white" stroke-width="0.75"/>
</svg>
