<svg viewBox="0 0 86 794" fill="none" xmlns="http://www.w3.org/2000/svg">
<g clip-path="url(#clip0_1020_14271)">
<path d="M75.4015 24.838L75.4015 -2.61296L98.9735 -2.61296L98.9735 77.8005L75.4015 77.8005L75.4015 50.3495L2 50.3495L2 24.838L75.4015 24.838ZM1.99999 110.665L2 85.1539L98.9735 85.1539L98.9735 110.665L62.7203 110.665L62.7203 146.769L98.9735 146.769L98.9735 172.281L1.99999 172.281L1.99999 146.769L39.1483 146.769L39.1483 110.665L1.99999 110.665ZM1.99999 204.266L1.99999 177.71L98.9735 217.842L98.9735 239.027L1.99999 279.159L1.99999 252.454L16.3222 246.785L16.3222 209.935L1.99999 204.266ZM62.5711 228.435L38.7007 218.886L38.7007 237.983L62.5711 228.435ZM1.99999 308.93L1.99999 284.462L98.9735 284.462L98.9735 307.139L45.7127 348.167L98.9735 348.167L98.9735 372.783L1.99998 372.783L1.99998 349.957L54.9624 308.93L1.99999 308.93ZM1.99998 382.66L98.9735 382.66L98.9735 408.171L64.063 408.171L98.9735 435.324L98.9735 467.549L51.6803 430.699L1.99998 470.383L1.99998 438.158L39.5959 408.171L1.99998 408.171L1.99998 382.66ZM42.2813 536.806L98.9735 501.149L98.9735 530.39L66.1517 549.487L98.9735 569.627L98.9735 598.719L42.878 562.317L1.99998 562.317L1.99998 536.806L42.2813 536.806ZM100.465 642.145C100.465 656.617 95.6913 668.85 86.1431 678.548C76.595 688.394 64.6598 693.318 50.4867 693.318C36.3137 693.318 24.3785 688.394 14.8303 678.548C5.28215 668.85 0.508071 656.617 0.508072 642.145C0.508072 627.525 5.28215 615.291 14.8303 605.445C24.3785 595.747 36.3137 590.824 50.4867 590.824C64.6598 590.824 76.595 595.747 86.1431 605.445C95.6913 615.291 100.465 627.525 100.465 642.145ZM50.6359 617.529C43.3256 617.529 37.2088 619.916 32.2855 624.541C27.3623 629.166 24.9752 635.134 24.9752 642.145C24.9752 649.157 27.3623 654.976 32.2855 659.601C37.2088 664.375 43.3256 666.762 50.6359 666.762C57.6478 666.762 63.6154 664.375 68.5387 659.601C73.462 654.976 75.9982 649.157 75.9982 642.145C75.9982 635.134 73.6112 629.166 68.6879 624.541C63.7646 619.916 57.797 617.529 50.6359 617.529ZM41.8337 763.191L98.9735 763.191L98.9735 788.702L41.5353 788.702C29.8985 788.702 20.2011 784.525 12.2941 776.171C4.38701 767.816 0.508067 757.373 0.508067 744.99C0.508068 732.607 4.38701 722.313 12.2941 713.958C20.2012 705.604 30.0477 701.426 41.5353 701.426L98.9735 701.426L98.9735 726.938L41.8337 726.938C31.6888 726.938 23.9309 734.845 23.9309 744.99C23.9309 755.284 31.6888 763.191 41.8337 763.191Z" fill="#1F1F1F"/>
</g>
<defs>
<clipPath id="clip0_1020_14271">
<rect width="86" height="794" fill="white"/>
</clipPath>
</defs>
</svg>
