<svg width="60" height="93" viewBox="0 0 60 93" fill="none" xmlns="http://www.w3.org/2000/svg">
<path d="M35.028 39.875L24.973 39.875ZM24.973 47.9187L24.973 50.1825C24.9694 51.9247 24.5739 53.6437 23.8157 55.2123C23.0575 56.7808 21.956 58.1587 20.593 59.2437C18.8151 60.6641 17.3813 62.4679 16.3986 64.5203C15.4158 66.5727 14.9097 68.8207 14.918 71.0962C14.9318 79.4 21.6668 86.125 29.9693 86.125C38.3293 86.125 45.083 79.4038 45.083 71.0763C45.083 66.295 42.8743 62.04 39.4205 59.2725C36.6605 57.0625 35.0293 53.7387 35.0293 50.2037L35.0293 47.9188L24.973 47.9187Z" fill="#8781C3"/>
<path d="M35.028 39.875L24.973 39.875M24.973 47.9187L24.973 50.1825C24.9694 51.9247 24.5739 53.6437 23.8157 55.2123C23.0575 56.7808 21.956 58.1587 20.593 59.2437C18.8151 60.6641 17.3813 62.4679 16.3986 64.5203C15.4158 66.5727 14.9097 68.8207 14.918 71.0962C14.9318 79.4 21.6668 86.125 29.9693 86.125C38.3293 86.125 45.083 79.4038 45.083 71.0763C45.083 66.295 42.8743 62.04 39.4205 59.2725C36.6605 57.0625 35.0293 53.7387 35.0293 50.2037L35.0293 47.9188L24.973 47.9187Z" stroke="#8781C3" stroke-width="1.25" stroke-linecap="round" stroke-linejoin="round"/>
<line x1="30" y1="-4.37114e-08" x2="30" y2="40" stroke="white" stroke-width="2"/>
</svg>
